<?xml version="1.0" encoding="UTF-8"?><svg id="Capa_2" xmlns="http://www.w3.org/2000/svg" viewBox="0 0 1500 1500"><defs><style>.cls-1{fill:#fff;}.cls-2{fill:#edeb8d;}.cls-3{fill:#12b8d6;}.cls-4{fill:#f197bf;}.cls-5{fill:#b59dcb;}.cls-6{fill:#f198bf;}</style></defs><g id="Layer_1"><g><rect class="cls-1" width="1500" height="1500"/><g><g><rect class="cls-2" x="1474.13" y="232.76" width="25.87" height="25.85"/><rect class="cls-2" x="1318.96" y="284.49" width="25.86" height="25.86"/><rect class="cls-2" x="1267.24" y="1448.29" width="25.86" height="25.85"/><rect class="cls-2" x="1267.24" y="517.25" width="25.86" height="25.85"/><polygon class="cls-2" points="1189.66 1086.2 1189.66 1112.08 1215.52 1112.08 1215.52 1086.2 1215.52 1060.34 1189.66 1060.34 1189.66 1086.2"/><rect class="cls-2" x="1163.8" y="672.41" width="25.86" height="25.87"/><rect class="cls-2" x="1060.35" y="905.19" width="25.86" height="25.86"/><rect class="cls-2" x="1060.35" y="25.85" width="25.86" height="25.86"/><rect class="cls-2" x="956.9" y="1137.94" width="25.86" height="25.85"/><polygon class="cls-2" points="956.9 413.79 956.9 439.65 982.76 439.65 1008.62 439.65 1008.62 413.79 982.76 413.79 956.9 413.79"/><rect class="cls-2" x="931.03" y="1163.79" width="25.87" height="25.86"/><rect class="cls-2" x="801.72" y="724.14" width="25.86" height="25.85"/><rect class="cls-2" x="775.87" y="698.28" width="25.86" height="25.87"/><rect class="cls-2" x="750" y="1422.43" width="25.86" height="25.86"/><rect class="cls-2" x="517.24" y="1318.98" width="25.87" height="25.86"/><rect class="cls-2" x="517.24" y="413.79" width="25.87" height="25.86"/><rect class="cls-2" x="491.38" y="1344.84" width="25.86" height="25.85"/><rect class="cls-2" x="465.52" y="387.93" width="25.86" height="25.86"/><rect class="cls-2" x="413.79" y="1112.08" width="25.87" height="25.86"/><rect class="cls-2" x="310.34" y="181.03" width="25.87" height="25.87"/><rect class="cls-2" x="181.04" y="827.59" width="25.86" height="25.85"/><rect class="cls-2" x="51.73" y="724.14" width="25.86" height="25.85"/></g><g><polygon class="cls-3" points="1474.13 51.71 1474.13 77.59 1474.13 103.44 1500 103.44 1500 77.59 1500 51.71 1474.13 51.71"/><polygon class="cls-3" points="1422.41 620.7 1422.41 646.55 1448.27 646.55 1474.13 646.55 1474.13 620.7 1448.27 620.7 1422.41 620.7"/><rect class="cls-3" x="1396.55" y="1422.43" width="25.86" height="25.86"/><rect class="cls-3" x="1189.66" y="1189.65" width="25.86" height="25.87"/><rect class="cls-3" x="1189.66" y="284.49" width="25.86" height="25.86"/><rect class="cls-3" x="1163.8" y="258.61" width="25.86" height="25.88"/><rect class="cls-3" x="1060.35" y="543.1" width="25.86" height="25.86"/><polygon class="cls-3" points="1034.48 1422.43 1034.48 1448.29 1060.35 1448.29 1086.21 1448.29 1086.21 1422.43 1060.35 1422.43 1034.48 1422.43"/><rect class="cls-3" x="775.87" y="258.61" width="25.86" height="25.88"/><polygon class="cls-3" points="698.28 1034.49 698.28 1060.34 724.13 1060.34 750 1060.34 750 1034.49 724.13 1034.49 698.28 1034.49"/><polygon class="cls-3" points="517.24 698.28 517.24 724.14 543.11 724.14 543.11 698.28 543.11 672.41 517.24 672.41 517.24 698.28"/><rect class="cls-3" x="284.48" y="1215.52" width="25.86" height="25.86"/><polygon class="cls-3" points="232.77 387.93 206.9 387.93 206.9 413.79 206.9 439.65 232.77 439.65 258.62 439.65 258.62 413.79 232.77 413.79 232.77 387.93"/><rect class="cls-3" x="25.87" y="439.65" width="25.86" height="25.86"/></g><g><rect class="cls-2" x="1474.13" y="491.39" width="25.87" height="25.86"/><rect class="cls-2" x="1396.55" y="439.65" width="25.86" height="25.86"/><rect class="cls-2" x="1318.96" y="1293.1" width="25.86" height="25.88"/><polygon class="cls-2" points="1293.11 103.44 1293.11 129.31 1318.96 129.31 1344.82 129.31 1344.82 103.44 1318.96 103.44 1293.11 103.44"/><rect class="cls-2" x="1267.24" y="1241.38" width="25.86" height="25.86"/><rect class="cls-2" x="1112.07" y="181.03" width="25.86" height="25.87"/><polygon class="cls-2" points="1060.35 724.14 1060.35 750 1086.21 750 1112.07 750 1112.07 724.14 1086.21 724.14 1060.35 724.14"/><polygon class="cls-2" points="956.9 1034.49 956.9 1060.34 982.76 1060.34 1008.62 1060.34 1008.62 1034.49 982.76 1034.49 956.9 1034.49"/><rect class="cls-2" x="931.03" y="1008.63" width="25.87" height="25.86"/><rect class="cls-2" x="879.31" y="413.79" width="25.86" height="25.86"/><polygon class="cls-2" points="853.45 1370.69 853.45 1396.55 879.31 1396.55 905.17 1396.55 905.17 1370.69 879.31 1370.69 853.45 1370.69"/><rect class="cls-2" x="853.45" y="387.93" width="25.86" height="25.86"/><rect class="cls-2" x="698.28" y="1318.98" width="25.86" height="25.86"/><polygon class="cls-2" points="594.83 51.71 594.83 77.59 620.69 77.59 646.56 77.59 646.56 51.71 620.69 51.71 594.83 51.71"/><polygon class="cls-2" points="568.97 905.19 568.97 931.04 594.83 931.04 620.69 931.04 620.69 905.19 594.83 905.19 568.97 905.19"/><rect class="cls-2" x="517.24" y="568.96" width="25.87" height="25.88"/><polygon class="cls-2" points="465.52 258.61 439.66 258.61 439.66 284.49 465.52 284.49 491.38 284.49 491.38 258.61 491.38 232.76 465.52 232.76 465.52 258.61"/><rect class="cls-2" x="284.48" y="931.04" width="25.86" height="25.85"/><rect class="cls-2" x="181.04" y="491.39" width="25.86" height="25.86"/><rect class="cls-2" x="103.45" y="1448.29" width="25.87" height="25.85"/><polygon class="cls-2" points="103.45 1086.2 77.59 1086.2 77.59 1112.08 103.45 1112.08 129.32 1112.08 155.18 1112.08 155.18 1086.2 129.32 1086.2 103.45 1086.2"/><polygon class="cls-2" points="25.87 155.16 25.87 181.03 51.73 181.03 51.73 155.16 51.73 129.31 25.87 129.31 25.87 155.16"/></g><g><rect class="cls-5" x="1474.13" y="724.14" width="25.87" height="25.85"/><rect class="cls-5" x="1448.27" y="1086.2" width="25.86" height="25.88"/><rect class="cls-5" x="1241.38" y="413.79" width="25.87" height="25.86"/><rect class="cls-5" x="1215.52" y="51.71" width="25.86" height="25.88"/><polygon class="cls-5" points="1163.8 853.45 1163.8 879.3 1163.8 905.19 1189.66 905.19 1189.66 879.3 1189.66 853.45 1189.66 827.59 1163.8 827.59 1163.8 853.45"/><rect class="cls-5" x="1086.21" y="1163.79" width="25.86" height="25.86"/><rect class="cls-5" x="801.72" y="801.73" width="25.86" height="25.86"/><polygon class="cls-5" points="801.72 155.16 775.87 155.16 750 155.16 750 181.03 775.87 181.03 801.72 181.03 801.72 155.16"/><rect class="cls-5" x="620.69" y="491.39" width="25.87" height="25.86"/><rect class="cls-5" x="594.83" y="1112.08" width="25.86" height="25.86"/><rect class="cls-5" x="568.97" y="1086.2" width="25.86" height="25.88"/><rect class="cls-5" x="387.93" y="1293.1" width="25.86" height="25.88"/><rect class="cls-5" x="336.21" y="310.35" width="25.86" height="25.85"/><rect class="cls-5" x="310.34" y="284.49" width="25.87" height="25.86"/><rect class="cls-5" x="284.48" y="568.96" width="25.86" height="25.88"/><rect class="cls-5" x="284.48" y="51.71" width="25.86" height="25.88"/><polygon class="cls-5" points="206.9 594.84 206.9 620.7 232.77 620.7 258.62 620.7 258.62 594.84 232.77 594.84 206.9 594.84"/><rect class="cls-5" x="129.32" y="1008.63" width="25.86" height="25.86"/><polygon class="cls-5" points="0 1396.55 0 1422.43 25.87 1422.43 51.73 1422.43 51.73 1396.55 25.87 1396.55 0 1396.55"/></g><g><polygon class="cls-4" points="1474.13 1241.38 1474.13 1267.24 1474.13 1293.1 1500 1293.1 1500 1267.24 1500 1241.38 1474.13 1241.38"/><polygon class="cls-4" points="1422.41 1034.49 1396.55 1034.49 1396.55 1060.34 1422.41 1060.34 1448.27 1060.34 1448.27 1034.49 1448.27 1008.63 1422.41 1008.63 1422.41 1034.49"/><polygon class="cls-4" points="1422.41 336.2 1422.41 362.06 1448.27 362.06 1448.27 336.2 1448.27 310.35 1422.41 310.35 1422.41 336.2"/><rect class="cls-4" x="1318.96" y="775.86" width="25.86" height="25.88"/><rect class="cls-4" x="1318.96" width="25.86" height="25.85"/><rect class="cls-4" x="1163.8" y="491.39" width="25.86" height="25.86"/><rect class="cls-4" x="1137.93" y="1422.43" width="25.87" height="25.86"/><rect class="cls-4" x="1112.07" y="387.93" width="25.86" height="25.86"/><rect class="cls-4" x="1008.62" y="155.16" width="25.86" height="25.87"/><polygon class="cls-4" points="931.03 853.45 905.17 853.45 905.17 879.3 931.03 879.3 956.9 879.3 982.76 879.3 982.76 853.45 956.9 853.45 931.03 853.45"/><rect class="cls-4" x="931.03" y="724.14" width="25.87" height="25.85"/><rect class="cls-4" x="801.72" y="1163.79" width="25.86" height="25.86"/><rect class="cls-4" x="801.72" width="25.86" height="25.85"/><rect class="cls-4" x="775.87" y="491.39" width="25.86" height="25.86"/><polygon class="cls-4" points="724.13 517.25 724.13 543.1 750 543.1 775.87 543.1 775.87 517.25 750 517.25 724.13 517.25"/><rect class="cls-4" x="672.42" y="1474.14" width="25.86" height="25.86"/><rect class="cls-4" x="594.83" y="284.49" width="25.86" height="25.86"/><rect class="cls-4" x="594.83" y="155.16" width="25.86" height="25.87"/><rect class="cls-4" x="439.66" y="750" width="25.86" height="25.86"/><rect class="cls-4" x="413.79" y="1008.63" width="25.87" height="25.86"/><polygon class="cls-4" points="439.66 491.39 439.66 465.51 413.79 465.51 413.79 491.39 413.79 517.25 439.66 517.25 439.66 491.39"/><rect class="cls-4" x="362.07" y="982.75" width="25.86" height="25.88"/><polygon class="cls-4" points="258.62 1370.69 258.62 1396.55 284.48 1396.55 310.34 1396.55 310.34 1370.69 284.48 1370.69 258.62 1370.69"/><rect class="cls-4" x="155.18" y="1215.52" width="25.86" height="25.86"/><rect class="cls-4" x="129.32" y="620.7" width="25.86" height="25.85"/><polygon class="cls-4" points="129.32 232.76 129.32 258.61 155.18 258.61 181.04 258.61 181.04 232.76 155.18 232.76 129.32 232.76"/><rect class="cls-4" x="51.73" y="1267.24" width="25.86" height="25.86"/><rect class="cls-4" x="25.87" y="879.3" width="25.86" height="25.88"/><rect class="cls-4" y="853.45" width="25.87" height="25.86"/></g><g><rect class="cls-6" x="1370.69" y="1163.79" width="25.86" height="25.86"/><rect class="cls-6" x="1370.69" y="879.3" width="25.86" height="25.88"/><rect class="cls-6" x="1344.82" y="905.19" width="25.87" height="25.86"/><rect class="cls-6" x="1215.52" y="129.31" width="25.86" height="25.85"/><polygon class="cls-6" points="1008.62 1267.24 1008.62 1293.1 1034.48 1293.1 1060.35 1293.1 1060.35 1267.24 1034.48 1267.24 1008.62 1267.24"/><rect class="cls-6" x="1008.62" y="646.55" width="25.86" height="25.86"/><rect class="cls-6" x="931.03" y="25.85" width="25.87" height="25.86"/><rect class="cls-6" x="672.42" y="853.45" width="25.86" height="25.86"/><polygon class="cls-6" points="594.83 362.06 568.97 362.06 568.97 387.93 594.83 387.93 620.69 387.93 646.56 387.93 646.56 362.06 620.69 362.06 594.83 362.06"/><polygon class="cls-6" points="517.24 1189.65 517.24 1215.52 543.11 1215.52 543.11 1189.65 543.11 1163.79 517.24 1163.79 517.24 1189.65"/><polygon class="cls-6" points="413.79 1474.14 413.79 1500 439.66 1500 439.66 1474.14 439.66 1448.29 413.79 1448.29 413.79 1474.14"/><polygon class="cls-6" points="310.34 827.59 310.34 853.45 336.21 853.45 336.21 827.59 336.21 801.73 310.34 801.73 310.34 827.59"/><rect class="cls-6" x="284.48" y="853.45" width="25.86" height="25.86"/><rect class="cls-6" x="129.32" y="77.59" width="25.86" height="25.85"/><rect class="cls-6" x="103.45" y="51.71" width="25.87" height="25.88"/><rect class="cls-6" y="568.96" width="25.87" height="25.88"/></g><g><rect class="cls-3" x="1396.55" y="155.16" width="25.86" height="25.87"/><polygon class="cls-3" points="1344.82 568.96 1344.82 594.84 1370.69 594.84 1370.69 568.96 1370.69 543.1 1344.82 543.1 1344.82 568.96"/><rect class="cls-3" x="1344.82" y="206.9" width="25.87" height="25.86"/><rect class="cls-3" x="1267.24" y="853.45" width="25.86" height="25.86"/><rect class="cls-3" x="1189.66" y="1344.84" width="25.86" height="25.85"/><polygon class="cls-3" points="1189.66 956.89 1163.8 956.89 1137.93 956.89 1137.93 982.75 1163.8 982.75 1189.66 982.75 1189.66 956.89"/><rect class="cls-3" x="956.9" y="232.76" width="25.86" height="25.85"/><polygon class="cls-3" points="931.03 284.49 931.03 310.35 956.9 310.35 956.9 284.49 956.9 258.61 931.03 258.61 931.03 284.49"/><polygon class="cls-3" points="905.17 1293.1 905.17 1318.98 931.03 1318.98 931.03 1293.1 931.03 1267.24 905.17 1267.24 905.17 1293.1"/><polygon class="cls-3" points="879.31 568.96 879.31 594.84 905.17 594.84 931.03 594.84 931.03 568.96 905.17 568.96 879.31 568.96"/><rect class="cls-3" x="827.58" y="956.89" width="25.87" height="25.86"/><rect class="cls-3" x="801.72" y="982.75" width="25.86" height="25.88"/><rect class="cls-3" x="724.13" y="25.85" width="25.87" height="25.86"/><rect class="cls-3" x="646.56" y="1215.52" width="25.86" height="25.86"/><rect class="cls-3" x="620.69" y="724.14" width="25.87" height="25.85"/><rect class="cls-3" x="465.52" y="827.59" width="25.86" height="25.85"/><rect class="cls-3" x="439.66" y="879.3" width="25.86" height="25.88"/><rect class="cls-3" x="387.93" y="103.44" width="25.86" height="25.87"/><rect class="cls-3" x="310.34" y="1474.14" width="25.87" height="25.86"/><polygon class="cls-3" points="284.48 646.55 284.48 672.41 310.34 672.41 336.21 672.41 336.21 646.55 310.34 646.55 284.48 646.55"/><polygon class="cls-3" points="258.62 1112.08 258.62 1137.94 284.48 1137.94 284.48 1112.08 284.48 1086.2 258.62 1086.2 258.62 1112.08"/><rect class="cls-3" x="51.73" y="336.2" width="25.86" height="25.86"/><rect class="cls-3" width="25.87" height="25.85"/></g></g></g></g></svg>