<?xml version="1.0" encoding="UTF-8"?><svg id="Layer_1" xmlns="http://www.w3.org/2000/svg" viewBox="0 0 500 500"><defs><style>.cls-1{fill:#afa98d;}.cls-1,.cls-2,.cls-3,.cls-4,.cls-5,.cls-6,.cls-7,.cls-8,.cls-9,.cls-10,.cls-11{fill-rule:evenodd;}.cls-12{fill:#e4923d;}.cls-2{fill:#50351a;}.cls-3{fill:#725436;}.cls-4{fill:#43a87b;}.cls-13{fill:#9d752b;}.cls-14{fill:#a05b1a;}.cls-5{fill:#307858;}.cls-6{fill:#cec7a6;}.cls-15{fill:#2b1a0a;}.cls-16{fill:#f1cd85;}.cls-17{fill:#f1e0b9;}.cls-18{fill:#ea8c2e;}.cls-19{fill:#eeae5c;}.cls-20{fill:#2b1b0b;}.cls-7{fill:#bcbec0;}.cls-8{fill:#424143;}.cls-21{fill:#f3b84f;}.cls-9{fill:#252425;}.cls-22{fill:#f1d8a1;}.cls-23{fill:#96856a;}.cls-10{fill:#96989a;}.cls-24{fill:#83774a;}</style></defs><g><path class="cls-20" d="M434.2,108.96q.08-5.45-5.41-5.45c-21.68,0-43.37,0-65.05,0-.13,.12-.26,.24-.4,.35-.91,1.92-.99,3.76,.49,5.47,.78,.54,1.66,.68,2.58,.68,13.18,.03,26.35,.07,39.53-.03,.36,0,.72-.09,1.07-.12,8.18,.33,16.36,.11,24.53,.13,.82,0,1.61-.16,2.3-.65,.12-.13,.24-.27,.35-.4Z"/><path class="cls-20" d="M136.05,174.02q-5.45-.08-5.45,5.37c0,18.09,.02,36.18,.03,54.27,.11,.12,.21,.24,.32,.36,1.71,.84,3.4,.79,5.1-.06,.26-.22,.47-.48,.61-.79,.87-3.51,.39-7.06,.3-10.6,.38-9.1,.12-18.21,.15-27.32,.02-5.14,.22-10.28-.15-15.41-.03-1.84,.54-3.75-.54-5.49-.13-.11-.26-.23-.38-.34Z"/><path class="cls-20" d="M466.72,276.97q5.45,.1,5.45-5.36c-.01-18.09-.02-36.18-.03-54.27-.12-.13-.24-.26-.36-.39-4.73-1.69-6.52,.05-5.95,5.76-.23,1.86-.24,3.72,0,5.58-.28,3.56-.29,7.13,0,10.69-.24,1.88-.22,3.76,0,5.64-.28,8.86-.3,17.71,0,26.57,.01,1.83-.53,3.72,.53,5.45,.13,.11,.25,.22,.38,.34Z"/><path class="cls-20" d="M130.63,233.65q-5.45-.09-5.45,5.4c0,15.17,.08,30.35-.07,45.52-.03,2.75,.66,3.76,3.36,3.28,.7-.12,1.44-.04,2.16-.05,.13-.12,.26-.23,.39-.35,.6-.85,.68-1.84,.67-2.83-.05-4.39,.2-8.78-.15-13.16,.28-8.98,.29-17.96,0-26.94,.28-2.67,.14-5.34,.14-8.02,0-1.12-.3-2.11-1.12-2.91l.06,.06Z"/><path class="cls-15" d="M244.49,70.95c0,5.44,0,10.88-.01,16.32,.12,.13,.23,.26,.35,.39,1.87,.89,3.68,.95,5.39-.39,1.27-2.08,.64-4.4,.76-6.61,.15-2.79,.36-3.11,3.17-3.13,8.03-.05,16.06,0,24.08-.02,1.43,0,2.91,.14,4.19-.76,1.42-1.75,1.26-3.64,.49-5.58-.2-.31-.46-.55-.78-.73-.56-.32-1.17-.5-1.81-.5-10.02,0-20.03-.25-30.05,.12-1.83,.01-3.72-.53-5.45,.53-.11,.13-.22,.25-.34,.38Z"/><path class="cls-20" d="M222.79,103.53c-15.29,0-30.57,.05-45.85-.08-2.52-.02-3.35,.7-2.98,3.09,.12,.79,.04,1.62,.04,2.42,.12,.13,.24,.26,.36,.4,.68,.49,1.47,.66,2.29,.65,8.15-.03,16.31,.23,24.46-.13,6.29,.35,12.59,.19,18.88,.1,3.56-.05,4.62-2.24,3.21-6.09-.13-.12-.27-.24-.41-.36Z"/><path class="cls-20" d="M358.3,309.51q5.44,.06,5.44-5.42c0-14.46-.01-28.91-.02-43.37-.11-.13-.23-.25-.34-.38-1.83-.88-3.62-.93-5.33,.3-1.14,1.71-.82,3.59-.64,5.45-.23,1.82-.27,3.64,0,5.46-.24,1.81-.27,3.62,0,5.43-.24,1.81-.27,3.62,0,5.42-.24,1.81-.27,3.61,0,5.42-.24,1.81-.27,3.61,0,5.41-.23,1.8-.28,3.59,0,5.39-.21,1.78-.3,3.56,0,5.33-.11,1.77-.48,3.57,.5,5.24,.12,.11,.25,.21,.37,.32Z"/><path class="cls-20" d="M233.65,407.15q-5.45-.11-5.45,5.38t5.45,5.42c11.55,0,23.11-.1,34.66,.08,2.75,.04,3.76-.66,3.28-3.36-.12-.7-.03-1.44-.04-2.16-.11-.12-.22-.25-.33-.37-1.68-1.01-3.51-.59-5.3-.52-8.34-.4-16.69-.08-25.04-.18-.81,0-1.62-.06-2.42,0-2.26,.2-3.96-.26-3.97-3.02,0-.35-.25-.67-.46-.96-.12-.11-.25-.21-.38-.32Z"/><path class="cls-20" d="M472.14,217.33q5.46,.1,5.46-5.39c0-11.56-.1-23.12,.07-34.68,.04-2.74-.65-3.77-3.36-3.29-.7,.13-1.44,.03-2.16,.04-.13,.11-.25,.23-.38,.34-1.07,1.74-.51,3.64-.54,5.48-.36,11.63-.11,23.26-.13,34.88,0,1.04,.37,1.94,1.11,2.67l-.07-.06Z"/><path class="cls-20" d="M233.64,309.5c0,13.48,.06,26.96-.09,40.44-.03,2.51,.69,3.35,3.08,2.98,.79-.12,1.61-.03,2.42-.04,.13-.11,.25-.22,.38-.33,1.06-1.72,.54-3.6,.54-5.43,.28-8.82,.29-17.64,0-26.46,.1-1.82,.31-3.64-.03-5.45,.09-1.77,.39-3.55-.32-5.27-.14-.3-.34-.55-.6-.76-1.69-.82-3.38-.89-5.08-.03-.1,.12-.21,.24-.31,.36Z"/><path class="cls-20" d="M266.13,5.94q.06-5.44-5.42-5.44t-5.41,5.47c0,9.03,.01,18.05,.02,27.08,.11,.13,.23,.25,.34,.38,1.84,.89,3.63,.94,5.34-.31,1.13-1.7,.82-3.57,.63-5.42,.38-5.03,.12-10.07,.17-15.1,.05-4.69,.01-4.69,4.02-6.28,.1-.12,.2-.25,.3-.37Z"/><path class="cls-20" d="M385.45,260.76q-5.45-.1-5.45,5.4c0,8.04,.11,16.08-.06,24.11-.05,2.49,.64,3.4,3.08,3.01,.79-.13,1.62-.04,2.43-.05,.12-.11,.25-.22,.37-.33,1.04-1.71,.54-3.57,.53-5.39,.28-7,.29-14,0-20.99,0-1.82,.52-3.7-.53-5.42-.13-.11-.25-.22-.38-.33Z"/><path class="cls-20" d="M141.47,141.49q-5.45-.08-5.45,5.34c0,9.06,.02,18.13,.02,27.19l-.05-.05c1.83,1.49,3.71,1.45,5.65,.22,.62-.72,.87-1.58,.87-2.5-.02-8.12,.24-16.25-.12-24.37-.03-1.84,.53-3.74-.54-5.48-.13-.11-.26-.22-.38-.34Z"/><path class="cls-20" d="M347.47,396.27q5.43,.01,5.42-5.45c0-9.03-.01-18.06-.02-27.09-.12-.13-.24-.27-.36-.4-4.13-1.52-6.13-.27-6.12,4,.01,7.71-.24,15.43,.14,23.13,.01,1.84-.54,3.75,.55,5.49,.13,.11,.26,.22,.39,.33Z"/><path class="cls-20" d="M320.39,412.51q-.08,5.45,5.4,5.45c8.04,0,16.07-.11,24.11,.06,2.48,.05,3.41-.63,3.01-3.08-.13-.79-.04-1.62-.04-2.43-.11-.12-.22-.25-.33-.37-1.71-1.04-3.58-.55-5.39-.53-7-.28-14-.29-21,0-1.82,0-3.7-.52-5.42,.53-.11,.13-.22,.25-.33,.38Z"/><path class="cls-20" d="M206.48,282.39q5.45,.1,5.45-5.4c0-8.04-.11-16.08,.06-24.11,.05-2.49-.64-3.4-3.08-3.01-.79,.13-1.62,.04-2.43,.05-.12,.11-.25,.22-.37,.33-1.04,1.71-.54,3.57-.53,5.39-.28,7-.29,14,0,20.99,0,1.82-.52,3.7,.53,5.42,.13,.11,.25,.22,.38,.33Z"/><path class="cls-20" d="M239.06,352.88c0,9.84,.07,19.69-.08,29.53-.04,2.43,.55,3.46,3.05,3.04,.79-.13,1.62-.02,2.44-.02,.13-.11,.25-.22,.38-.33,1.07-1.72,.56-3.6,.55-5.43,.28-7.09,.29-14.17,0-21.26,.1-1.95,.59-3.95-.75-5.72-1.93-1.21-3.81-1.26-5.63,.23l.04-.04Z"/><path class="cls-20" d="M174.01,347.45q-.1,5.45,5.4,5.45c8.04,0,16.08-.11,24.11,.07,2.5,.05,3.4-.65,3.01-3.08-.13-.79-.04-1.62-.05-2.43-.12-.13-.23-.26-.35-.39-1.11-.77-2.39-.69-3.64-.67-4.04,.07-8.08-.22-12.11,.17-1.82-.19-3.64-.29-5.46,.01-1.78-.2-3.57-.3-5.35,0-1.77-.11-3.57-.48-5.24,.5-.11,.12-.21,.25-.32,.37Z"/><path class="cls-20" d="M390.88,347.44q-.11,5.45,5.39,5.45c8.04,0,16.08-.11,24.11,.06,2.49,.05,3.4-.64,3.01-3.08-.13-.79-.04-1.62-.05-2.43-.11-.12-.22-.24-.32-.36-1.66-.97-3.44-.61-5.21-.5-1.78-.3-3.56-.24-5.34-.01-1.82-.28-3.64-.23-5.47-.01-4.49-.37-8.99-.12-13.49-.15-.82,0-1.61,.16-2.3,.64-.12,.13-.23,.26-.34,.39Z"/><path class="cls-20" d="M228.22,282.39c0,8.07,.1,16.14-.1,24.2-.06,2.56,.75,3.3,3.1,2.95,.79-.12,1.61-.03,2.42-.04l-.05,.05c1.5-1.58,1.13-3.48,.94-5.36,.22-1.82,.28-3.65,0-5.47,.23-1.8,.28-3.59,0-5.39,.21-1.77,.3-3.54,0-5.3,.12-1.75,.38-3.52-.31-5.22-.14-.3-.34-.55-.6-.75-1.69-.82-3.38-.89-5.08-.03-.1,.12-.21,.24-.31,.36Z"/><path class="cls-20" d="M472.15,174.02c0-8.07-.1-16.14,.09-24.2,.06-2.55-.75-3.3-3.1-2.95-.79,.12-1.61,.03-2.42,.04-.12,.11-.25,.22-.37,.33-1.03,1.7-.56,3.55-.53,5.36-.27,5.22-.3,10.44,0,15.66-.06,1.83-.43,3.69,.39,5.47,.17,.31,.4,.55,.69,.75,1.85,.77,3.65,.92,5.29-.5l-.05,.05Z"/><path class="cls-20" d="M217.32,336.6c3.07,.01,6.14-.03,9.21,.06,1.28,.04,1.71-.33,1.7-1.66-.06-6.14-.06-12.28,0-18.42,.01-1.31-.39-1.76-1.68-1.66-1.26,.1-2.53,.04-3.79,.05-.12,.11-.24,.21-.36,.32-.96,1.65-.63,3.42-.5,5.17-.26,1.7-.3,3.4,0,5.09,.02,.44-.14,.89-.1,1.32,.2,2.24-.54,3.58-3.05,3.48-.61-.02-1.2,.3-1.66,.77-.97,1.69-1.02,3.41-.13,5.15,.12,.11,.25,.22,.37,.33Z"/><path class="cls-20" d="M374.61,314.98q-5.45-.11-5.45,5.39c0,4.79,.06,9.57-.04,14.36-.03,1.56,.46,2,1.97,1.94,2.98-.12,5.96-.05,8.94-.07,.12-.11,.24-.22,.37-.33,.89-1.72,.84-3.43-.09-5.12-.25-.26-.53-.48-.88-.59q-3.67-1.23-3.95-5.06c.11-3.41,.76-6.85-.49-10.19-.12-.11-.25-.22-.38-.33Z"/><path class="cls-20" d="M466.73,146.91c0-6.26-.13-12.53,.09-18.79,.09-2.57-.78-3.28-3.1-2.94-.79,.11-1.61,.03-2.41,.04-.12,.11-.25,.22-.38,.33-1.04,1.72-.54,3.59-.53,5.42-.36,4.53-.13,9.07-.13,13.61,0,.9,.25,1.76,.86,2.48,1.93,1.25,3.82,1.29,5.65-.21l-.05,.05Z"/><path class="cls-20" d="M461.3,298.65q5.45,.1,5.45-5.3c0-5.46-.02-10.92-.03-16.38l.06,.06c-1.81-1.5-3.69-1.44-5.62-.26-.63,.7-.89,1.56-.89,2.46,0,4.55-.24,9.1,.12,13.64,0,1.83-.53,3.71,.53,5.44,.13,.11,.25,.22,.38,.33Z"/><path class="cls-20" d="M320.35,33.05c0-6.26-.13-12.53,.09-18.78,.09-2.57-.78-3.27-3.1-2.94-.79,.11-1.61,.03-2.41,.04-.13,.12-.26,.24-.39,.35-1.11,7.08-1.15,14.16,.03,21.24,1.7,1.45,3.53,1.37,5.44,.48,.12-.13,.24-.26,.35-.4Z"/><path class="cls-20" d="M331.2,70.99c0-6.23-.12-12.46,.07-18.69,.08-2.47-.61-3.42-3.07-3.02-.79,.13-1.62,.03-2.43,.04-.12,.11-.24,.21-.37,.32-.99,1.67-.61,3.47-.51,5.24-.32,1.8-.2,3.61-.02,5.41-.05,3.57-.82,7.17,.56,10.67,1.71,1.4,3.54,1.34,5.43,.42,.12-.13,.23-.27,.35-.4Z"/><path class="cls-20" d="M358.3,342.03q5.44,.06,5.44-5.41c0-4.51-.14-9.03,.06-13.53,.1-2.28-.54-3.11-2.8-2.75-.88,.14-1.8,.04-2.7,.04-.12,.11-.25,.22-.37,.33-1.01,1.68-.59,3.51-.52,5.3-.28,3.46-.3,6.91,0,10.37-.06,1.8-.5,3.63,.52,5.32,.12,.11,.25,.22,.38,.32Z"/><path class="cls-20" d="M352.87,363.72q5.44,.06,5.44-5.42c0-5.42-.01-10.84-.02-16.26l.04,.04c-1.81-1.48-3.69-1.43-5.62-.24-1.65,2.45-.67,5.21-.92,7.83-.1,1.07,.02,2.14,.15,3.21-.29,2.66-.14,5.32-.14,7.98,0,1.11,.29,2.1,1.11,2.9l-.04-.04Z"/><path class="cls-20" d="M222.79,260.71c0,6.26,.13,12.53-.09,18.79-.09,2.58,.78,3.27,3.11,2.94,.79-.11,1.61-.03,2.41-.04l-.05,.05c1.5-1.58,1.13-3.48,.94-5.36,.22-1.83,.28-3.65,0-5.48,.24-1.82,.26-3.64,0-5.46,.17-1.86,.5-3.74-.6-5.46-1.71-1.3-3.51-1.25-5.37-.36-.12,.13-.23,.26-.34,.39Z"/><path class="cls-20" d="M244.48,49.32q-5.44-.06-5.44,5.42c0,4.51,.14,9.03-.06,13.54-.1,2.3,.58,3.09,2.81,2.74,.88-.14,1.8-.04,2.7-.05l-.05,.05c1.53-1.6,1.1-3.54,.94-5.43,.26-3.52,.3-7.05,0-10.58,.04-1.81,.5-3.66-.53-5.36-.13-.11-.25-.22-.38-.33Z"/><path class="cls-20" d="M195.64,228.18h10.89c.12-.1,.23-.2,.35-.3,.85-1.61,.74-3.24,.12-4.89-.15-.26-.35-.47-.59-.64-.31-.18-.64-.37-1-.37-2.15-.03-3.65-.69-3.52-3.24,.03-.62-.32-1.21-.82-1.65-1.66-.98-3.37-.92-5.11-.27-.3,.15-.54,.37-.74,.64-.85,1.69-.66,3.47-.45,5.25-.14,1.75-.47,3.51,.49,5.16,.12,.11,.24,.21,.37,.31Z"/><path class="cls-20" d="M282.39,352.88q5.44,.06,5.44-5.42c0-3.61-.01-7.23-.02-10.84-.12-.13-.23-.26-.35-.38-1.86-.89-3.66-.95-5.37,.37-1.45,3.45-.64,7.04-.61,10.58-.03,1.81-.51,3.67,.53,5.37,.13,.11,.25,.22,.38,.33Z"/><path class="cls-20" d="M217.37,244.45c0,4.52,.12,9.04-.08,13.55-.1,2.27,.53,3.12,2.79,2.76,.88-.14,1.8-.04,2.71-.04l-.04,.04c1.55-1.61,1.09-3.57,.95-5.47,.04-3.6,.82-7.24-.55-10.78-1.7-1.42-3.53-1.35-5.42-.45-.12,.13-.23,.26-.35,.39Z"/><path class="cls-20" d="M293.28,16.79c-5.44,0-10.87,0-16.31,0-.13,.12-.26,.24-.39,.35-.89,1.89-.97,3.71,.44,5.42,.84,.6,1.81,.71,2.81,.72,3.49,.03,6.98,.03,10.47,0,1,0,1.97-.12,2.82-.7,1.5-1.68,1.44-3.51,.55-5.43-.13-.12-.26-.24-.39-.35Z"/><path class="cls-20" d="M325.77,49.32c0-4.52-.12-9.04,.08-13.55,.1-2.27-.52-3.13-2.79-2.76-.88,.14-1.8,.03-2.71,.04l.04-.04c-1.56,1.62-1.07,3.6-.95,5.51,.04,3.66-1,7.4,.73,10.96,1.93,1.24,3.82,1.28,5.64-.21l-.04,.04Z"/><path class="cls-20" d="M390.88,244.5q-5.45-.1-5.45,5.28c0,3.66,.02,7.32,.03,10.98l-.06-.06c1.79,1.49,3.66,1.42,5.58,.29,1.84-3.47,.76-7.15,.8-10.75,.01-1.82,.52-3.69-.52-5.41-.12-.11-.25-.22-.38-.33Z"/><path class="cls-20" d="M206.47,347.44c3.13,.01,6.25-.02,9.38,.05,1.17,.03,1.55-.35,1.52-1.52-.08-3.12-.04-6.25-.05-9.38l.06,.07c-1.66-1.45-3.46-1.34-5.32-.48-.82,3.15-2.66,5.29-5.97,5.95-.91,1.88-1.01,3.69,.45,5.37l-.07-.06Z"/><path class="cls-20" d="M146.89,125.22q-5.45-.08-5.45,5.28c0,3.66,.02,7.32,.02,10.98l-.05-.05c1.79,1.49,3.66,1.42,5.58,.28,1.83-3.47,.76-7.15,.8-10.75,.01-1.82,.52-3.69-.53-5.41-.13-.11-.25-.22-.38-.33Z"/><path class="cls-20" d="M380.04,336.6c-.01,3.13,.02,6.25-.05,9.38-.03,1.17,.35,1.55,1.52,1.52,3.12-.08,6.25-.04,9.38-.05l-.07,.06c1.45-1.66,1.34-3.46,.48-5.32-3.15-.82-5.29-2.66-5.95-5.97-1.88-.91-3.69-1.01-5.37,.45l.06-.07Z"/><path class="cls-20" d="M374.56,239.03q5.44,.07,5.44-5.29c0-3.66-.02-7.32-.03-10.98-.12-.13-.23-.25-.35-.38-1.86-.88-3.65-.92-5.33,.42-1.5,3.43-.66,7.01-.64,10.54-.04,1.81-.5,3.66,.53,5.36,.13,.11,.25,.22,.38,.33Z"/><path class="cls-20" d="M174,108.96c-4.64,0-9.29,.06-13.92-.07-1.78-.05-2.68,.29-2.39,2.28,.15,1.05,.04,2.14,.05,3.21,.11,.12,.22,.25,.33,.37,1.71,1.03,3.56,.55,5.38,.53,3.6-.03,7.27,1,10.75-.76,1.2-1.93,1.25-3.81-.24-5.62l.05,.05Z"/><path class="cls-20" d="M450.46,114.38q.08-5.45-5.29-5.44c-3.66,0-7.32,.02-10.98,.02l.05-.05c-1.49,1.79-1.42,3.66-.28,5.58,3.47,1.83,7.15,.76,10.75,.8,1.82,.01,3.69,.52,5.41-.53,.11-.13,.22-.25,.33-.38Z"/><path class="cls-20" d="M276.99,369.16q5.43,.01,5.42-5.45c0-3.61-.01-7.22-.02-10.83l.04,.04c-1.63-1.4-3.41-1.24-5.25-.52-.3,.18-.53,.42-.72,.72-1.02,3.44-.54,6.93-.38,10.42-.08,1.79-.5,3.62,.52,5.31,.13,.11,.25,.21,.38,.32Z"/><path class="cls-20" d="M239.06,98.11c-4.52,0-9.04,.12-13.55-.08-2.27-.1-3.12,.52-2.76,2.79,.14,.88,.03,1.8,.04,2.71l-.04-.04c1.58,1.49,3.49,1.12,5.36,.93,1.83,.23,3.67,.27,5.5,0,1.86,.17,3.75,.51,5.47-.6,1.3-1.71,1.25-3.51,.36-5.37-.13-.12-.26-.23-.39-.34Z"/><path class="cls-20" d="M314.96,363.72c0,4.51,.12,9.03-.08,13.54-.1,2.24,.49,3.14,2.78,2.77,.88-.14,1.8-.03,2.7-.03,.12-.11,.25-.21,.37-.32,1-1.66,.64-3.46,.52-5.23,.2-3.41,.54-6.82-.23-10.2-.14-.31-.33-.57-.58-.8-1.7-.92-3.43-.97-5.17-.1-.11,.12-.21,.25-.32,.37Z"/><path class="cls-20" d="M271.56,385.42q5.43,.01,5.42-5.44c0-3.61,0-7.22,0-10.83h0c-1.8-1.46-3.66-1.38-5.57-.24-1.81,3.47-.75,7.15-.79,10.76-.02,1.83-.52,3.7,.54,5.42,.13,.11,.26,.22,.39,.33Z"/><path class="cls-20" d="M271.54,401.72c0-5.43,.02-10.86,.02-16.29h0c-1.83-1.46-3.71-1.41-5.63-.19-.49,.56-.79,1.23-.81,1.95-.14,4.3-.18,8.59,.02,12.89,.03,.54,.26,1.04,.56,1.5,1.69,1.51,3.54,1.43,5.47,.54,.12-.13,.24-.26,.36-.4Z"/><path class="cls-20" d="M206.48,249.92c0-2.85-.09-5.7,.07-8.54,.1-1.82-.34-2.64-2.29-2.36-1.05,.15-2.13,.05-3.2,.06-.12,.11-.24,.22-.37,.33-1,1.69-.58,3.51-.51,5.3-.2,1.89-.53,3.8,.81,5.46,1.92,1.1,3.78,1.19,5.55-.31l-.06,.06Z"/><path class="cls-20" d="M146.9,314.92c-.01,2.85,.09,5.7-.07,8.54-.1,1.82,.35,2.64,2.3,2.36,1.05-.15,2.13-.05,3.2-.06,.13-.12,.25-.23,.38-.34,1.04-3.51,1.14-7.01-.1-10.5-1.7-1.31-3.5-1.26-5.36-.38-.12,.13-.23,.26-.35,.39Z"/><path class="cls-20" d="M439.61,331.18q5.45,.11,5.45-5.23c0-1.87-.02-3.74-.03-5.6-.12-.13-.23-.25-.35-.38-1.84-.87-3.63-.93-5.34,.33-1.28,3.5-1.16,7.01-.13,10.54,.13,.12,.26,.23,.39,.34Z"/><path class="cls-20" d="M369.14,249.87q5.44,.06,5.44-5.42c0-1.81-.01-3.61-.02-5.42l.04,.04c-1.75-1.48-3.6-1.38-5.51-.33-1.38,1.65-1.05,3.56-.86,5.46-.05,1.8-.5,3.64,.52,5.34,.12,.11,.25,.22,.38,.32Z"/><path class="cls-20" d="M298.71,342.03c-.01,2.84,.09,5.69-.07,8.53-.1,1.8,.32,2.65,2.28,2.37,1.05-.15,2.13-.04,3.2-.05,.12-.11,.25-.22,.37-.33,1.01-1.69,.58-3.53,.52-5.33,.07-.44,.15-.88,.16-1.33,.09-4.42-1.85-5.77-6.12-4.26-.12,.13-.23,.26-.35,.39Z"/><path class="cls-20" d="M211.95,233.6c0,2.84,.09,5.69-.07,8.53-.1,1.81,.33,2.64,2.29,2.36,1.05-.15,2.13-.04,3.2-.04l-.04,.04c1.51-1.59,1.11-3.51,.94-5.39,.15-1.87,.52-3.77-.6-5.51-1.7-1.31-3.51-1.26-5.37-.38-.12,.13-.23,.26-.34,.39Z"/><path class="cls-20" d="M130.63,287.81c0,2.85,.09,5.7-.07,8.54-.1,1.82,.34,2.64,2.29,2.36,1.05-.15,2.13-.05,3.2-.06,.12-.11,.24-.22,.37-.33,1-1.69,.58-3.51,.51-5.3,.2-1.89,.53-3.8-.81-5.46-1.92-1.1-3.78-1.19-5.55,.31l.06-.06Z"/><path class="cls-20" d="M363.74,103.52q.01-5.42-5.44-5.42c-1.8,0-3.61,.01-5.41,.02-.13,.12-.26,.24-.4,.36-1.72,4.74,.02,6.53,5.79,5.97,1.9,.13,3.86,.61,5.47-.93h0Z"/><path class="cls-20" d="M379.97,222.75q5.45,.09,5.45-5.24c0-1.87-.02-3.73-.02-5.6-.1-.12-.21-.23-.31-.35-1.66-.84-3.32-.76-5-.04-.27,.19-.49,.43-.64,.72-.76,1.73-.48,3.53-.35,5.32-.21,1.85-.53,3.71,.94,5.26l-.06-.06Z"/><path class="cls-20" d="M320.37,380c0,2.79,.14,5.6-.05,8.38-.14,2.02,.45,2.8,2.5,2.49,.97-.15,1.98-.03,2.97-.03,.12-.11,.25-.21,.38-.32,1.02-1.69,.6-3.52,.53-5.32,.2-1.89,.53-3.8-.79-5.47-1.91-1.11-3.76-1.2-5.54,.27h0Z"/><path class="cls-20" d="M363.72,260.71q5.44,.06,5.44-5.42c0-1.81-.01-3.61-.02-5.42l.04,.04c-1.78-1.48-3.64-1.4-5.56-.29-1.39,1.72-.96,3.7-.81,5.64-.13,1.91-.61,3.87,.95,5.49l-.04-.04Z"/><path class="cls-20" d="M244.46,385.42l.02,10.87c.11,.12,.21,.24,.32,.36,1.71,.85,3.41,.79,5.11-.06,.27-.22,.47-.49,.62-.8,.5-3.57,1.15-7.15-.51-10.62-1.91-1.13-3.77-1.22-5.56,.25h0Z"/><path class="cls-20" d="M244.48,87.27q-5.44-.06-5.44,5.42c0,1.81,.01,3.61,.02,5.42l-.04-.04c1.59,1.39,3.36,1.21,5.17,.56,.3-.17,.54-.4,.74-.68,.87-1.75,.58-3.59,.44-5.42,.2-1.86,.55-3.74-.93-5.3l.04,.04Z"/><path class="cls-20" d="M325.79,390.84c0,3.62,.02,7.25,.02,10.87,.11,.12,.21,.24,.32,.36,1.71,.85,3.41,.79,5.11-.06,.27-.22,.47-.49,.62-.8,.5-3.57,1.15-7.15-.51-10.62-1.91-1.13-3.77-1.22-5.56,.25h0Z"/><path class="cls-20" d="M455.88,309.49q5.45,.1,5.45-5.24c0-1.87-.02-3.74-.03-5.6l.06,.06c-1.75-1.49-3.6-1.39-5.51-.34-1.39,1.65-1.06,3.56-.86,5.46-.05,1.8-.5,3.64,.52,5.34,.12,.11,.25,.22,.37,.33Z"/><path class="cls-20" d="M396.3,233.66q-5.45-.1-5.45,5.24c0,1.87,.02,3.74,.03,5.6l-.06-.06c1.75,1.49,3.6,1.39,5.51,.34,1.39-1.65,1.06-3.56,.86-5.46,.05-1.8,.5-3.64-.52-5.34-.12-.11-.25-.22-.37-.33Z"/><path class="cls-20" d="M271.54,412.51q5.45,.08,5.45-5.4t-5.45-5.4l.05-.05c-1.79,3.63-1.79,7.26,0,10.9l-.05-.05Z"/><path class="cls-20" d="M136.05,298.65c0,2.85,.09,5.7-.07,8.54-.1,1.82,.34,2.64,2.29,2.36,1.05-.15,2.13-.05,3.2-.06,.12-.11,.24-.22,.37-.33,1-1.69,.58-3.51,.51-5.3,.2-1.89,.53-3.8-.81-5.46-1.92-1.1-3.78-1.19-5.55,.31l.06-.06Z"/><path class="cls-20" d="M336.61,81.84c0-2.8-.12-5.6,.06-8.39,.14-2.02-.44-2.81-2.5-2.5-.97,.15-1.98,.03-2.97,.03h0c-1.53,1.61-1.06,3.55-.93,5.45-.03,.54-.15,1.06-.16,1.6-.1,4.38,1.89,5.75,6.13,4.21,.12-.13,.24-.27,.35-.4Z"/><path class="cls-20" d="M380.03,304.13q-5.45-.08-5.44,5.25c0,1.87,.02,3.74,.03,5.6l-.06-.07c1.51,1.38,3.3,1.5,4.93,.55,2.16-1.27,1.63-3.5,1.46-5.52-.02-1.84,.53-3.73-.53-5.47-.13-.11-.25-.22-.38-.33Z"/><path class="cls-20" d="M385.4,211.92h5.48c.12-.11,.24-.22,.36-.33,.97-1.67,.61-3.46,.5-5.23,.22-1.83,.47-3.66-.61-5.34-1.69-1.29-3.51-1.14-5.37-.48-.31,.16-.57,.38-.77,.66-.92,1.75-.61,3.61-.47,5.46-.2,1.86-.55,3.75,.93,5.31l-.05-.05Z"/><path class="cls-20" d="M222.75,314.97c0-2.84-.09-5.7,.06-8.53,.1-1.81-.34-2.64-2.29-2.36-1.05,.15-2.13,.04-3.2,.05-.12,.11-.24,.22-.37,.33-1,1.69-.58,3.51-.52,5.3-.2,1.89-.53,3.8,.81,5.46,1.92,1.1,3.78,1.19,5.55-.3l-.05,.05Z"/><path class="cls-20" d="M358.3,320.39c0-3.63,0-7.26,0-10.88l.04,.04c-1.58-1.38-3.33-1.21-5.14-.58-.3,.16-.54,.37-.74,.65-.85,1.69-.65,3.48-.45,5.26-.17,1.78-.4,3.56,.38,5.28,.18,.29,.41,.53,.7,.71,1.84,.72,3.62,.89,5.24-.53l-.04,.04Z"/><path class="cls-20" d="M206.48,293.29c0-3.63,0-7.27,0-10.9l.06,.06c-1.8-1.49-3.68-1.43-5.61-.26-1.55,3.61-1.27,7.27-.23,10.94,1.67,1.5,3.51,1.44,5.43,.55,.12-.13,.24-.26,.35-.39Z"/><path class="cls-20" d="M255.32,33.05q-5.44-.06-5.44,5.25c0,1.87,.02,3.73,.02,5.6,.12,.13,.24,.26,.36,.39,4.75,1.7,6.52-.02,5.96-5.81,.13-1.9,.61-3.86-.94-5.47l.04,.04Z"/><path class="cls-20" d="M401.72,228.24q-5.52-.11-5.42,5.42l-.06-.06c1.72,1.47,3.54,1.37,5.43,.39,1.38-1.7,1.32-3.51,.44-5.4-.13-.12-.26-.23-.39-.35Z"/><path class="cls-20" d="M206.53,228.18q-.08,5.5,5.42,5.42l-.05,.05c1.48-1.81,1.42-3.68,.18-5.58-1.91-1.27-3.78-1.33-5.61,.16l.05-.05Z"/><path class="cls-20" d="M195.63,233.66c0-1.83,0-3.65,.01-5.48l.05,.05c-1.8-1.48-3.68-1.42-5.6-.26-1.28,1.89-1.45,3.98,.02,5.64,1.36,1.54,3.33,1.36,5.15,.45,.13-.13,.25-.27,.37-.41Z"/><path class="cls-20" d="M201.06,239.08q.09-5.53-5.43-5.42l.07-.06c-1.49,1.82-1.44,3.7-.24,5.64,1.93,1.25,3.83,1.28,5.66-.21l-.06,.06Z"/><path class="cls-20" d="M309.49,5.95c0-.9-.09-1.82,.05-2.7,.36-2.23-.46-2.84-2.73-2.84s-3.09,.61-2.73,2.84c.14,.88,.04,1.8,.05,2.7,.1,.11,.2,.23,.29,.34,1.59,.81,3.19,.81,4.78,0,.1-.11,.19-.23,.29-.35Z"/><path class="cls-20" d="M314.92,11.37q.08-5.5-5.42-5.42l.05-.05c-1.48,1.81-1.42,3.68-.18,5.58,1.91,1.27,3.78,1.33,5.61-.16l-.05,.05Z"/><path class="cls-20" d="M304.13,5.95q-5.51-.08-5.42,5.42c.12,.13,.23,.25,.35,.38,1.86,.88,3.66,.93,5.34-.43,1.04-1.87,1.15-3.7-.32-5.42l.05,.05Z"/><path class="cls-20" d="M271.55,11.37q.06-5.48-5.42-5.42l.04-.04c-1.46,1.76-1.6,3.76-.18,5.4,1.38,1.59,3.36,1.4,5.2,.47,.12-.13,.24-.27,.37-.41Z"/><path class="cls-20" d="M298.7,11.37q-5.5-.08-5.42,5.42l-.05-.05c1.81,1.48,3.68,1.42,5.58,.18,1.27-1.91,1.33-3.78-.16-5.61l.05,.05Z"/><path class="cls-20" d="M276.97,16.79q.06-5.48-5.42-5.42l.04-.04c-1.37,2.21-1.47,4.55-.02,5.63,1.78,1.32,3.68,1.27,5.44-.2l-.04,.04Z"/><path class="cls-20" d="M385.45,293.23c0,1.83,0,3.65,0,5.48,.11,.12,.22,.25,.33,.37,1.78,.88,3.53,.89,5.25-.2,1.16-1.71,1.02-3.51,.36-5.35-.17-.31-.41-.55-.7-.75-1.85-.76-3.65-.92-5.29,.51l.06-.06Z"/><path class="cls-20" d="M211.89,298.72q.11-5.51-5.41-5.43l.05-.05c-1.46,1.71-1.35,3.52-.35,5.4,1.68,1.39,3.48,1.34,5.36,.47,.12-.13,.23-.26,.35-.39Z"/><path class="cls-20" d="M249.91,43.9q-5.49-.08-5.43,5.42l-.04-.04c1.82,1.48,3.7,1.43,5.63,.22,1.23-1.93,1.28-3.82-.21-5.65l.05,.05Z"/><path class="cls-20" d="M385.45,298.71q-5.5-.08-5.42,5.42l-.05-.05c1.6,1.4,3.37,1.23,5.2,.55,.3-.17,.54-.41,.73-.7,.75-1.85,.91-3.64-.51-5.28l.05,.05Z"/><path class="cls-20" d="M217.33,304.13q.08-5.52-5.43-5.42l.07-.06c-1.49,1.82-1.44,3.7-.24,5.64,1.93,1.25,3.82,1.28,5.66-.21l-.05,.05Z"/><path class="cls-20" d="M342.03,87.27q.06-5.48-5.42-5.42l.04-.04c-1.46,1.76-1.6,3.76-.18,5.4,1.38,1.59,3.36,1.4,5.2,.47,.12-.13,.24-.27,.37-.41Z"/><path class="cls-20" d="M347.45,92.69q.06-5.48-5.42-5.42l.04-.04c-1.46,1.76-1.6,3.76-.18,5.4,1.38,1.59,3.36,1.4,5.2,.47,.12-.13,.24-.27,.37-.41Z"/><path class="cls-20" d="M450.46,314.92q5.52,.1,5.42-5.42l.06,.06c-1.75-1.47-3.75-1.61-5.4-.2-1.6,1.37-1.4,3.35-.49,5.19,.13,.12,.27,.25,.41,.37Z"/><path class="cls-20" d="M352.88,98.11q.06-5.48-5.42-5.42l.04-.04c-1.37,2.21-1.47,4.55-.02,5.63,1.78,1.32,3.68,1.27,5.44-.21l-.04,.04Z"/><path class="cls-20" d="M141.47,309.5q-.09,5.52,5.42,5.42l-.06,.06c1.41-1.6,1.23-3.38,.56-5.2-.17-.3-.41-.54-.7-.74-1.85-.75-3.64-.91-5.28,.52l.06-.06Z"/><path class="cls-20" d="M445.03,320.34q5.52,.09,5.42-5.42l.06,.06c-2.22-1.38-4.56-1.49-5.64-.03-1.33,1.79-1.27,3.69,.21,5.45l-.06-.06Z"/><path class="cls-20" d="M455.87,119.81q.11-5.51-5.41-5.43l.05-.05c-1.46,1.72-1.36,3.54-.38,5.43,1.7,1.38,3.51,1.31,5.39,.44,.12-.13,.23-.26,.35-.39Z"/><path class="cls-20" d="M157.74,114.38q-5.53-.08-5.41,5.43c.12,.13,.23,.25,.35,.38,1.87,.87,3.67,.94,5.38-.4,1.01-1.89,1.11-3.73-.37-5.46l.05,.05Z"/><path class="cls-20" d="M461.31,125.22q.08-5.52-5.43-5.42l.07-.06c-1.49,1.82-1.44,3.7-.24,5.64,1.93,1.25,3.82,1.28,5.66-.21l-.05,.05Z"/><path class="cls-20" d="M152.32,325.76q-.11,5.54,5.42,5.42c.13-.12,.26-.25,.4-.37,.91-1.84,1.12-3.81-.49-5.19-1.65-1.41-3.65-1.27-5.4,.2l.06-.07Z"/><path class="cls-20" d="M434.19,336.6q5.53,.11,5.42-5.42l.06,.07c-1.75-1.47-3.75-1.61-5.4-.2-1.6,1.37-1.41,3.35-.49,5.19,.13,.12,.27,.25,.4,.37Z"/><path class="cls-20" d="M287.81,336.61c1.82,0,3.65,0,5.47-.01,.13-.13,.27-.25,.4-.37,.92-1.85,1.12-3.84-.52-5.21-1.65-1.39-3.69-1.2-5.54,0-1.22,1.93-1.26,3.81,.22,5.63l-.04-.04Z"/><path class="cls-20" d="M428.77,342.02q5.53,.11,5.42-5.42l.06,.07c-1.75-1.47-3.75-1.61-5.4-.2-1.6,1.37-1.41,3.35-.49,5.19,.13,.12,.27,.25,.4,.37Z"/><path class="cls-20" d="M293.28,336.6q-.09,5.52,5.42,5.42l-.06,.06c1.38-2.22,1.49-4.56,.03-5.64-1.79-1.33-3.69-1.27-5.45,.21l.06-.06Z"/><path class="cls-20" d="M152.32,119.81q-5.51-.1-5.43,5.42l-.05-.05c1.82,1.48,3.7,1.44,5.63,.23,1.24-1.93,1.28-3.83-.22-5.66l.07,.06Z"/><path class="cls-20" d="M163.17,336.6q-.11,5.53,5.42,5.42c.13-.12,.25-.23,.38-.35,.89-1.83,1.1-3.77-.44-5.2-1.42-1.31-3.29-1.15-5.01-.26-.12,.13-.23,.26-.35,.39Z"/><path class="cls-20" d="M423.35,347.45q5.53,.09,5.42-5.43l.06,.07c-1.82-1.49-3.7-1.44-5.64-.24-1.25,1.93-1.28,3.83,.21,5.66l-.06-.06Z"/><path class="cls-20" d="M168.59,342.02q-.1,5.52,5.42,5.43l-.06,.06c1.49-1.82,1.45-3.7,.23-5.64-1.93-1.24-3.83-1.28-5.66,.22l.06-.07Z"/><path class="cls-20" d="M304.12,352.88q-.06,5.51,5.43,5.41c.13-.12,.25-.23,.38-.35,.88-1.87,.94-3.67-.4-5.38-1.89-1.01-3.73-1.11-5.46,.36l.04-.04Z"/><path class="cls-20" d="M309.55,358.29q-.09,5.5,5.41,5.43l-.04,.04c1.48-1.82,1.44-3.7,.22-5.63-1.93-1.24-3.82-1.28-5.65,.22l.06-.06Z"/><path class="cls-20" d="M157.74,331.18q-.11,5.53,5.42,5.42l-.07,.06c1.35-2.15,1.41-4.31,.15-5.57s-3.43-1.2-5.57,.15l.06-.07Z"/><path class="cls-20" d="M347.45,401.72c0-1.82,.02-3.63,.02-5.45h0c-1.7-1.43-3.51-1.31-5.39-.37-1.43,1.62-1.2,3.45-.68,5.32,.14,.31,.34,.57,.59,.8,1.69,.88,3.4,.94,5.13,.08,.11-.12,.21-.24,.32-.37Z"/><path class="cls-20" d="M244.49,396.29q-5.51-.08-5.42,5.42c.1,.12,.21,.23,.31,.35,1.67,.84,3.34,.77,5.02,.03,.27-.19,.48-.44,.64-.73,.64-1.8,.8-3.55-.59-5.12l.05,.05Z"/><path class="cls-20" d="M390.88,211.91q-.09,5.53,5.42,5.42c.13-.12,.25-.23,.38-.35,.87-1.87,.94-3.67-.41-5.38-1.9-1.01-3.73-1.11-5.46,.37l.06-.06Z"/><path class="cls-20" d="M352.87,407.14q.09-5.5-5.42-5.42l.05-.05c-1.37,1.54-1.19,3.26-.62,5.04,.14,.3,.34,.55,.6,.76,1.69,.82,3.38,.9,5.08,.04,.1-.12,.21-.24,.31-.36Z"/><path class="cls-20" d="M325.81,401.72q-5.51-.08-5.42,5.42c.1,.12,.21,.23,.31,.35,1.67,.84,3.34,.77,5.02,.03,.27-.19,.48-.44,.64-.73,.64-1.8,.8-3.55-.59-5.12l.05,.05Z"/><path class="cls-20" d="M239.06,401.72q-5.52-.08-5.42,5.43l-.06-.07c1.82,1.49,3.7,1.44,5.64,.24,1.25-1.93,1.28-3.82-.21-5.66l.05,.05Z"/><path class="cls-20" d="M396.3,217.33q-.1,5.52,5.41,5.43c.13-.12,.25-.23,.38-.35,.88-1.87,.95-3.68-.4-5.39-1.9-1.01-3.74-1.11-5.47,.37l.06-.07Z"/><path class="cls-20" d="M352.87,412.51c.81,0,1.63-.05,2.43,.04,2.04,.21,3.27,0,3.13-2.73-.12-2.25-.63-3.08-2.86-2.73-.88,.14-1.8,.04-2.7,.05l.05-.05c-1.48,1.83-1.48,3.65,0,5.48l-.05-.05Z"/><path class="cls-20" d="M320.39,407.14c-.81,0-1.63,.05-2.43-.04-2.04-.21-3.27,0-3.13,2.73,.12,2.25,.63,3.08,2.86,2.73,.88-.14,1.8-.04,2.7-.05l-.05,.05c1.48-1.83,1.48-3.65,0-5.48l.05,.05Z"/><path class="cls-20" d="M401.72,222.76v5.48l-.06-.07c1.82,1.49,3.7,1.44,5.63,.24,1.25-1.92,1.24-3.85,.05-5.79-1.93-1.27-3.83-1.31-5.67,.19l.05-.05Z"/><path class="cls-18" d="M228.2,103.6c-1.82-.04-3.64-.07-5.45-.11q.07,5.44-5.47,5.45c-5.4,.01-10.81,.06-16.21,.09-1.5,1.81-1.35,3.66-.15,5.55,.72,.61,1.59,.85,2.5,.85,4.48,0,8.97,.22,13.45-.12,.54-.08,1.08,.11,1.61,.07,2.19-.19,3.45,.56,3.42,2.96,0,.72,.34,1.4,.97,1.87,3.39,1.25,6.87,.59,10.32,.51,.62-.09,1.24,.15,1.85,.1,1.89-.14,3.11,.41,3.07,2.59-.01,.79,.28,1.57,.93,2.15,1.63,.97,3.38,.8,5.13,.56,.71-.06,1.41,.21,2.12,.15,1.8-.16,2.61,.65,2.65,2.44,.02,.88,.28,1.76,1.07,2.36,3.39,1.22,6.86,.58,10.3,.5,.71-.1,1.41,.19,2.11,.12,1.9-.19,2.79,.63,2.8,2.55,0,.79,.27,1.57,.9,2.15,1.59,.96,3.31,.84,5.03,.59,.36-.03,.72,.04,1.07,0,2.59-.22,4.16,.67,4.02,3.55-.02,.35,.23,.68,.43,.99,.21,.25,.45,.44,.74,.58,3.45,.87,6.94,.45,10.41,.29,1.81,.17,3.64,.47,5.34-.48,.37-.27,.76-.64,.76-1.06-.06-3.66,2.29-4.07,5.13-3.87,3.45,.1,6.92,.72,10.31-.45,.46-.3,.72-.75,.9-1.26q1.2-3.47,5.1-3.71c5.22,.05,10.46,.77,15.64-.42,.64-.41,1.07-1.05,1.06-1.75-.08-2.85,1.67-3.32,3.95-3.23,.35,.01,.71-.04,1.06,0,6.31,.36,12.62,.12,18.93,.13,.73,0,1.43-.18,2.07-.54,.65-.39,1.1-1.03,1.08-1.74-.06-2.79,1.59-3.39,3.93-3.27,.35,.02,.71-.05,1.06-.02,5.23,.05,10.47,.77,15.65-.42,.64-.41,1.08-1.06,1.06-1.76-.08-2.86,1.69-3.31,3.96-3.23,.35,.01,.71-.04,1.07,0,6.27,.36,12.55,.11,18.82,.13,.91,0,1.78-.22,2.52-.8,1.29-1.89,1.44-3.76-.08-5.61-12.91-.03-25.82-.06-38.72-.09-1.53,0-3.07-.04-4.6-.06-1.58-1.26-3.32-1.13-5.09-.54-.28,.13-.52,.32-.72,.55-.1,.14-.21,.29-.26,.46q-1.17,3.97-5.41,4.06c-6.27-.33-12.54-.12-18.8-.12-.72,0-1.42,.18-2.05,.54-.47,.29-.92,.73-.92,1.24,0,3.69-2.43,3.93-5.19,3.76-8.11-.36-16.21-.11-24.31-.13-.73,0-1.43,.17-2.07,.53-.66,.39-1.11,1.03-1.1,1.73,.05,2.79-1.59,3.42-3.93,3.28-.35-.02-.71,.05-1.07,.02-6.94-.28-13.88-.28-20.82,0-.54,.08-1.08-.12-1.61-.07-2.19,.2-3.43-.58-3.41-2.96,0-.72-.34-1.4-.97-1.87-3.39-1.25-6.87-.59-10.33-.51-.62,.09-1.24-.15-1.85-.1-1.89,.14-3.11-.4-3.07-2.59,.02-.79-.28-1.57-.92-2.15-1.62-.97-3.37-.8-5.12-.56-.35,.01-.7-.06-1.05-.04-2.3,.13-3.97-.42-3.86-3.22,.02-.6-.33-1.18-.83-1.6-1.61-.95-3.33-.81-5.07-.56-.54,.07-1.07-.13-1.6-.09-1.98,.15-3.34-.37-3.31-2.71,0-.64-.38-1.18-.87-1.62Z"/><path class="cls-21" d="M407.13,109.02c-.01,1.75-.03,3.5-.04,5.25,.86,1.21,2.16,1.17,3.42,1.18,6.77,.03,13.54,.03,20.31,0,1.26,0,2.56,.04,3.43-1.17v-5.38l-27.12,.12Z"/><path class="cls-14" d="M358.37,108.88h5.43l-.06-5.37c-1.82,.03-3.65,.05-5.47,.08-1.37,1.79-1.45,3.56,.1,5.29Z"/><path class="cls-17" d="M271.53,136.12l-5.35-.16c-3.03-.52-4.72-2.44-5.52-5.29-3.58-.04-7.17-.09-10.75-.13-3.03-.52-4.72-2.44-5.52-5.29-1.78-.04-3.55-.09-5.33-.13-3.03-.52-4.72-2.44-5.52-5.29-3.57-.03-7.15-.07-10.72-.1-2.97-.58-4.78-2.39-5.52-5.29l-16.19-.16c-.99-.95-2.23-1.03-3.51-1.03-6.72,0-13.43,0-20.15,0-1.28,0-2.52,.08-3.5,1.03-3.6,.05-7.21,.11-10.81,.16-.7,2.91-2.49,4.7-5.45,5.26-1.81,.01-3.62,.03-5.43,.04l-.04,5.43c-.56,2.97-2.35,4.75-5.26,5.45l-.16,10.81c-.56,2.97-2.35,4.75-5.26,5.45l-.16,27.08c-.56,2.97-2.35,4.75-5.26,5.45v43.35c1.55,1.36,3.2,1.33,4.92,.38,1.07-.74,1.36-1.86,1.43-3.06,.08-1.26,.77-1.73,1.98-1.63,.88,.07,1.28,.52,1.33,1.38,.08,1.23-.46,1.85-1.69,1.93-1.1,.07-2.15,.31-2.88,1.27-1.31,1.74-.84,3.77-.79,5.67,.05,2.3-.2,4.08-3.08,4.1-.54,0-.94,.47-1.35,.8l.02-.02c-1.5,1.65-1.08,3.7-1.02,5.59,.08,2.44-.08,4.47-3.22,4.55-.43,.01-.76,.43-1.07,.75v27.09c.25,.26,.51,.63,.84,.65,3.43,.2,3.58,2.46,3.43,5.11-.14,2.34-.03,4.69-.02,7.03,0,1.28,.08,2.54,1.04,3.53,.04,1.79,.09,3.57,.13,5.36,2.94,.69,4.68,2.54,5.29,5.48,.04,1.79,.09,3.57,.13,5.36,2.95,.69,4.66,2.56,5.31,5.48l-.02-.02c1.07,1.06,2.43,1.07,3.79,1.07,4.24,0,8.48,0,12.72,0,.72,0,1.44-.02,2.16,.05,.99,.09,1.78,.43,1.77,1.6-.01,1.19-.85,1.5-1.83,1.53-3.16,.11-6.32,0-9.47,.06-1.33,.03-2.75-.14-3.73,1.11,0,3.62,0,7.23,.01,10.85q5.53-.11,5.42,5.42,5.53-.11,5.42,5.42,5.53-.11,5.42,5.42c1.8,0,3.6,0,5.4,0,1.62,1.3,3.38,1.16,5.2,.5,.3-.16,.54-.39,.73-.66,.73-1.69,.89-3.36-.16-4.99-.76-1.05-1.9-1.25-3.08-1.34-1.3-.09-1.62-.88-1.54-2.02,.07-.87,.53-1.25,1.38-1.3,1.2-.07,1.84,.42,1.94,1.66,.07,.98,.18,1.97,1.01,2.69,.19,.18,.39,.5,.6,.5,3.11,.07,4.12,2.02,4.33,4.72,.14,.24,.33,.44,.56,.61,.31,.19,.64,.38,1,.39,2.13,.05,3.68,.68,3.58,3.23-.02,.54,.41,.98,.85,1.33l16.24,.09c.01-1.8,.03-3.6,.04-5.41,1.25-1.67,1.34-3.38,.22-5.14-.23-.26-.46-.55-.77-.72-1.36-.77-4.14-3.57-4.76-4.83-.73-.94-1.78-1.13-2.87-1.21-1.23-.08-1.74-.71-1.66-1.93,.05-.84,.4-1.33,1.29-1.39,1.15-.08,1.91,.26,2.02,1.55,.09,1.07,.2,2.16,1.15,2.9,.13,.12,.26,.3,.41,.33,2.45,.37,4.25,1.38,4.32,4.22,0,.38,.51,.7,.84,1.01,1.78,1.17,3.51,1.07,5.19-.19l5.41-.04c.01-1.8,.03-3.6,.04-5.41,1.25-1.58,1.1-3.3,.53-5.07-.12-.28-.31-.51-.53-.71-3.17-.18-4.79-2.05-5.39-5.01-.48-.57-1.1-.87-1.84-.99-1.17-.2-2.67,.05-2.6-1.9,.03-.96,.4-1.47,1.41-1.55,1.9-.15,1.88,1.22,2.02,2.46,.1,.84,.46,1.53,1.11,2.07,1.59,1.15,3.26,.96,4.97,.34,.3-.17,.53-.4,.72-.69,.76-1.83,.9-3.61-.4-5.28-.05-1.8-.11-3.59-.16-5.39-2.91-.7-4.7-2.49-5.26-5.45-.01-1.81-.03-3.62-.04-5.43-1.81,0-3.62-.01-5.43-.02-.11,.08-.22,.16-.34,.24-.11,.14-.23,.28-.28,.44q-1.13,3.67-5.21,3.89c-1.7-.26-3.38-.37-4.96,.48-.45,.33-.69,.82-.85,1.34q-1.05,3.47-4.57,3.47c-.36,0-.73,.05-1.08-.01-1.2-.23-2.99,.63-3.24-1.45-.26-2.13,1.58-1.77,2.79-2.05,1.28-.3,2.27-1.01,2.29-2.32,.02-2.37,1.31-3.11,3.39-3.17,.45-.01,.86-.26,1.22-.55,.13-.12,.33-.25,.34-.4,.23-3.03,1.88-4.65,4.87-4.97,.08-.11,.16-.23,.24-.35,0-3.59,0-7.17,0-10.76,.61-2.94,2.35-4.79,5.29-5.48v-21.67c-2.94-.69-4.68-2.54-5.29-5.48-.04-1.79-.09-3.57-.13-5.36-2.94-.69-4.68-2.54-5.29-5.48v-5.4q-5.49,.1-5.45-5.33c-.05-.07-.09-.21-.15-.22-3.02-.47-4.51-2.46-5.24-5.21-.13-.12-.24-.27-.39-.35-2.57-1.34-3.65-2.43-4.91-4.94-.73-.94-1.79-1.11-2.87-1.19-1.24-.09-1.72-.74-1.64-1.94,.05-.85,.42-1.31,1.3-1.37,1.15-.08,1.9,.27,2.01,1.56,.09,1.07,.2,2.15,1.15,2.89,3.39,.3,4.34,3.03,5.53,5.52,1.65,1.19,3.35,1.02,5.08,.22,.14-.1,.37-.22,.38-.35,.26-3.22,2.32-4.73,5.18-5.5v.04c1.37-1.66,1.28-3.45,.45-5.29-.3-.47-.76-.9-1.27-.88-3.71,.18-3.72-2.38-3.73-4.95,.24-1.75,.43-3.49-.5-5.13-.28-.36-.66-.57-1.07-.76-1.05-.48-2.55,.07-3.25-.95-.82-1.2-.43-2.77-.57-4.18,.28-5.21,.29-10.41,0-15.61,.32-4.21,.06-8.43,.18-12.65,.03-1.13-.16-2.56,1.56-2.6,1.74-.04,1.61,1.36,1.65,2.51,.13,4.21-.18,8.44,.19,12.65-.11,3.5-.71,7.01,.41,10.46,.3,.47,.75,.93,1.26,.91,3.68-.16,3.79,2.34,3.77,4.96-.24,1.75-.42,3.49,.48,5.12,.27,.36,.64,.75,1.05,.74,3.57-.08,4.01,2.24,3.89,5-.24,1.74-.42,3.48,.49,5.11,.27,.36,.64,.75,1.06,.74,3.63-.08,4.01,2.27,3.87,5.05-.24,1.82-.49,3.64,.91,5.16l-.03-.03c1.53,1.39,3.34,1.14,5.15,.91,.71-.06,1.41,.21,2.12,.14,1.8-.16,2.61,.65,2.65,2.45,.02,.89,.28,1.77,1.07,2.36,3.4,1.22,6.88,.58,10.33,.49,.62-.08,1.22,.15,1.83,.11,1.87-.13,3.06,.41,3.05,2.56,0,.87,.32,1.73,1.12,2.29,1.69,.94,3.54,.67,5.32,.6,3.5-.14,7.04,.59,10.48-.53,.48-.28,.96-.72,.95-1.23-.09-3.56,2.21-3.96,4.94-3.85,1.72,.24,3.44,.41,5.07-.42,.38-.25,.8-.61,.78-1.02-.09-3.21,1.99-4.09,4.63-4.39,.26-.15,.46-.35,.63-.6,.28-.46,.49-.98,.47-1.51-.05-1.99,.88-2.9,2.87-2.92,.89-.01,1.74-.38,2.23-1.26,.5-.91,.51-1.91,.51-2.91,.02-18.07,.02-36.13,0-54.2,0-.54-.01-1.08-.14-1.61-.14-.71,.15-1.42,.09-2.12-.14-1.84,.5-2.88,2.5-2.9,.89,0,1.76-.31,2.34-1.12,.81-3.61,1.4-7.21-.44-10.71l-.07,.05c-2.88-.7-4.7-2.48-5.43-5.37Z"/><path class="cls-16" d="M130.69,244.48q5.33-.03,5.33-5.5c0-1.8-.01-3.6-.02-5.39-1.81,0-3.62,0-5.43,.01,.04,3.63,.08,7.26,.12,10.88Z"/><path class="cls-16" d="M141.46,222.79c-1.78,0-3.56-.01-5.34-.02-.04,3.61-.09,7.22-.13,10.83q5.47,.06,5.46-5.5c0-1.78,0-3.56,0-5.34l.02,.02Z"/><path class="cls-21" d="M136.11,179.42q5.49-.03,5.26-5.45c-1.79,0-3.58,0-5.38,0,.04,1.82,.08,3.64,.12,5.46Z"/><path class="cls-17" d="M434.24,114.28c-9.05,0-18.11,0-27.16,0-7.2,.04-14.4,.09-21.6,.13-.2,.3-.13-.15-.18,.19-.49,3.06-2.62,4.39-5.34,5.11-5.39,.04-10.78,.09-16.17,.13-.2,.3-.13-.15-.18,.19-.49,3.06-2.62,4.39-5.34,5.11-7.2,.04-14.4,.09-21.59,.13-.2,.3-.13-.15-.18,.19-.49,3.06-2.62,4.39-5.34,5.11-5.39,.04-10.78,.09-16.17,.13-.2,.3-.13-.15-.18,.19-.49,3.06-2.62,4.39-5.34,5.11-3.59,.05-7.18,.11-10.77,.16-.75,2.91-2.55,4.71-5.52,5.29-1.77,.03-3.53,.07-5.3,.1-1.14,1-1.18,2.35-1.15,3.7,.04,2.23-.18,4.47,.16,6.69,.09,.71-.18,1.41-.13,2.11,.13,1.71-.47,2.69-2.35,2.74-.97,.02-1.94,.3-2.54,1.23-.63,1.07-.58,2.25-.58,3.42-.02,13.78-.01,27.55,0,41.33,0,1.17-.07,2.35,.51,3.43,.31,.57,.82,1.09,1.42,1.07,3.67-.15,3.68,2.38,3.7,4.93-.23,1.76-.44,3.52,.51,5.16,.3,.19-.16,.13,.18,.18,3.31,.45,4.89,2.59,5.6,5.62,1.63,1,3.38,.82,5.14,.58,.44-.03,.88,.1,1.31,.08,2.12-.12,3.67,.34,3.55,2.96-.03,.69,.32,1.37,.91,1.85,1.67,.97,3.45,.75,5.23,.53,2.23,.28,4.47,.23,6.7,.15,1.98-.07,3.35,.32,3.35,2.68,0,.8,.35,1.57,1.04,2.11,.86,.58,1.84,.66,2.84,.67,7.08,.03,14.16,.03,21.24,0,.9,0,1.79-.08,2.6-.52,.57-.31,1.08-.83,1.05-1.42-.16-3.67,2.38-3.65,4.91-3.68,1.74,.24,3.48,.42,5.11-.46,.37-.26,.77-.63,.76-1.05-.06-3.36,1.94-4.15,4.79-3.94,1.68,.21,3.35,.34,4.97-.25,.27-.12,.5-.29,.7-.51,.11-.14,.27-.29,.27-.45-.1-3.27,1.84-4.44,4.74-4.62,.24-.15,.43-.34,.59-.57,.23-.39,.42-.82,.41-1.27-.03-2.02,.74-3.23,2.96-3.18,.65,.01,1.18-.41,1.63-.86l-.03,.03c1.37-1.51,1.15-3.31,.91-5.11-.07-.7,.18-1.39,.13-2.09-.11-1.66,.4-2.72,2.29-2.72,.81,0,1.53-.37,2.11-.96v.04c.72-.76,1.06-1.67,1.05-2.7-.02-4.32,.2-8.65-.11-12.96-.07-.44,0-.89-.03-1.32-.21-2.56,.67-4.11,3.51-3.97,.35,.02,.67-.22,.98-.41,.25-.19,.45-.43,.59-.72,.9-3.32,.49-6.68,.33-10.03-.09-.53,.11-1.07,.06-1.59-.23-2.31,.64-3.56,3.11-3.44,.44,.02,.87-.19,1.26-.42,.24-.16,.44-.37,.59-.62,.94-2.34,.39-4.8,.56-7.21,.08-1.11,.06-2.27,1.63-2.27,1.55,0,1.61,1.13,1.65,2.26,.09,2.52-.13,5.04,.19,7.55-.27,1.68-.29,3.36,0,5.04,.04,.63-.21,1.26-.14,1.88,.21,1.95-.65,2.83-2.6,2.85-.81,0-1.6,.28-2.17,.97-.98,1.69-.73,3.49-.53,5.29-.19,1.76-.31,3.52,0,5.27,.04,.63-.2,1.24-.14,1.86,.19,1.89-.58,2.84-2.54,2.87-.89,.01-1.77,.31-2.33,1.14-.77,3.59-1.36,7.18,.42,10.67,.05,1.8,.11,3.59,.16,5.39,2.94,.69,4.68,2.54,5.29,5.48,0,1.8,0,3.6,0,5.4l5.43,.04c1.66,1.5,3.7,.95,5.62,1.01,1.68,.05,3.38,.13,5.05-.16,1.75,.07,3.54,.54,5.17-.53,1.15-.78,1.39-1.99,1.49-3.25,.09-1.11,.73-1.52,1.78-1.49,.97,.02,1.49,.43,1.52,1.43,.03,1.01-.25,1.73-1.41,1.86-1.05,.12-2.15,.14-2.93,1.04-.19,.19-.5,.39-.51,.6-.06,3.11-2.03,4.12-4.73,4.33-.24,.14-.44,.33-.61,.56-.19,.31-.38,.64-.39,1-.04,2.16-.73,3.67-3.27,3.54-.55-.03-.98,.43-1.4,.77-1.8,0-3.6,0-5.4,0v5.4c-.62,2.94-2.36,4.79-5.3,5.48-.04,1.79-.09,3.57-.13,5.36-.61,2.94-2.35,4.79-5.29,5.48-.04,3.59-.09,7.19-.13,10.78-.61,2.94-2.35,4.79-5.29,5.48,0,7.22,0,14.44,0,21.67,2.95,.69,4.66,2.56,5.31,5.47l-.02-.02c.14,.11,.27,.31,.41,.32,3.17,.2,4.36,2.21,4.66,5.05,.17,.24,.39,.43,.64,.58,.65,.34,1.37,.49,2.09,.51,1.33,.05,1.95,.72,2.03,2.02,.15,2.5,1.69,3.39,4,3.4,1.63,0,3.25-.02,4.88,.05,1,.04,1.8,.35,1.81,1.54,0,1.14-.69,1.62-1.73,1.64-5.24,.1-10.48,.06-15.72,.02-1.17,0-1.84-.54-1.96-1.76-.1-1.08-.21-2.18-1.14-2.96-1.88-.93-3.7-1.03-5.4,.4l.03-.03c-.68,2.89-2.38,4.79-5.33,5.47-.01,.09-.04,.18-.04,.27q-.2,5.21-5.5,5.11c.03,3.61,.06,7.21,.09,10.82,1.6,1.42,3.3,1.43,5.06,.34,.26-.23,.54-.46,.71-.77,.91-1.66,3.24-3.96,4.82-4.74,.94-.73,1.13-1.78,1.21-2.87,.08-1.23,.72-1.74,1.93-1.66,.84,.05,1.32,.41,1.39,1.29,.08,1.15-.27,1.9-1.55,2.02-1.07,.09-2.16,.2-2.9,1.15-.12,.13-.3,.26-.33,.41-.37,2.45-1.38,4.25-4.22,4.32-.38,0-.7,.51-1.01,.84-1.17,1.78-1.07,3.51,.19,5.19,.01,1.8,.03,3.6,.04,5.41,1.8,.01,3.6,.03,5.41,.04,1.67,1.25,3.38,1.34,5.14,.22,.26-.23,.55-.46,.72-.77,.76-1.36,3.57-4.14,4.83-4.76,.94-.73,1.14-1.78,1.21-2.87,.08-1.23,.71-1.74,1.93-1.66,.84,.05,1.33,.4,1.39,1.29,.08,1.15-.26,1.91-1.55,2.02-1.07,.09-2.16,.2-2.9,1.15-.12,.13-.3,.26-.33,.41-.38,2.45-1.38,4.25-4.22,4.32-.38,0-.7,.51-1.01,.84-1.17,1.78-1.07,3.51,.19,5.19,.01,1.8,.03,3.6,.04,5.41,5.41-.03,10.83-.06,16.24-.09,.2-.17,.53-.36,.53-.57,.08-3.12,2.09-4.08,4.77-4.3,.24-.14,.44-.33,.6-.56,.14-.23,.32-.47,.31-.73-.02-2.52,1.04-3.97,3.72-3.96,.34,0,.6-.35,.87-.58,.76-.61,.98-1.46,1.05-2.37,.09-1.16,.33-2.14,1.84-2.07,.96,.04,1.47,.41,1.55,1.42,.1,1.44-.69,1.88-1.94,1.95-1.01,.06-1.94,.33-2.6,1.18-1.15,1.6-.96,3.27-.33,4.98,.17,.3,.41,.53,.69,.72,1.84,.76,3.63,.89,5.3-.44,1.8,0,3.6,0,5.4,0q-.11-5.53,5.42-5.42-.11-5.53,5.42-5.42c0-3.61,0-7.22,0-10.82,2.17-3.83,.85-6.39-3.4-6.55-1.44-.05-2.88,.02-4.32-.05-1.1-.06-1.98-.41-1.9-1.73,.07-1.21,.97-1.4,1.92-1.43,3.06-.09,6.12,0,9.17-.04,3.71-.04,4.04-.22,5-3.78,.42-1.55,1.47-1.57,2.67-1.63,1.97-.1,3.96,.25,5.9-.34,.44-.13,.78-.44,1.09-.77l.13-5.36c.61-2.94,2.35-4.79,5.29-5.48l.13-16.2c.61-2.94,2.35-4.79,5.29-5.48,0-9.03,0-18.06,0-27.09-.26-.24-.49-.62-.83-.62-3.66-.08-3.71-2.6-3.58-5.26,.07-3.46,.77-6.95-.52-10.33-.47-.59-1.14-.96-1.84-.96-2.58,.03-2.99-1.45-2.96-3.63,.03-1.99,.54-4.11-.72-5.96-.75-1.06-1.89-1.29-3.08-1.38-1.09-.09-1.6-.64-1.57-1.75,.02-.97,.41-1.51,1.44-1.54,1.05-.03,1.73,.32,1.85,1.47,.11,1.17,.27,2.34,1.33,3.13,.56,.53,1.25,.74,1.98,.78,1.27,.08,1.84,.69,2.14,1.97,.85,3.6,3.08,4.39,6.37,2.4,.01-.09,.04-.18,.04-.27q.2-5.21,5.5-5.11c-.04-12.66-.08-25.32-.12-37.97-2.94-.69-4.67-2.55-5.3-5.48v.04c-.32-.18,.12-.1-.22-.16-2.92-.49-4.56-2.22-5.07-5.09-.73-.94-1.8-1.11-2.88-1.18-1.26-.09-1.7-.77-1.62-1.96,.06-.86,.47-1.29,1.34-1.35,1.18-.09,1.88,.36,1.97,1.61,.09,1.18,.33,2.31,1.4,3.06,1.73,1,3.39,1.03,4.95-.35v-16.25c-2.91-.7-4.7-2.49-5.26-5.45l-.16-16.23c-2.91-.7-4.7-2.49-5.26-5.45l-.04-5.43c-1.81-.01-3.62-.03-5.43-.04-2.97-.56-4.75-2.35-5.45-5.26l-10.81-.16Z"/><path class="cls-16" d="M466.66,222.77c-.72,0-1.44-.07-2.15,.02-2.35,.3-3.61-.43-3.2-3.04,.31-1.92-.65-2.58-2.47-2.41-.98,.09-1.97,.02-2.95,.03l.02-.02c0,2.71,.11,5.42-.05,8.12-.13,2.14,.61,3.02,2.76,2.75,.89-.11,1.8-.02,2.7-.02,1.78,1.41,3.56,1.46,5.33,0v-5.42Z"/><path class="cls-21" d="M466.66,228.2c-1.78,0-3.55,0-5.33,0,.02,3.6,.03,7.2,.05,10.8,1.74,1.47,3.5,1.49,5.28,.06,0-3.62,0-7.24,0-10.86Z"/><path class="cls-16" d="M466.66,239.06c-1.76-.02-3.52-.04-5.28-.05q-.16,5.45,5.28,5.48c0-1.81,0-3.62,0-5.42Z"/><path class="cls-16" d="M466.66,271.57q-5.42,.03-5.29,5.48c1.8,0,3.61-.01,5.41-.02-.04-1.82-.08-3.64-.12-5.46Z"/><path class="cls-16" d="M135.98,287.89c.01-4.41-.12-8.83,.1-13.23,.13-2.58-.82-3.42-3.23-3.1-.71,.1-1.44,0-2.16,0l-.12,16.31,5.41,.02Z"/><path class="cls-16" d="M255.35,119.72c3.58,.03,7.17,.07,10.75,.1,2.99,.58,4.75,2.43,5.51,5.32,7.2,0,14.4,0,21.6,0,.19-.31,.01,.13,.19-.19,1.07-1.88,3.25-3.98,5.32-5.13,9.01-.03,18.01-.07,27.02-.1,.19-.31,.01,.13,.19-.19,1.07-1.88,3.25-3.98,5.32-5.13,7.2-.03,14.4-.07,21.6-.1,1.54-1.76,1.4-3.61,.28-5.52-3.37-1.79-6.96-.73-10.46-.8q-4.39-.05-5.53-4.26c-.14-.25-.33-.45-.56-.62-.15-.09-.3-.2-.47-.24q-3.75-.96-4-5.13c.26-1.72,.39-3.42-.5-5.01-.27-.36-.65-.73-1.06-.72-3.6,.1-3.97-2.25-3.86-5,.24-1.75,.42-3.49-.5-5.12-.28-.36-.66-.58-1.07-.76-1.05-.48-2.55,.07-3.25-.94-.83-1.19-.42-2.76-.58-4.17,0-3.54,.92-7.15-.68-10.59-1.7-1.35-3.64-.95-5.55-.79-2.69-.3-5.38-.16-8.08-.14-2.15,.01-3.7,.87-3.92,3.2-.16,1.77-1.19,2.24-2.74,2.2-.99-.03-1.98,0-2.97,0-3.87,.04-4.05,.12-5.23,3.87-.38,1.2-1.14,1.5-2.21,1.53-1.44,.04-2.88,.02-4.31,.03-1.2,0-2.33,.17-3.24,1.06-10,0-20,.08-30-.02-1.98-.02-2.68,.42-2.54,2.49,.18,2.78,0,5.58-.02,8.37-1.3,1.54-1.08,3.32-.84,5.11,.06,.54-.15,1.08-.1,1.61,.19,2.06-.51,3.29-2.79,3.27-.65,0-1.17,.43-1.64,.87v-.04c-1.27,2.21-3.3,4.23-5.43,5.4-1.79,.05-3.59,.11-5.38,.16-1.46,1.77-1.44,3.53,.03,5.28,1.78,.03,3.56,.07,5.33,.1,2.99,.58,4.75,2.43,5.51,5.32,1.78,.03,3.56,.07,5.33,.1,2.99,.58,4.75,2.43,5.51,5.32Z"/><path class="cls-17" d="M282.37,76.37c2.79,0,5.59-.06,8.38,.06,1.83,.08,2.81-.49,2.49-2.43-.44-2.68,.93-3.25,3.25-3.05,1.7,.15,3.43-.07,5.13,.05,1.87,.13,2.75-.57,2.46-2.46-.36-2.4,.63-3.2,3.01-3.03,2.6,.19,5.22,.04,7.84,.04,1.89-3.45,1.23-7.03,.51-10.6-.29-.47-.73-.92-1.24-.91-3.73,.06-3.9-2.42-3.77-5.16,.05-.27,.11-.53,.12-.8,.2-4.75-1.6-6.13-6.21-4.75-.48,.28-.95,.73-.94,1.24,.12,3.62-2.28,3.89-4.96,3.82-1.76-.24-3.5-.42-5.12,.54-.36,.29-.61,.65-.76,1.08q-1.27,3.56-5.23,3.75c-6.28-.35-12.57-.11-18.85-.13-.82,0-1.6,.2-2.29,.67-1.76,1.89-1.06,4.24-1.13,6.42-.12,3.63-.14,3.63-3.84,3.76-3.65,.13-7.35-.55-10.97,.47-.31,.15-.57,.37-.78,.64-.84,1.85-1.07,3.65,.44,5.31,10.84,.04,21.67,.07,32.51,.11,.89-.81,.9-1.93,1.03-3,.14-1.21,.91-1.42,1.92-1.37,.87,.05,1.31,.48,1.35,1.35,.05,1.01-.16,1.78-1.37,1.92-1.07,.12-2.19,.14-3,1.02,0,1.81,0,3.61,0,5.42Z"/><path class="cls-23" d="M249.93,70.91c-.02-1.79-.03-3.57-.05-5.36-1.77-1.48-3.56-1.42-5.36-.05l-.09,5.49c1.83-.03,3.66-.06,5.49-.09Z"/><path class="cls-18" d="M249.83,92.62c0-1.8-.01-3.6-.02-5.4-1.79,0-3.58,0-5.37,0,.04,1.82,.07,3.64,.11,5.45,1.78,1.43,3.54,1.41,5.28-.06Z"/><path class="cls-21" d="M173.95,114.28c9.05,0,18.11,0,27.16,0-.02-1.75-.03-3.5-.05-5.25-9.04-.04-18.08-.08-27.12-.12,0,1.79,0,3.58,0,5.37Z"/><path class="cls-16" d="M309.49,358.35l5.41,.03c3.03,.57,4.77,2.44,5.45,5.39l-.03-.03c.9,.9,2.04,1.07,3.24,1.08,5.05,.02,10.09,.05,15.14-.01,3.1-.04,3.62-.44,4.43-3.55,.33-1.29,1.06-1.75,2.25-1.9,1.45-.18,2.72-.82,2.92-2.36,.26-1.98,1.08-3.14,3.17-3.25,.54-.03,.96-.46,1.33-.87l.15-10.79c.58-2.96,2.36-4.76,5.27-5.48,0-3.6,0-7.21,0-10.81-2.94-.7-4.67-2.56-5.31-5.49v.05c-1.6-1.48-3.52-1.09-5.4-.91-1.82-.16-3.66-.48-5.37,.49-.37,.27-.76,.64-.75,1.06,.07,3.69-2.31,4.06-5.14,3.86-5.09-.29-10.19-.27-15.27-.03-1.08,.16-2.14-.13-3.22-.12-1.05,0-1.71-.41-1.72-1.58-.01-1.12,.52-1.68,1.62-1.69,1.08-.01,2.14-.25,3.23-.15,3.39,.08,6.81,.71,10.14-.45,.47-.3,.91-.76,.88-1.27-.18-3.7,2.37-3.73,4.95-3.73,1.75,.24,3.49,.42,5.12-.49,.36-.27,.75-.64,.74-1.06-.08-3.62,2.27-4.02,5.05-3.87,1.82,.23,3.64,.49,5.16-.9l-.03,.03c.67-2.9,2.39-4.78,5.33-5.47,0-1.8,0-3.6,0-5.4-1.55-1.52-3.44-1.06-5.28-.92-1.77-.22-3.54-.3-5.3,0-2.31-.29-4.64-.09-6.95-.19-1.17-.05-2.8,.37-2.84-1.54-.04-2.1,1.71-1.63,2.96-1.7,1.43-.08,2.86,.03,4.29-.09,.99-.08,1.96-.24,2.68-1.03,1.01-1.75,1-3.5,.07-5.27-1.86-1.77-4.22-.93-6.37-1.21-1.34-.17-3.52,.79-3.58-1.57-.06-2.41,2.14-1.51,3.47-1.66,2.09-.24,4.31,.45,6.24-.94,1.18-1.65,1.08-3.42,.45-5.22-.14-.29-.33-.53-.58-.73-1.56-.92-3.32-.43-4.96-.73-1.62-.3-4.54,1.24-4.56-1.54-.02-3.09,3.03-1.35,4.69-1.67,1.55-.3,3.2,.03,4.8-.24,1.7,.2,3.4,.37,5.05-.28,.27-.13,.51-.31,.7-.53,.12-3.25,2.18-4.72,5.02-5.5l.15-5.37c.58-2.96,2.36-4.76,5.27-5.48l.15-5.37c.58-2.96,2.36-4.76,5.27-5.48l.15-5.37c.58-2.96,2.36-4.76,5.27-5.48l.12-10.8c-.11-.13-.21-.26-.32-.39-1.8-.95-3.53-.97-5.17,.36l.03-.03c-1.23,2.08-3.52,4.27-5.67,5.42-.15,.33-.03-.12-.16,.22q-1.61,4.1-6.35,4.17c-1.52,.03-3.09-.13-4.34,1.05-.15,.33-.02-.12-.16,.22q-1.68,4.12-6.43,4.13c-5.47,0-10.93,0-16.4,0-1.34,0-2.71-.08-3.89,.76-.42,.36-.75,.84-.78,1.36-.1,2.15-.95,3.26-3.3,3.64-2.44,.39-2.93,2.91-1.59,6.18,.5,.57,1.18,.91,1.89,.91,2.27,.02,2.95,1.24,2.74,3.31-.08,.8-.06,1.62,0,2.42,.13,1.85-.26,3.15-2.51,3.26-1.63,.08-2.72,1.12-2.79,2.77-.1,2.25-1.41,2.49-3.25,2.55-2.36,.08-4.89-.7-7.02,1.04-.96,1.77-.96,3.54-.07,5.33,.92,1.09,2.21,1.09,3.47,1.14,1.44,.06,2.89,0,4.33,.04,1,.03,2.09,0,2.25,1.38,.17,1.5-.85,1.79-2.03,1.92-1.85,.2-3.07,1.16-3.17,3.08-.1,1.97-1.25,2.24-2.9,2.33-2.46,.13-5.09-.74-7.32,1.05-.97,1.78-.97,3.57-.04,5.36,1.1,1.2,2.58,1.1,4.01,1.12,3.05,.05,6.11-.02,9.16,.04,1,.02,2.08,.03,2.25,1.38,.19,1.51-.86,1.77-2.01,1.9-1.84,.2-3.05,1.16-3.15,3.07-.1,1.94-1.22,2.25-2.87,2.34-2.45,.12-5.06-.72-7.3,1.01-1.01,1.77-1,3.56-.11,5.36,.91,1.09,2.19,1.1,3.45,1.16,1.35,.06,2.69,0,4.04,.04,1.14,.04,2.51-.16,2.59,1.57,.07,1.54-1.13,1.61-2.21,1.75-1.73,.23-2.89,1.15-2.97,2.93-.1,2.08-1.28,2.4-3.04,2.45-2.37,.07-4.87-.63-7.08,.89-.17,.21-.34,.42-.43,.68q-1.27,3.81-5.43,3.81c-5.11,0-10.22,0-15.33,0q-4.29,0-4.79-4.28c.02-.63,.18-1.24,.18-1.88,.02-3.49-.94-4.52-4.39-4.66-1.53-.06-3.05,.03-4.58-.07-1.02-.07-1.73-.49-1.72-1.64,.02-1.19,.84-1.48,1.81-1.52,1.62-.08,3.23,0,4.85-.06,1.17-.04,2.35-.1,3.26-1.01,1.03-1.79,1.02-3.59,.09-5.41-1.89-1.76-4.25-1.1-6.43-1.1-2.22,0-3.87-.18-4-3.01-.08-1.71-1.59-2.24-3.12-2.43-1.06-.13-1.99-.4-1.9-1.75,.08-1.36,1.09-1.5,2.12-1.51,3.05-.06,6.11,0,9.17-.04,1.43-.02,2.91,.09,4.07-1.03,1.01-1.77,1-3.56,.12-5.36-1.89-1.8-4.26-1.14-6.44-1.13-2.22,0-3.92-.16-4.01-3-.05-1.43-1.24-2.1-2.6-2.35-1.12-.21-2.57-.11-2.43-1.85,.16-1.92,1.75-1.44,2.92-1.51,1.97-.13,3.98,.2,5.92-.36,.44-.13,.82-.37,1.13-.72,.97-1.76,.97-3.54,.08-5.33-1.88-1.79-4.24-1.12-6.42-1.14-2.16-.02-3.92-.05-4.03-2.94-.07-1.71-1.53-2.35-3.07-2.47-1.62-.13-2.17-1.01-2.1-2.5,.03-.54,0-1.08,0-1.62q0-3.79,3.64-5.04c.34-.12,.64-.33,.91-.57,1.73-3.79,1.02-5.45-2.92-6.62-1.01-.3-1.5-.84-1.6-1.84-.1-.98-.23-1.95-.94-2.72-1.16-.91-2.53-.84-3.88-.85-4.24-.02-8.49-.1-12.73,.03-2.44,.07-4.33-.21-4.41-3.23-.01-.53-.38-1-.79-1.39-3.67-1.17-7.32-1.67-10.91,.3,.04,1.79,.08,3.58,.13,5.37,2.91,.71,4.7,2.51,5.27,5.48l.15,10.79c2.91,.71,4.7,2.51,5.27,5.48,.05,1.79,.1,3.58,.15,5.37,.13,.13,.25,.34,.4,.35,3.16,.23,4.25,2.3,4.57,5.08,.18,.24,.41,.43,.67,.57,3.72,1.01,7.52,.24,11.27,.53,1.29,.1,3.34-.71,3.41,1.5,.08,2.47-2.11,1.6-3.46,1.72-3.74,.31-7.55-.52-11.26,.57-.29,.17-.53,.4-.72,.68-.79,1.85-.93,3.65,.44,5.32l-.03-.03c1.06,1.06,2.42,1.06,3.78,1.07,2.88,.02,5.76-.03,8.64,.03,1.13,.02,2.57-.18,2.62,1.55,.05,1.74-1.36,1.63-2.51,1.65-2.97,.05-5.94,0-8.91,.03-1.26,.01-2.54,.02-3.48,1.09v5.4c1.02,1.15,2.4,1.07,3.74,1.09,2.96,.03,5.92-.02,8.88,.03,1.1,.02,2.29,.05,2.29,1.6,0,1.55-1.2,1.58-2.29,1.6-2.96,.05-5.92,0-8.88,.03-1.34,.02-2.72-.06-3.74,1.09v5.4c2.95,.68,4.65,2.56,5.33,5.45h-.05c1.52,1.34,3.32,1.14,5.11,.89,.26,0,.53,.02,.79,0,2.49-.14,4.35,.45,4.24,3.49-.01,.42,.3,.82,.6,1.16,1.71,.82,4.38,3.52,5.54,5.61,1.58,.95,3.28,.83,4.99,.58,1.15-.06,2.3,.12,3.45,.18,1,.05,1.36,.68,1.35,1.61,0,.94-.38,1.56-1.37,1.61-1.15,.06-2.29,.25-3.46,.18-3.33-.27-6.65-.29-9.98,0-.53,.07-1.07-.15-1.58-.09-2.2,.24-3.34-.63-3.35-2.92,0-.71-.37-1.37-.96-1.84-1.82-.9-3.59-1.11-5.23,.37v27.08c2.91,.71,4.69,2.51,5.27,5.48,.05,1.79,.1,3.58,.15,5.37,.43,.49,.96,.91,1.59,.94,1.87,.08,2.64,1.06,2.83,2.87,.19,1.81,1.52,2.58,3.23,2.64,3.87,.13,7.73,.14,11.6,0,1.84-.07,3.15-.97,3.32-2.88,.16-1.81,1.11-2.45,2.77-2.62,1.25-.12,2.37-.84,2.46-2.14,.16-2.35,1.39-3.31,3.57-3.48,.44-.03,.76-.46,1.11-.74l-.03,.03c.67-2.9,2.39-4.78,5.33-5.47l.15-10.79c.59-3.01,2.39-4.81,5.4-5.4q5.45-.2,5.35,5.39,5.52-.1,5.42,5.42,5.26-.09,5.54,5.37c2.91,.71,4.7,2.51,5.27,5.48,.01,1.8,.02,3.61,.03,5.41Z"/><path class="cls-12" d="M363.65,255.3q-5.47,.05-5.27,5.48c1.79,0,3.59-.01,5.38-.02-.04-1.82-.07-3.64-.11-5.46Z"/><path class="cls-12" d="M358.23,266.14q-5.27,.05-5.36,5.43c1.78,1.5,3.57,1.45,5.36,.03,0-1.82,0-3.63,0-5.45Z"/><path class="cls-21" d="M358.23,271.59c-1.79,0-3.57-.02-5.36-.03l.02-.02c-1.43,1.81-1.37,3.66-.18,5.55,1.87,1.25,3.71,1.42,5.52-.12v-5.39Z"/><path class="cls-12" d="M358.23,276.98l-5.34,.02c-.13,.11-.26,.23-.38,.34-.9,1.84-.93,3.63,.36,5.33,1.83,1.03,3.63,1.23,5.36-.24v-5.45Z"/><path class="cls-21" d="M358.23,282.43c-1.78,0-3.56,0-5.34,0-.12,.1-.24,.2-.36,.3-.86,1.65-.77,3.32-.07,5,.18,.28,.42,.49,.71,.66,1.77,.61,3.51,.86,5.06-.56v-5.39Z"/><path class="cls-12" d="M358.23,287.83h-5.34c-1.55,1.8-1.31,3.65-.18,5.54,1.86,1.25,3.7,1.41,5.52-.09v-5.45Z"/><path class="cls-21" d="M358.23,293.28c-1.78,0-3.56,0-5.34,0-.12,.11-.25,.21-.37,.32-.87,1.75-.97,3.45,.35,5.04,1.79,.02,3.57,.04,5.36,.06v-5.42Z"/><path class="cls-12" d="M358.23,304.09q-5.35,.05-5.33,5.47c1.81,0,3.62,0,5.44,0l-.11-5.46Z"/><path class="cls-17" d="M239.02,407.04c-1.81,.01-3.62,.03-5.43,.04q.1,5.45,5.73,5.45c8.94-.02,17.88-.06,26.82-.09,1.96-3.26,1.18-5.74-2.32-6.31-2.76-.45-1.64-2.77-2.51-4.1-.13-.27-.32-.5-.56-.7-.34-.13,.13-.08-.22-.13-2.62-.34-4.69-1.2-4.62-4.4,0-.41-.41-.77-.79-1.03-1.85-.82-3.63-.92-5.28,.47h.05c-.69,2.94-2.5,4.77-5.47,5.43l.03-.03c-.69,2.93-2.4,4.83-5.44,5.38Z"/><path class="cls-21" d="M260.7,401.71c0,.54,.09,1.09,.01,1.62-.4,2.72,.27,4.38,3.5,3.81,1.58-.28,2.04,.63,1.95,2.07-.07,1.08-.02,2.16-.02,3.24,1.82,.04,3.64,.08,5.46,.12v-10.9c-1.8,0-3.59,0-5.39-.01-1.85-1.32-3.69-1.55-5.51,.05Z"/><path class="cls-21" d="M466.78,173.94q-.09,5.45,5.3,5.48c.04-1.82,.08-3.64,.12-5.46-1.81,0-3.61-.01-5.42-.02Z"/><path class="cls-21" d="M239.03,309.55q0-5.43-5.33-5.45c-.04,1.82-.08,3.64-.12,5.46,1.82,0,3.63,0,5.45,0Z"/><path class="cls-12" d="M244.43,309.58c-1.81,0-3.63-.02-5.44-.02,.05,1.8,.09,3.61,.14,5.41,1.8,1.48,3.63,1.32,5.48,.12,1.21-1.88,1.34-3.72-.18-5.51Z"/><path class="cls-21" d="M244.47,314.95c-1.78,0-3.56,0-5.34,0v5.42c1.76,.01,3.53,.02,5.29,.03,.12-.09,.25-.19,.37-.28,.88-1.62,.87-3.25,.04-4.88-.12-.1-.24-.2-.36-.29Z"/><path class="cls-12" d="M244.4,352.94q.2-5.42-5.27-5.48l-.11,5.46c1.79,0,3.59,.01,5.38,.02Z"/><path class="cls-21" d="M304.14,43.93q5.26-.17,5.43,5.32c.31,.19-.13,.01,.19,.19,1.9,1.09,3.98,3.25,5.13,5.32,.02,3.6,.04,7.2,.06,10.8l5.37,.04c.07-.05,.21-.09,.22-.15,.44-3.02,2.46-4.5,5.17-5.32v-5.39c-2.93-.7-4.68-2.55-5.29-5.49l-.13-10.77c-2.93-.7-4.68-2.55-5.29-5.49l-.02-21.66c-1.82,.02-3.65,.03-5.47,.05-.12,.1-.23,.19-.35,.29-.78,1.11-.69,2.4-.69,3.65-.03,4.23,0,8.46-.01,12.7,0,.72,.02,1.44-.05,2.16-.08,.89-.41,1.56-1.43,1.65-1.13,.09-1.53-.54-1.79-1.56-.88-3.39-1.23-3.63-4.79-3.71-.18,0-.36,0-.54,0q-4.65-.05-6.21-4.04c-.12-.1-.24-.19-.36-.28-5.41-.02-10.82-.04-16.23-.06-3.44-1.96-5.63-1.18-6.53,2.53-.4,1.66-1.44,1.74-2.76,1.86-2.33,.22-4.87-.79-6.95,1.09-.04,1.78-.09,3.57-.13,5.35-1.29,1.67-1.38,3.39-.24,5.17,.43,.46,.86,1.07,1.5,1.07,3.36,.01,3.28,2.28,3.16,4.63-.05,.9,0,1.8-.06,2.7-.05,.93-.42,1.55-1.45,1.58-1.1,.04-1.68-.49-1.75-1.59-.1-1.62-.03-3.25-.07-4.87-.03-1.28-.13-2.54-1.25-3.43-1.76-1.16-3.47-1.2-5.12,.22-.01,.09-.04,.18-.04,.27q-.2,5.2-5.5,5.11c0,1.8-.01,3.6-.02,5.39-1.33,1.7-1.21,3.5-.4,5.36,.2,.3,.47,.52,.78,.69,4.82,1,9.68,.51,14.53,.3,.54-.02,.97-.46,1.38-.81,7.22-.04,14.44-.07,21.65-.11,1.46-1.48,1.17-3.28,.96-5.07,.24-2.58,.08-5.18,.17-7.77,.04-1.14,.15-2.23,1.68-2.2,1.56,.03,1.51,1.19,1.6,2.28,.18,2.3-.35,4.66,.49,6.92,.15,.26,.37,.46,.64,.59,1.77-.06,3.54-.12,5.31-.18,.19-.3,.01,.13,.19-.19,1.09-1.9,3.25-3.98,5.32-5.13Z"/><path class="cls-18" d="M260.81,27.63c2.88,0,5.75-.03,8.63,0,1.2,0,2.01-.17,2.15-1.69,.33-3.71,.41-3.7,4.1-3.74,.45,0,.9-.03,1.35-.04-.01-1.8-.02-3.6-.03-5.4q-5.49,.07-5.42-5.42-5.49,.07-5.42-5.42-5.44,.07-5.44,5.51c.01,5.4,.06,10.81,.09,16.21Z"/><path class="cls-18" d="M255.39,38.47l5.4,.02-.03,.03c-.02-1.85-.05-3.69-.07-5.54-1.8,.01-3.6,.02-5.4,.03l.11,5.46Z"/><path class="cls-16" d="M385.52,266.16q5.42-.03,5.29-5.48c-1.8,0-3.61,.01-5.41,.02,.04,1.82,.08,3.64,.12,5.46Z"/><path class="cls-16" d="M390.83,293.31q.06-5.44-5.31-5.47l-.12,5.46c1.81,0,3.62,0,5.43,.01Z"/><path class="cls-21" d="M141.53,146.89q5.49-.03,5.26-5.45c-1.79,0-3.58,0-5.38,0,.04,1.82,.08,3.64,.12,5.46Z"/><path class="cls-12" d="M352.81,352.88c-.72,0-1.46,.1-2.16,0-2.39-.32-3.61,.48-3.18,3.07,.33,1.98-.71,2.64-2.5,2.35-2.49-.4-3.26,.77-2.92,3.05,.29,1.96-.68,2.43-2.49,2.41-6.41-.08-12.82-.03-19.22-.02,.04,3.6,.07,7.19,.11,10.79,.3,.19-.13,.01,.18,.19,1.89,1.08,3.96,3.24,5.1,5.33,.05,1.77,.09,3.54,.14,5.32,.3,.19-.13,.01,.18,.19,1.89,1.08,3.96,3.24,5.1,5.33,0,3.59,0,7.19,0,10.78,3.65,1.77,7.3,1.77,10.94,0,0-1.79,0-3.57,0-5.36,.56-2.99,2.4-4.76,5.29-5.53,.03-7.92,.18-15.84,0-23.75-.06-2.7,.6-3.82,3.36-3.33,.7,.13,1.44,.03,2.16,.04-.04-3.63-.07-7.25-.11-10.88Z"/><path class="cls-14" d="M347.4,390.8c-.09,0-.18,.01-.27,.02q-5.2,.11-5.02,5.51c1.79-.02,3.58-.04,5.37-.05-.03-1.82-.05-3.65-.08-5.47Z"/><path class="cls-17" d="M342.1,401.69c-3.65,0-7.3,0-10.94,0l.06-.02c-.69,2.95-2.5,4.78-5.47,5.44l.03-.03c-1.4,1.79-1.48,3.58,.01,5.37h21.67c1.49-1.79,1.41-3.58,.01-5.37l.03,.03c-2.97-.66-4.78-2.49-5.47-5.44l.06,.02Z"/><path class="cls-21" d="M347.48,407.08c0,1.79,0,3.58-.01,5.37,1.82,.04,3.64,.08,5.46,.12v-5.48c-1.82,0-3.63,0-5.45,0Z"/><path class="cls-21" d="M325.79,412.44c0-1.79,0-3.58-.01-5.37-1.82,0-3.63,0-5.45,0v5.48c1.82-.04,3.64-.08,5.46-.12Z"/><path class="cls-16" d="M201.13,249.84q-.13,5.45,5.29,5.48c.04-1.82,.08-3.64,.12-5.46-1.8,0-3.61-.01-5.41-.02Z"/><path class="cls-16" d="M206.42,276.99q-5.42,.03-5.29,5.48c1.8,0,3.61-.01,5.41-.02-.04-1.82-.08-3.64-.12-5.46Z"/><path class="cls-12" d="M260.7,401.71c1.84-.02,3.67-.04,5.51-.05,0-5.39,0-10.78,0-16.17,.56-2.99,2.4-4.76,5.29-5.53l.14-10.74c.56-2.99,2.4-4.76,5.29-5.53,.04-3.6,.07-7.19,.11-10.79-.54,0-1.09,.06-1.62-.02-2.7-.38-4.42,.22-3.85,3.49,.28,1.59-.68,2.13-2.1,1.92-2.55-.38-3.73,.54-3.32,3.21,.24,1.56-.38,2.29-2.1,2.25-4.06-.09-8.12-.06-12.19-.02-1.32,.01-1.92-.38-2-1.83-.2-3.59-.27-3.59-3.95-3.6-.45,0-.9,0-1.35-.01,0,7.22,0,14.44-.01,21.66,.3,.19-.13,.01,.18,.19,1.89,1.08,3.96,3.24,5.1,5.33,0,3.59,.01,7.18,.02,10.77,1.8,.02,3.6,.04,5.41,.05,3,.6,4.81,2.43,5.47,5.4h0Z"/><path class="cls-14" d="M249.82,385.49q.19-5.38-5.29-5.53c-.03,1.82-.05,3.65-.08,5.47,1.79,.02,3.58,.04,5.37,.05Z"/><path class="cls-24" d="M190.3,347.41q-.19-5.35-5.49-5.36c-1.48,1.77-1.42,3.56-.05,5.36h5.54Z"/><path class="cls-17" d="M184.76,347.41c.02-1.79,.04-3.58,.05-5.36h0c-1.81-1.45-3.63-1.44-5.44,.02l.02-.02c-1.42,1.78-1.47,3.56,0,5.34l5.35,.03Z"/><path class="cls-16" d="M179.41,347.39c0-1.78,0-3.56,0-5.34-1.83,.02-3.65,.03-5.48,.05,0,1.8,.01,3.61,.02,5.41l5.46-.12Z"/><path class="cls-16" d="M423.43,342.1c-1.83-.02-3.65-.03-5.48-.05-1.47,1.78-1.43,3.55,0,5.33,1.82,.04,3.64,.08,5.46,.12,0-1.8,.01-3.61,.02-5.41Z"/><path class="cls-17" d="M417.95,347.39c0-1.78,0-3.56,0-5.33h.01c-1.81-1.44-3.62-1.45-5.44,0h0c-1.43,1.79-1.47,3.58,.05,5.36,1.78,0,3.57-.02,5.35-.03Z"/><path class="cls-24" d="M412.59,347.41c-.02-1.79-.04-3.58-.05-5.36q-5.3,.02-5.49,5.36h5.54Z"/><path class="cls-21" d="M233.71,298.69c4.58,0,9.16-.11,13.73,.03,2.18,.07,2.49-.92,2.49-2.75,0-1.84-.31-2.82-2.49-2.75-4.57,.14-9.15,.04-13.73,.03v5.44Z"/><path class="cls-21" d="M233.71,287.85c4.32,0,8.65-.08,12.97,.02,2.07,.05,3.33-.12,3.3-2.81-.03-2.54-1.2-2.71-3.16-2.67-4.41,.09-8.83,.04-13.24,.05,.04,1.8,.09,3.61,.13,5.41Z"/><path class="cls-21" d="M233.6,282.46l.03-5.48c-1.78-1.46-3.56-1.43-5.34,0-.04,1.82-.08,3.64-.12,5.46,1.81,0,3.62,.01,5.43,.02Z"/><path class="cls-21" d="M461.4,146.86q-.23,5.42,5.26,5.45c.04-1.82,.08-3.64,.12-5.46-1.79,0-3.58,0-5.38,0Z"/><path class="cls-16" d="M461.34,168.56q-.03,5.45,5.43,5.42c-.04-1.81-.07-3.62-.11-5.42-1.78,0-3.56,.01-5.34,.02l.02-.02Z"/><path class="cls-21" d="M217.42,314.93c-.03,1.82-.06,3.64-.09,5.46,1.79,1.46,3.57,1.42,5.35,0,.04-1.82,.08-3.64,.12-5.46h-5.38Z"/><path class="cls-17" d="M222.68,320.38c-1.78,0-3.57,0-5.35,0l.03-.03c-1.46,1.81-1.48,3.63-.01,5.44h0c1.8,1.42,3.59,1.46,5.36-.06,0-1.78-.02-3.57-.03-5.35Z"/><path class="cls-24" d="M222.71,325.73l-5.36,.05c.03,1.82,.05,3.65,.08,5.47,.09,0,.18-.02,.26-.02q5.22-.12,5.02-5.51Z"/><path class="cls-24" d="M379.93,331.26c.01-1.82,.03-3.65,.04-5.47l.04,.04c-1.79-.03-3.58-.06-5.37-.09q-.2,5.37,5.29,5.53Z"/><path class="cls-21" d="M455.98,125.18q-.23,5.42,5.26,5.45c.04-1.82,.08-3.64,.12-5.46-1.79,0-3.58,0-5.38,0Z"/><path class="cls-16" d="M461.24,293.25q-5.42,.03-5.29,5.48c1.8,0,3.61-.01,5.41-.02l-.12-5.46Z"/><path class="cls-18" d="M314.99,32.98q-.14,5.45,5.29,5.49l.11-5.46c-1.8-.01-3.6-.02-5.4-.03Z"/><path class="cls-18" d="M325.7,60.13q-5.22,.04-5.38,5.48c.03,3.59,.07,7.17,.1,10.76,1.58,1.44,3.34,1.22,5.15,.56,.3-.18,.54-.41,.72-.7,.74-1.84,.86-3.62-.44-5.29l-.15-10.79Z"/><path class="cls-18" d="M320.41,49.24q-.14,5.45,5.29,5.49c.04-1.82,.07-3.64,.11-5.46-1.8-.01-3.6-.02-5.4-.03Z"/><path class="cls-14" d="M325.84,70.92v5.43c1.73,1.55,3.5,1.47,5.29,.1,.03-1.82,.05-3.65,.08-5.47l-5.37-.06Z"/><path class="cls-12" d="M352.92,320.32q-.08,5.44,5.31,5.49c.04-1.82,.07-3.64,.11-5.46-1.81,0-3.61-.02-5.42-.03Z"/><path class="cls-12" d="M358.23,336.62q-5.47,.05-5.27,5.48c1.79,0,3.59-.01,5.38-.02l-.11-5.46Z"/><path class="cls-12" d="M228.13,260.77q.2-5.42-5.27-5.48l-.11,5.46c1.79,0,3.59,.01,5.38,.02Z"/><path class="cls-21" d="M233.63,271.59q-.03-5.41-5.34-5.44v5.44c1.78,1.43,3.56,1.47,5.34,0Z"/><path class="cls-16" d="M233.63,271.59c-1.78,0-3.56,0-5.34,0v5.4c1.78,0,3.56,0,5.34,0l-.02,.02c1.46-1.81,1.46-3.63,0-5.44l.02,.02Z"/><path class="cls-17" d="M244.53,65.51c1.79,.02,3.57,.03,5.36,.05l-.03,.03c1.76-3.59,1.8-7.19,0-10.78v-.07c-1.77-1.43-3.54-1.47-5.31,0,0,3.6-.01,7.19-.02,10.79Z"/><path class="cls-18" d="M244.55,54.73h5.31c0-1.82-.01-3.65-.02-5.48-1.8,.01-3.6,.02-5.4,.03l.11,5.45Z"/><path class="cls-21" d="M184.86,222.79q-.11,5.28,5.4,5.48c1.81-.01,3.62-.02,5.43-.03-.04-1.82-.08-3.64-.12-5.46-1.78-1.47-3.57-1.38-5.38-.05-1.79,.03-3.58,.06-5.37,.09l.03-.03Z"/><path class="cls-21" d="M195.61,211.99c.03,1.81,.06,3.62,.08,5.42,1.78,0,3.56,0,5.34,0,.13-.1,.26-.21,.4-.31,.97-1.8,.98-3.54-.29-5.21-.04-1.78-.07-3.55-.11-5.33-1.58-1.45-3.33-1.22-5.14-.56-.3,.17-.54,.41-.72,.7-.74,1.83-.87,3.62,.44,5.28Z"/><path class="cls-21" d="M211.88,222.84c-1.8-.02-3.61-.03-5.41-.05,0,1.82,0,3.63,0,5.45,1.8,0,3.6,.01,5.4,.02,.13-.1,.26-.21,.4-.31,.93-1.79,1.02-3.51-.39-5.11Z"/><path class="cls-21" d="M206.5,222.82l-.05-5.41c-1.72-1.47-3.48-1.47-5.27-.14l-.14,.14q.16,5.29,5.47,5.41Z"/><path class="cls-16" d="M190.2,222.73c1.79,.02,3.58,.03,5.38,.05,.04-1.8,.07-3.6,.11-5.41q-5.35-.02-5.49,5.36Z"/><path class="cls-12" d="M287.87,331.27c-6.32-.06-5.46-.92-5.4,5.4,1.79,0,3.59-.01,5.38-.02,0-1.79,.01-3.59,.02-5.38Z"/><path class="cls-12" d="M282.32,347.46q-5.35,.05-5.33,5.47c1.81,0,3.62,0,5.44,0-.04-1.82-.07-3.64-.11-5.46Z"/><path class="cls-12" d="M222.71,244.51q.2-5.42-5.27-5.48l-.11,5.46c1.79,0,3.59,.01,5.38,.02Z"/><path class="cls-21" d="M298.7,16.79l-5.47-.05c.02,1.82,.03,3.65,.05,5.47l-.03-.03c1.65,1.42,3.58,1.55,5.19,.33,1.82-1.38,1.59-3.42,.67-5.36-.13-.12-.27-.24-.41-.37Z"/><path class="cls-16" d="M390.94,249.9q5.42-.03,5.29-5.48c-1.8,0-3.61,.01-5.41,.02,.04,1.82,.08,3.64,.12,5.46Z"/><path class="cls-24" d="M211.98,336.71l-5.47-.04,.04-.04c.01,1.83,.03,3.65,.04,5.48q5.25-.15,5.4-5.4Z"/><path class="cls-21" d="M146.96,130.63q5.49-.03,5.26-5.45c-1.79,0-3.58,0-5.38,0,.04,1.82,.08,3.64,.12,5.46Z"/><path class="cls-24" d="M390.77,342.1c.01-1.82,.03-3.65,.04-5.47l.04,.04c-1.82,.01-3.65,.03-5.47,.04q.15,5.25,5.4,5.39Z"/><path class="cls-12" d="M374.49,233.61q-5.47,.05-5.27,5.48c1.79,0,3.59-.01,5.38-.02-.04-1.82-.07-3.64-.11-5.46Z"/><path class="cls-16" d="M380.03,222.81c-.04-1.81-.08-3.63-.12-5.44-1.79-1.49-3.57-1.41-5.37-.01l.03-.03c-1.41,1.81-1.47,3.62-.02,5.44l.05,.05c1.81,0,3.61,0,5.42,0Z"/><path class="cls-21" d="M157.69,119.7q5.42,.23,5.45-5.26c-1.82-.04-3.64-.08-5.46-.12v5.37Z"/><path class="cls-21" d="M445.06,114.44q.03,5.49,5.45,5.26c0-1.79,0-3.58,0-5.38-1.82,.04-3.64,.08-5.46,.12Z"/><path class="cls-14" d="M276.91,363.7c-.09,0-.18,.01-.27,.02q-5.2,.11-5.02,5.51l5.37-.05c-.03-1.82-.05-3.65-.08-5.47Z"/><path class="cls-18" d="M239.01,103.44c6.56,.1,5.35,.81,5.42-5.4-1.8,0-3.61,.02-5.41,.02v5.37Z"/><path class="cls-19" d="M233.66,108.88c-.01-1.76-.02-3.52-.03-5.28-1.81,0-3.62,0-5.42,0,.12,5.89-1.16,5.38,5.45,5.28Z"/><path class="cls-12" d="M320.36,363.77c0-.09,0-.18,0-.27-.16-5.69,1.28-5.26-5.45-5.13,0,1.79,.01,3.59,.02,5.38,1.81,0,3.62,0,5.44,0Z"/><path class="cls-14" d="M325.73,380.06q.19-5.38-5.29-5.53l-.08,5.47c1.79,.02,3.58,.04,5.37,.05Z"/><path class="cls-14" d="M271.49,379.96c-.09,0-.18,.01-.27,.02q-5.2,.11-5.02,5.51c1.79-.02,3.58-.04,5.37-.05-.03-1.82-.05-3.65-.08-5.47Z"/><path class="cls-16" d="M195.71,239q-.13,5.45,5.29,5.48c.04-1.82,.08-3.64,.12-5.46-1.8,0-3.61-.01-5.41-.02Z"/><path class="cls-16" d="M152.25,314.98c4.67-.01,9.34-.12,14.01,.01,2.35,.07,2.29-1.25,2.33-2.9,.05-1.74-.35-2.63-2.37-2.6-6.46,.11-12.93,.05-19.4,.06,0,1.81,0,3.62,.01,5.43h5.41Z"/><path class="cls-16" d="M455.82,304.09c-2.7,0-5.4,.1-8.1-.02-1.93-.09-2.98,.45-2.65,2.54,.4,2.49-.8,3.06-3.08,2.95-3.5-.16-7.02,.08-10.52-.09-2.22-.11-2.69,.77-2.74,2.81-.05,2.24,.82,2.83,2.85,2.68,1.79-.13,3.61,.11,5.39-.06,2.24-.22,2.9,.77,2.68,2.81-.09,.89,.01,1.8,.02,2.7,1.8,0,3.61-.01,5.41-.02q-.1-5.52,5.42-5.42-.1-5.52,5.42-5.42l-.12-5.46Z"/><path class="cls-12" d="M369.07,244.45q-5.47,.05-5.27,5.48c1.79,0,3.59-.01,5.38-.02l-.11-5.46Z"/><path class="cls-12" d="M309.46,352.94q.2-5.42-5.27-5.48l-.11,5.46c1.79,0,3.59,.01,5.38,.02Z"/><path class="cls-21" d="M217.31,233.66c3.63-.02,7.26-.03,10.89-.05,.12-.11,.25-.22,.37-.32,.87-1.76,.97-3.47-.43-5.04-3.58-.04-7.17-.07-10.75-.11-1.78-1.33-3.57-1.4-5.37-.04l-.14,.14,.02,5.4c1.8,0,3.61,0,5.41,0Z"/><path class="cls-16" d="M141.4,298.74q.13-5.45-5.29-5.48c-.04,1.82-.08,3.64-.12,5.46,1.8,0,3.61,.01,5.41,.02Z"/><path class="cls-18" d="M331.13,76.45c-1.76-.03-3.53-.07-5.29-.1l-.11,.11c-1.41,1.8-1.34,3.61,0,5.41l.1,5.33c.31,.19-.13,.01,.19,.19,1.9,1.08,3.99,3.25,5.13,5.32,.03,1.78,.07,3.56,.1,5.33,2.88,.75,4.72,2.53,5.37,5.47h0c2.94,.66,4.72,2.49,5.47,5.37,3.58,.03,7.17,.07,10.75,.1,1.8,1.35,3.6,1.41,5.41,0l.11-.11c-.03-1.76-.07-3.53-.1-5.29-.09-.01-.18-.03-.27-.03q-5.16-.18-5.09-5.49-5.49,.07-5.42-5.42-5.49,.07-5.42-5.42-5.49,.07-5.42-5.42-5.28,.07-5.52-5.36Z"/><path class="cls-21" d="M380.06,206.57c-.02,1.8-.03,3.61-.05,5.41,1.82,0,3.63,0,5.45,0-.04-1.82-.08-3.64-.12-5.46-1.78-1.44-3.54-1.42-5.28,.05Z"/><path class="cls-21" d="M374.55,217.36c1.79,0,3.58,0,5.37,.01,.04-1.81,.08-3.62,.13-5.43q-5.38,0-5.49,5.41Z"/><path class="cls-14" d="M331.15,390.91q.19-5.38-5.29-5.53c-.03,1.82-.05,3.65-.08,5.47l5.37,.05Z"/><path class="cls-21" d="M244.42,401.69q5.43,0,5.47-5.44c-1.82,0-3.64,0-5.46,0,0,1.82,0,3.63,0,5.45Z"/><path class="cls-19" d="M249.83,92.62c-1.76,.02-3.52,.04-5.28,.06-.04,1.8-.07,3.6-.11,5.41,6-.14,5.48,1.18,5.39-5.46Z"/><path class="cls-21" d="M325.75,407.11q5.43,0,5.47-5.44c-1.82,0-3.64,0-5.46,0v5.45Z"/><path class="cls-16" d="M396.36,239.06q5.42-.03,5.29-5.48c-1.8,0-3.61,.01-5.41,.02,.04,1.82,.08,3.64,.12,5.46Z"/><path class="cls-16" d="M146.85,309.57q.06-5.44-5.31-5.48c-.04,1.82-.08,3.64-.12,5.46,1.81,0,3.62,0,5.43,.01Z"/><path class="cls-21" d="M380.09,309.53q5.34-.03,5.33-5.47c-1.82,0-3.63,0-5.45,0,.04,1.82,.08,3.64,.12,5.46Z"/><path class="cls-21" d="M385.48,184.88c0,5.42-.01,10.84-.02,16.26,1.77,0,3.55-.02,5.32-.03,.04-3.61,.08-7.21,.13-10.82,1.29-1.63,1.15-3.39,.48-5.2-.17-.3-.4-.54-.69-.73-1.83-.73-3.61-.95-5.22,.52Z"/><path class="cls-16" d="M380.06,206.57c1.76-.02,3.52-.04,5.28-.06,.04-1.8,.07-3.6,.11-5.41-6.01,.14-5.49-1.18-5.39,5.46Z"/><path class="cls-16" d="M396.23,211.99q.13-5.45-5.29-5.48c-.04,1.82-.08,3.64-.12,5.46,1.8,0,3.61,.01,5.41,.02Z"/><path class="cls-21" d="M212,304.08q-.23,5.42,5.26,5.45c.04-1.82,.08-3.64,.12-5.46h-5.38Z"/><path class="cls-12" d="M352.93,309.53c-1.81,.01-3.62,.03-5.42,.04-1.42,1.57-1.19,3.32-.56,5.11,.17,.3,.4,.54,.68,.73,1.8,.71,3.57,.96,5.18-.45l.12-5.43Z"/><path class="cls-21" d="M352.81,314.96c-1.78,0-3.56-.01-5.34-.02-1.48,1.79-1.42,3.58-.02,5.38,1.82,.02,3.65,.03,5.47,.05-.04-1.8-.07-3.6-.11-5.4Z"/><path class="cls-21" d="M206.54,298.63c0-1.8,0-3.6,0-5.4-1.8,0-3.6,0-5.4,0l-.19,.03c-1.28,1.85-1.24,3.7-.02,5.56,1.86,1.25,3.72,1.3,5.58,0l.03-.19Z"/><path class="cls-21" d="M304.07,5.9l.05,5.47c.11,.12,.22,.25,.33,.37,1.77,.88,3.49,.94,5.09-.4l-.03,.03c.02-1.82,.03-3.65,.05-5.47h-5.48Z"/><path class="cls-21" d="M298.65,11.32c.02,1.82,.03,3.65,.05,5.47l-.03-.03c2.21,1.36,4.54,1.46,5.62,.01,1.32-1.78,1.27-3.67-.19-5.43l.03,.03c-1.82-.02-3.65-.03-5.47-.05Z"/><path class="cls-21" d="M385.39,304.1c1.8,.02,3.61,.04,5.41,.06,2.27,1.3,4.59,1.38,5.64-.05,1.32-1.77,1.29-3.66-.18-5.43h0c-1.81-1.47-3.63-1.42-5.46-.04-1.8,0-3.61,0-5.41,0v5.45Z"/><path class="cls-16" d="M390.81,298.65c1.82,.01,3.64,.02,5.46,.04-.13-6.19,1.03-5.38-5.46-5.4,0,1.79,0,3.58,0,5.37Z"/><path class="cls-21" d="M342.04,401.67q.04,5.45,5.47,5.44c0-1.82,0-3.63,0-5.45-1.82,0-3.64,0-5.46,0Z"/><path class="cls-21" d="M239.02,407.04q5.45,.24,5.44-5.38c-1.82,0-3.63,0-5.45,0v5.37Z"/><path class="cls-21" d="M412.49,217.41c-3.61,0-7.21,.01-10.82,.02,0,1.79,0,3.58,0,5.38,1.8,0,3.61,0,5.41,0,1.83,1.39,3.65,1.43,5.46-.04h0c1.43-1.8,1.46-3.59-.05-5.37Z"/><path class="cls-16" d="M412.53,222.78c-1.82,.01-3.64,.02-5.46,.04,0,1.78,0,3.56-.01,5.34,6.63,.06,5.32,.65,5.47-5.38Z"/><path class="cls-21" d="M228.2,233.62q-.03,5.43,5.34,5.43c5.46,0,10.92,.04,16.38,.05,.74,.76,1.67,1.02,2.71,1.03,5.51,.04,11.02,.05,16.52,0,.83,0,1.61-.19,2.31-.65,.61-.46,1-1.12,1.01-1.83,.02-2.58,1.52-3,3.71-2.96,5.83,.09,11.66,.09,17.5,0,2.32-.04,4.13,.2,4.12,3.13,0,.61,.38,1.19,.89,1.61,1.02,.72,2.19,.72,3.36,.72,6.73,.02,13.46,.01,20.19,0,1.27,0,2.53-.03,3.49-1.05,7.8-.02,15.6-.04,23.4-.05q3.75,0,3.75-3.82c0-.54,0-1.08,0-1.61-.11-.12-.22-.25-.32-.38-1.78-.91-3.5-.93-5.13,.33h-27.02c-1.58-1.41-3.53-1.04-5.36-.99-2.45,.06-4.75,.15-4.81-3.26,0-.42-.45-.75-.77-1.06-1.78-.04-3.55-.07-5.33-.11-3-.57-4.75-2.43-5.51-5.32-1.78-.04-3.55-.07-5.33-.11-3.01-.6-4.81-2.41-5.41-5.41-.04-1.78-.07-3.55-.11-5.33-.31-.19,.13-.01-.19-.19-1.9-1.09-3.99-3.25-5.13-5.32v-48.7c.57-3,2.43-4.75,5.32-5.51l.11-10.75c-3.62-.02-7.25-.05-10.87-.07-.03,3.61-.06,7.21-.09,10.82-.57,3-2.43,4.75-5.32,5.51-.02,18.4-.03,36.81-.05,55.21,0,1.44-.03,2.89-.05,4.33-.58,3.01-2.42,4.78-5.37,5.47h0c-.69,2.94-2.46,4.78-5.47,5.37-1.78,.04-3.55,.07-5.33,.11-.19,.3-.01-.13-.19,.19-1.09,1.9-3.25,3.98-5.32,5.13h-16.18c-1.84-1.37-3.67-1.41-5.48,.07l.02-.02Z"/><path class="cls-19" d="M358.26,108.99c-1.8,0-3.61,0-5.41,0,0,1.77,0,3.54,0,5.32,6.25,.05,5.47,.87,5.41-5.31Z"/><path class="cls-19" d="M244.5,114.3c0-.09-.01-.18-.02-.27q-.11-5.2-5.5-5.05c0,.09,.01,.18,.02,.27q.11,5.21,5.49,5.05Z"/><path class="cls-21" d="M379.97,119.7q5.32,.25,5.52-5.29-5.41-.16-5.52,5.29Z"/><path class="cls-19" d="M331.25,114.4q-5.37-.15-5.51,5.32,5.36,.16,5.51-5.32Z"/><path class="cls-19" d="M255.35,119.72c0-.09-.01-.18-.02-.27q-.11-5.2-5.5-5.05c0,.09,.01,.18,.02,.27q.11,5.21,5.49,5.05Z"/><path class="cls-16" d="M217.31,114.43q.12,5.45,5.52,5.29c0-.09-.02-.18-.02-.26q-.16-5.28-5.5-5.03Z"/><path class="cls-21" d="M358.28,125.12q5.32,.25,5.52-5.29-5.41-.16-5.52,5.29Z"/><path class="cls-19" d="M298.72,119.83q-5.37-.15-5.51,5.32,5.36,.16,5.51-5.32Z"/><path class="cls-19" d="M271.61,125.14c0-.09-.01-.18-.02-.27q-.11-5.2-5.5-5.05c0,.09,.01,.18,.02,.27q.11,5.21,5.49,5.05Z"/><path class="cls-21" d="M233.56,119.83c0,.09,.02,.18,.02,.26q.15,5.28,5.49,5.03-.11-5.45-5.52-5.29Z"/><path class="cls-21" d="M331.17,130.54q5.32,.25,5.52-5.29-5.41-.16-5.52,5.29Z"/><path class="cls-21" d="M244.4,125.25c0,.09,.02,.18,.02,.26q.15,5.28,5.49,5.03-.11-5.45-5.52-5.29Z"/><path class="cls-21" d="M309.49,135.96q5.32,.25,5.52-5.29-5.41-.16-5.52,5.29Z"/><path class="cls-21" d="M260.66,130.67c0,.09,.02,.18,.02,.26q.15,5.28,5.49,5.03-.11-5.45-5.52-5.29Z"/><path class="cls-16" d="M293.19,141.41q5.4,.15,5.52-5.29-5.31-.25-5.52,5.29Z"/><path class="cls-16" d="M271.53,136.12q.12,5.29,5.43,5.37c-.07-6.14,1.19-5.5-5.43-5.37Z"/><path class="cls-16" d="M195.6,298.63c-.63,.02-1.27,.13-1.88,.04-2.57-.35-3.98,.4-3.5,3.31,.32,1.94-.92,2.33-2.47,2.11-2.45-.35-3,.74-3.02,3.04-.02,2.55,1.41,2.44,3.11,2.4,1.7-.04,3.42-.14,5.11,.02,2.17,.2,2.96-.67,2.71-2.76-.1-.89-.02-1.79-.02-2.69,1.35-1.64,1.31-3.38,.34-5.17-.13-.1-.27-.2-.41-.3Z"/><path class="cls-21" d="M184.87,179.46v16.17c1.58,1.45,3.33,1.22,5.14,.56,.3-.17,.54-.41,.72-.7,.74-1.83,.87-3.62-.44-5.28-.04-3.58-.07-7.17-.11-10.75-1.77-1.49-3.55-1.49-5.32,0Z"/><path class="cls-16" d="M184.87,179.46c1.77,0,3.55,0,5.32,0,.02-4.67-.06-9.34,.09-14,.08-2.33-1.21-2.31-2.88-2.35-1.72-.03-2.67,.31-2.61,2.35,.13,4.66,.07,9.33,.09,14Z"/><path class="cls-21" d="M195.72,201.05c-.04-1.78-.07-3.55-.11-5.33-1.78-1.51-3.58-1.48-5.38-.04l.02-.02c-1.48,1.81-1.44,3.63-.07,5.48,.04,1.78,.07,3.55,.11,5.33,1.78,1.51,3.58,1.48,5.38,.04l-.02,.02c1.48-1.81,1.44-3.63,.07-5.48Z"/><path class="cls-16" d="M212.02,228.11c1.79,.01,3.58,.03,5.37,.04,0-.09-.01-.18-.02-.27q-.11-5.21-5.5-5.05c.05,1.76,.09,3.52,.14,5.27Z"/><path class="cls-16" d="M249.84,233.57q5.36,.17,5.51-5.32-5.37-.16-5.51,5.32Z"/><path class="cls-16" d="M228.18,233.64c1.83-.02,3.65-.04,5.48-.06,0-.09-.01-.18-.02-.27q-.11-5.21-5.5-5.05c.01,1.79,.02,3.59,.04,5.38Z"/><path class="cls-16" d="M201.08,298.69c-.04-1.81-.09-3.62-.13-5.43q-5.15,0-5.34,5.37l.12,.11c1.6,1.29,3.3,1.19,5.04,.33,.11-.12,.21-.25,.32-.38Z"/><path class="cls-16" d="M206.51,298.82c-1.81-.04-3.62-.09-5.43-.13l.02-.02c-1.43,1.78-1.47,3.57-.06,5.38,6.72,.12,5.3,.52,5.47-5.23Z"/><path class="cls-21" d="M201.04,304.05c.02-1.79,.04-3.59,.06-5.38-1.79,.02-3.59,.04-5.38,.07-.02,1.79-.04,3.58-.06,5.36,1.79-.02,3.58-.03,5.38-.05Z"/><path class="cls-16" d="M211.93,320.4c0-.99-.08-1.99,.01-2.98,.18-1.86-.52-2.6-2.44-2.52-1.76,.07-3.07,0-3.08,2.49,0,2.43,.76,3.31,3.11,2.99,.8-.11,1.62-.01,2.43-.01l-.03,.03Z"/><path class="cls-21" d="M217.36,325.8v-5.44c-1.8,.02-3.61,.04-5.42,.05l.03-.03q-.11,5.41,5.39,5.42Z"/><path class="cls-16" d="M201.09,331.25c0-.99-.08-1.99,.01-2.98,.18-1.86-.52-2.6-2.45-2.52-1.76,.07-3.07,0-3.08,2.49,0,2.43,.76,3.31,3.11,2.99,.8-.11,1.62-.01,2.43-.01l-.03,.03Z"/><path class="cls-21" d="M201.12,331.22q-.11,5.43,5.42,5.41l-.04,.04c0-.09,0-.18,0-.27q0-5.27-5.41-5.15l.03-.03Z"/><path class="cls-16" d="M179.4,336.67c0-.99-.08-1.99,.01-2.98,.18-1.86-.52-2.6-2.44-2.52-1.76,.07-3.07,0-3.08,2.49,0,2.43,.76,3.31,3.11,2.99,.8-.11,1.62-.01,2.43-.01l-.03,.03Z"/><path class="cls-21" d="M179.39,342.07c1.81,0,3.63,0,5.44,0q-.02-5.5-5.42-5.39l.03-.03c-.02,1.81-.03,3.62-.05,5.43Z"/><path class="cls-16" d="M271.62,157.77c.09,0,.18-.01,.27-.02q5.21-.12,5.05-5.5c-.09,0-.18,.01-.27,.02q-5.21,.11-5.05,5.5Z"/><path class="cls-16" d="M190.23,195.69c1.79,.01,3.59,.02,5.38,.04q.16-5.37-5.32-5.51c-.02,1.83-.04,3.65-.06,5.48Z"/><path class="cls-16" d="M190.19,201.14c.02-1.83,.04-3.65,.07-5.48-1.79-.01-3.59-.02-5.38-.04q-.16,5.37,5.32,5.51Z"/><path class="cls-16" d="M195.72,201.05c-.02,1.83-.04,3.65-.07,5.48,1.79,.01,3.59,.02,5.38,.04q.16-5.37-5.32-5.51Z"/><path class="cls-16" d="M195.67,206.51c-1.79-.01-3.59-.02-5.38-.04q-.16,5.37,5.32,5.51c.02-1.83,.04-3.65,.06-5.48Z"/><path class="cls-16" d="M201.18,217.27c1.76,.05,3.52,.09,5.28,.14q.16-5.37-5.32-5.51c.01,1.79,.03,3.58,.04,5.37Z"/><path class="cls-16" d="M179.39,217.37c0-.99-.07-1.99,.03-2.97,.19-1.87-.54-2.58-2.45-2.5-1.76,.07-3.07,0-3.07,2.49,0,2.4,.73,3.32,3.09,2.99,.79-.11,1.62-.02,2.43-.03l-.02,.02Z"/><path class="cls-16" d="M266.15,222.78c5.93-.17,5.48,1.26,5.37-5.47q-5.37,.14-5.37,5.47Z"/><path class="cls-16" d="M179.41,217.35q-.03,5.42,5.45,5.44l-.03,.03q-.02-5.48-5.44-5.45l.02-.02Z"/><path class="cls-16" d="M141.44,222.77c.99,0,1.99-.07,2.97,.03,1.87,.19,2.58-.54,2.5-2.45-.07-1.76,0-3.07-2.49-3.07-2.4,0-3.32,.73-2.99,3.09,.11,.79,.02,1.62,.03,2.43l-.02-.02Z"/><path class="cls-16" d="M260.68,228.15c6.73,.12,5.29,.56,5.47-5.37q-5.33,0-5.47,5.37Z"/><path class="cls-16" d="M396.27,298.68q0,5.3-5.47,5.47,.14,5.37,5.51,5.37c4.68,0,9.36-.08,14.03,.03,2.18,.06,2.22-1.16,2.21-2.74,0-1.57-.01-2.87-2.21-2.74-2.24,.13-4.5,0-6.74,.03-1.15,.01-1.79-.3-1.93-1.63-.41-3.8-.47-3.79-4.32-3.79-.36,0-.72,0-1.08,0Z"/><path class="cls-16" d="M390.87,168.59c0,3.61-.01,7.22-.02,10.82,1.78,1.49,3.57,1.42,5.37,.05,.03-1.82,.05-3.63,.08-5.45,1.34-1.61,1.17-3.38,.51-5.19-.17-.3-.41-.54-.69-.73-1.83-.73-3.61-.92-5.24,.5Z"/><path class="cls-21" d="M352.89,233.62c2.71,0,5.42-.12,8.12,.05,2.15,.13,3.01-.62,2.75-2.76-.11-.89-.02-1.8-.03-2.71-.11-.12-.22-.25-.32-.38-1.78-.91-3.5-.93-5.13,.33-1.78,.04-3.55,.07-5.33,.11-1.51,1.78-1.48,3.58-.04,5.38l-.02-.02Z"/><path class="cls-16" d="M309.47,228.26q.15,5.37,5.53,5.37c1.8,0,3.6-.03,5.41-.05q-.14-5.37-5.53-5.37c-1.8,0-3.6,.03-5.41,.05Z"/><path class="cls-22" d="M401.67,163.17c0-2.97-.05-5.95,.03-8.91,.06-2.13-1.34-1.96-2.72-1.95-1.36,0-2.79-.21-2.73,1.93,.08,2.97,.02,5.94,.02,8.91,1.8,1.54,3.6,1.38,5.4,.02Z"/><path class="cls-16" d="M352.91,233.64c.01-1.79,.02-3.59,.04-5.38q-5.37-.16-5.51,5.32c1.83,.02,3.65,.04,5.48,.06Z"/><path class="cls-16" d="M385.39,320.37c.99,0,1.99-.08,2.98,.01,1.86,.18,2.6-.52,2.52-2.44-.07-1.76,0-3.07-2.49-3.08-2.43,0-3.31,.76-2.99,3.11,.11,.8,.01,1.62,.01,2.43l-.03-.03Z"/><path class="cls-21" d="M379.97,325.79c.09,0,.18,0,.27,0q5.27,.01,5.15-5.41l.03,.03q-5.43-.11-5.41,5.42l-.04-.04Z"/><path class="cls-16" d="M396.23,331.22c.99,0,1.99-.08,2.98,.01,1.86,.18,2.6-.52,2.52-2.44-.07-1.76,0-3.07-2.49-3.08-2.43,0-3.31,.76-2.99,3.11,.11,.8,.01,1.62,.01,2.43l-.03-.03Z"/><path class="cls-16" d="M417.92,336.64c.99,0,1.99-.08,2.98,.01,1.86,.18,2.6-.52,2.52-2.44-.07-1.76,0-3.07-2.49-3.08-2.43,0-3.31,.76-2.99,3.11,.11,.8,.01,1.62,.01,2.43l-.03-.03Z"/><path class="cls-21" d="M390.81,336.63c.09,0,.18,0,.27,0q5.27,.01,5.15-5.41l.03,.03q-5.43-.11-5.41,5.42l-.04-.04Z"/><path class="cls-21" d="M412.53,342.06c1.81,0,3.63,0,5.44,0-.02-1.81-.03-3.62-.05-5.43l.03,.03q-5.41-.11-5.42,5.39Z"/><path class="cls-16" d="M287.78,152.26c-.09,0-.18,.01-.27,.02q-5.21,.12-5.05,5.5c.09,0,.18-.01,.27-.02q5.21-.11,5.05-5.5Z"/><path class="cls-16" d="M461.32,168.58c0-.99-.07-1.99,.03-2.97,.19-1.87-.54-2.58-2.45-2.5-1.76,.07-3.07,0-3.07,2.49,0,2.4,.73,3.32,3.09,2.99,.79-.11,1.62-.02,2.43-.03l-.02,.02Z"/><path class="cls-16" d="M401.67,163.17c-1.8,0-3.6-.01-5.4-.02h0c-1.45,1.81-1.44,3.62,0,5.42h0c1.81,1.43,3.61,1.45,5.41-.02,0-1.79,0-3.59,0-5.38Z"/><path class="cls-22" d="M396.27,168.57c0-1.81,0-3.62,0-5.42-6.15,.12-5.38-1-5.4,5.44,1.8,0,3.6-.01,5.41-.02Z"/><path class="cls-22" d="M401.67,168.55c-1.8,0-3.6,.01-5.41,.02,0,1.81,.02,3.63,.03,5.44q5.44-.05,5.38-5.46Z"/><path class="cls-21" d="M396.22,179.46c-1.79-.02-3.58-.03-5.37-.05h0c-1.46,1.81-1.44,3.62,0,5.43l-.02-.02c1.8,1.44,3.6,1.48,5.38-.04v-5.33Z"/><path class="cls-16" d="M390.86,184.84c0-1.81,0-3.62,0-5.43-5.95,.16-5.48-1.22-5.37,5.47,1.79-.01,3.59-.02,5.38-.04Z"/><path class="cls-16" d="M396.22,184.79c-1.79,.01-3.59,.02-5.38,.04,.02,1.83,.04,3.65,.06,5.48,.09,0,.18-.01,.27-.02q5.21-.11,5.05-5.5Z"/><path class="cls-16" d="M282.47,206.47q-.17,5.36,5.32,5.51,.16-5.37-5.32-5.51Z"/><path class="cls-16" d="M455.9,217.37c0-.99-.07-1.99,.03-2.97,.19-1.87-.54-2.58-2.45-2.5-1.76,.07-3.07,0-3.07,2.49,0,2.4,.73,3.32,3.09,2.99,.79-.11,1.62-.02,2.43-.03l-.02,.02Z"/><path class="cls-16" d="M417.95,217.35c.99,0,1.99-.07,2.97,.03,1.87,.19,2.58-.54,2.5-2.45-.07-1.76,0-3.07-2.49-3.07-2.4,0-3.32,.73-2.99,3.09,.11,.79,.02,1.62,.03,2.43l-.02-.02Z"/><path class="cls-16" d="M412.49,217.41c.02,1.79,.03,3.58,.05,5.37q5.44,0,5.41-5.43l.02,.02c-1.83,.01-3.65,.03-5.48,.04Z"/><path class="cls-21" d="M374.56,222.76l.02-5.44q-5.34,.11-5.45,5.45c1.81,0,3.62-.01,5.44-.02Z"/><path class="cls-16" d="M287.89,217.32c-.05,6.29-.87,5.46,5.41,5.41q-.14-5.27-5.41-5.41Z"/><path class="cls-21" d="M363.73,228.2q5.44,.03,5.43-5.45c-1.79,.03-3.58,.06-5.37,.09-1.51,1.78-1.48,3.58-.04,5.38l-.02-.02Z"/><path class="cls-16" d="M363.75,228.22c.01-1.79,.02-3.59,.04-5.38q-5.37-.16-5.51,5.32c1.83,.02,3.65,.04,5.48,.06Z"/><path class="cls-16" d="M298.63,222.84c0,.09,.01,.18,.02,.27q.12,5.21,5.5,5.05c0-.09-.01-.18-.02-.27q-.11-5.21-5.5-5.05Z"/><path class="cls-19" d="M325.73,81.87c0-1.8,0-3.61,0-5.41-1.77-.03-3.54-.07-5.32-.1q-.15,5.37,5.32,5.51Z"/><path class="cls-19" d="M331.15,92.71q.16-5.36-5.32-5.51-.15,5.37,5.32,5.51Z"/><path class="cls-19" d="M336.63,103.51q0-5.32-5.37-5.47c-.1,6.67-.59,5.31,5.37,5.47Z"/><path class="cls-19" d="M342.1,108.88q-.14-5.37-5.47-5.37c.16,5.97-1.2,5.47,5.47,5.37Z"/><path class="cls-15" d="M249.86,54.8c0,3.59,0,7.19,0,10.78,4.68,0,9.37-.09,14.05,.01,1.68,.03,2.39-.31,2.28-2.17-.17-2.87-.05-5.76-.06-8.65-5.42,0-10.85,.02-16.27,.03Z"/><path class="cls-16" d="M304.14,43.93q-5.36-.17-5.51,5.32,5.37,.16,5.51-5.32Z"/><path class="cls-16" d="M314.89,54.76q.17-5.36-5.32-5.51-.16,5.37,5.32,5.51Z"/><path class="cls-16" d="M287.87,49.26c-.03,1.8-.05,3.61-.08,5.41q5.33,.16,5.53-5.24l-.08-.22c-1.8-1.33-3.59-1.34-5.37,.05Z"/><path class="cls-15" d="M282.37,70.95c.99,0,2-.09,2.97,.05,1.98,.28,2.91-.37,2.48-2.45-.2-.98,.63-2.48-.59-2.86-1.31-.41-2.86-.17-4.29-.06-.7,.06-.52,.82-.53,1.32-.01,1.35,.01,2.7,.02,4.06l-.07-.07Z"/><path class="cls-21" d="M271.57,314.95q0,5.42,5.42,5.42c6.03,0,12.07,0,18.1,0q3.59,0,3.58-3.48c0-.63-.03-1.26-.04-1.89-1.58-1.73-3.68-1.06-5.57-1.11-4.13-.11-4.13-.05-4.13-4.24,0-.63,.04-1.26,0-1.88-.11-1.83,.74-2.59,2.56-2.57,3.05,.03,6.1,.04,9.14-.01,1.24-.02,2.55,.07,3.42-1.12v-5.32c-.88-1.19-2.2-1.11-3.45-1.13-2.98-.05-5.96-.06-8.94,0-1.94,.04-2.71-.73-2.77-2.71-.19-5.95-.25-5.95,5.75-5.95,2.08,0,4.15,.04,6.23-.02,1.17-.03,2.38-.01,3.18-1.12v-5.32c-.88-1.19-2.19-1.11-3.44-1.13-3.07-.05-6.13-.03-9.2-.02-1.68,0-2.38-.7-2.49-2.42-.39-6.13-.35-6.22,5.75-6.23,3.79,0,7.58,.03,11.37-.02,1.25-.01,2.56,.06,3.44-1.13v-5.32c-.96-1.27-2.37-1.12-3.7-1.14-4.5-.04-9,.01-13.5-.03-3.03-.02-3.28-.29-3.34-3.18q-.12-5.45,5.4-5.46c3.87,0,7.74,.01,11.61,0,1.35,0,2.72,.03,3.83-.96,1.14-1.86,1.13-3.73,.06-5.61-1.07-1.05-2.44-1.02-3.78-1.03-4.67-.03-9.34,.03-14.01-.03-2.76-.03-2.96-.35-3.12-3.15-.13-2.28,.61-4.7-.93-6.8-1.85-1.17-3.73-1.15-5.62-.11-1.28,1.32-1.04,3-1.05,4.59-.05,5.89,.46,5.47-5.63,5.48-2.16,0-4.32-.02-6.48,.01-1.18,.02-2.35,.1-3.3,.94-1.15,1.83-1.12,3.69-.12,5.56,1.04,1.09,2.41,1.07,3.76,1.08,3.05,.04,6.11,.04,9.16,0,1.79-.02,2.54,.7,2.64,2.54,.31,6.11,.36,6.11-5.8,6.11-2.07,0-4.13-.03-6.2,.02-1.16,.03-2.37,.02-3.16,1.13v5.32c.87,1.19,2.19,1.1,3.42,1.12,3.05,.06,6.1,.05,9.14,.01,1.82-.02,2.57,.74,2.57,2.57,0,7.1,.34,5.99-5.76,6.11-1.4,.03-2.92-.22-3.96,1.13v5.32c1.68,1.77,3.87,1.04,5.85,1.11,3.85,.13,3.85,.05,3.86,3.96,.01,4.72,.01,4.68-4.67,4.76-1.73,.03-3.64-.47-5.05,1.11v5.32c1.58,1.73,3.68,1.06,5.58,1.11,4.13,.11,4.13,.05,4.13,4.22,0,.09,0,.18,0,.27,0,4.19,0,4.15-4.11,4.23-1.92,.04-3.99-.49-5.64,1.07Z"/><path class="cls-17" d="M309.47,255.26c-6.41,.02-12.82,.1-19.23,.01-1.91-.03-2.57,.61-2.44,2.48,.13,1.98,.13,3.98,0,5.95-.13,1.88,.54,2.51,2.44,2.48,6.41-.08,12.82,0,19.23,.01,2.79-.02,5.59-.12,8.38-.02,1.82,.06,2.79-.48,2.5-2.43-.35-2.34,.54-3.4,2.97-3.03,1.87,.28,2.61-.54,2.48-2.44-.13-1.88-.15-3.79,0-5.67,.18-2.16-.63-2.99-2.76-2.74-.89,.11-1.8,.02-2.7,.03-.12,.09-.23,.19-.35,.28q-1.57,4.03-6.18,4.08c-1.51,.02-3.1-.18-4.35,1Z"/><path class="cls-17" d="M287.83,239.05c0,2.8,.1,5.6-.03,8.39-.09,1.87,.53,2.51,2.44,2.49,6.41-.09,12.82,0,19.23,.01,3.64,1.63,7.28,1.73,10.9-.06l-.02,.02c0-.54,.07-1.09,0-1.61-.38-2.7,.27-4.38,3.5-3.84,1.32,.22,2.01-.44,1.94-1.85-.06-1.16-.04-2.33-.05-3.5-9.01-.04-18.01-.07-27.02-.11-3.64-1.61-7.27-1.75-10.89,.05Z"/><path class="cls-17" d="M266.19,266.21c4.69-.02,9.39-.09,14.08-.02,1.67,.02,2.25-.57,2.17-2.2-.1-2.07-.13-4.16,0-6.22,.12-1.87-.52-2.53-2.44-2.48-4.6,.1-9.2,0-13.81-.01-1.25-1.18-2.84-.98-4.35-1q-4.61-.06-6.17-4.09c-.12-.09-.24-.18-.35-.27q-5.43-.03-5.43,5.41c0,.63,.07,1.27-.01,1.89-.33,2.52,.3,4.05,3.29,3.55,1.93-.33,2.36,.9,2.13,2.46-.36,2.47,.75,3.13,3.07,2.98,2.6-.17,5.22,0,7.84,0Z"/><path class="cls-17" d="M309.48,271.52c-6.41,.02-12.82,.1-19.23,.01-1.91-.03-2.57,.6-2.45,2.48,.13,1.98,.13,3.98,0,5.95-.13,1.88,.52,2.53,2.44,2.49,4.6-.1,9.21,0,13.81,.01,2.8-.02,5.6-.12,8.39-.02,1.84,.07,2.78-.51,2.49-2.44-.36-2.37,.58-3.39,2.99-3.01,2.2,.34,2.47-.91,2.49-2.73,.02-1.9-.41-2.84-2.55-2.72-2.79,.15-5.59,0-8.39-.01Z"/><path class="cls-17" d="M266.19,249.94c4.6-.02,9.21-.12,13.81-.01,1.92,.04,2.53-.62,2.44-2.49-.13-2.79-.03-5.6-.03-8.39-3.62-1.81-7.25-1.66-10.89-.05-7.2,.04-14.4,.07-21.6,.11-.01,.63,.03,1.26-.05,1.88-.36,2.55,.37,4,3.29,3.5,1.65-.28,2.26,.59,2.15,2.18-.08,1.07,0,2.15,0,3.23l-.02-.02c3.62,1.79,7.26,1.7,10.9,.06Z"/><path class="cls-17" d="M304.05,287.79c-4.6,.02-9.21,.12-13.81,.01-1.91-.04-2.57,.61-2.44,2.48,.13,1.98,.13,3.98,0,5.95-.13,1.88,.53,2.53,2.44,2.48,4.6-.1,9.21,0,13.81,.01,2.8-.02,5.6-.12,8.39-.02,1.84,.07,2.78-.51,2.49-2.44-.36-2.37,.59-3.39,2.99-3.01,2.2,.34,2.46-.92,2.49-2.74,.03-1.91-.42-2.78-2.55-2.72-4.6,.12-9.2,0-13.81,0Z"/><path class="cls-17" d="M271.61,282.47c2.89-.02,5.78-.11,8.66-.02,1.68,.05,2.24-.58,2.16-2.21-.1-2.16-.1-4.33,0-6.5,.08-1.64-.5-2.22-2.17-2.2-4.69,.07-9.38,0-14.08-.02-2.98,.02-5.96,.11-8.93,.03-2.13-.06-1.98,1.32-1.96,2.7,.02,1.34-.26,3,1.9,2.71,2.88-.39,3.96,.76,3.55,3.58-.21,1.41,.59,1.89,1.93,1.88,2.98-.03,5.95,.02,8.93,.04Z"/><path class="cls-17" d="M271.61,298.74c2.89-.02,5.78-.11,8.66-.02,1.67,.05,2.24-.57,2.16-2.2-.1-2.16-.1-4.33,0-6.49,.08-1.63-.49-2.25-2.16-2.2-2.88,.09-5.77,0-8.66-.02-4.69,.02-9.39,.12-14.08,.01-2.15-.05-2.28,1.09-2.26,2.72,.02,1.55-.02,3.05,2.19,2.73,2.63-.39,3.65,.69,3.27,3.29-.25,1.67,.62,2.2,2.21,2.16,2.89-.07,5.77,.01,8.66,.03Z"/><path class="cls-17" d="M304.05,304.05c-4.69,.02-9.39,.09-14.08,.02-1.66-.02-2.24,.56-2.17,2.2,.1,2.16,.1,4.33,0,6.5-.08,1.63,.49,2.26,2.16,2.21,2.88-.09,5.77,0,8.66,.02,2.8-.02,5.6-.12,8.39-.02,1.84,.07,2.78-.51,2.49-2.44-.36-2.37,.58-3.39,2.99-3.01,2.2,.34,2.47-.91,2.49-2.73,.02-1.9-.41-2.84-2.55-2.72-2.79,.15-5.59,0-8.39-.01Z"/><path class="cls-17" d="M271.57,314.95c2.98,0,5.96-.05,8.94,.01,1.39,.03,1.96-.48,1.91-1.89-.07-2.35-.09-4.7,0-7.05,.07-1.64-.73-1.96-2.15-1.94-2.89,.05-5.78-.02-8.67-.03-2.98,.02-5.95,.11-8.93,.03-2.13-.06-1.99,1.31-1.96,2.7,.03,1.33-.29,2.84,1.89,2.76,2.07-.08,4.16,.11,6.22-.05,2.14-.16,3.01,.61,2.75,2.75-.11,.89-.02,1.8-.02,2.7Z"/><path class="cls-21" d="M233.6,271.57c0,1.81,0,3.63,0,5.44,4.69,0,9.39-.09,14.08,.02,2.19,.06,2.22-1.16,2.22-2.75,0-1.59-.03-2.8-2.22-2.75-4.69,.12-9.38,.03-14.08,.02Z"/><path class="cls-12" d="M331.17,320.33c-3.59,.03-7.18,.06-10.78,.09-1.47,1.77-1.47,3.55,0,5.32h16.21c1.42-1.58,1.2-3.34,.54-5.15-.17-.3-.41-.54-.7-.72-1.83-.73-3.62-.88-5.27,.46Z"/><path class="cls-21" d="M347.43,282.38c-2.87,.01-5.75,.13-8.62,0-2.19-.1-2.2,1.17-2.2,2.74,0,1.57,0,2.84,2.2,2.74,2.87-.13,5.75,0,8.62,0,.12-.1,.25-.19,.37-.28,.89-1.64,.89-3.29,0-4.94-.12-.09-.25-.19-.38-.28Z"/><path class="cls-12" d="M249.91,325.74h10.78c1.47-1.77,1.47-3.55,0-5.32-1.78-.03-3.57-.06-5.35-.09-1.83-1.39-3.69-1.35-5.58-.13-1.25,1.88-1.38,3.74,.15,5.55Z"/><path class="cls-21" d="M347.5,271.63c-2.98-.02-5.96,.03-8.93-.07-2.15-.07-1.96,1.34-1.94,2.71,.01,1.35-.26,2.8,1.91,2.74,2.97-.08,5.95-.01,8.93,0,1.5-1.78,1.42-3.58,.03-5.38Z"/><path class="cls-12" d="M347.44,320.32c0-1.79,.02-3.58,.02-5.38h.01c-1.81-1.46-3.63-1.42-5.47-.03-1.78,.03-3.57,.06-5.35,.09-1.49,1.79-1.46,3.58-.02,5.38h-.01c1.81,1.45,3.63,1.42,5.47,.03,1.78-.03,3.57-.06,5.35-.09Z"/><path class="cls-21" d="M347.43,293.22c-2.88,.01-5.77,.13-8.65,0-2.23-.1-2.15,1.24-2.18,2.78-.03,1.62,.1,2.82,2.25,2.71,2.88-.15,5.76-.07,8.65-.08,1.32-1.63,1.24-3.34,.32-5.11-.13-.1-.26-.2-.4-.3Z"/><path class="cls-12" d="M347.5,271.63c-.01,1.79-.02,3.58-.03,5.38h0c1.81,1.44,3.63,1.44,5.44-.01h-.01c0-1.81,0-3.62,0-5.44-1.8,.03-3.59,.05-5.39,.08Z"/><path class="cls-21" d="M352.9,276.99c-1.81,0-3.62,0-5.44,0-.01,1.79-.02,3.59-.04,5.38l.08,.08c1.81,1.41,3.61,1.39,5.39-.04h-.01c0-1.8,0-3.61,.01-5.42Z"/><path class="cls-21" d="M352.89,293.27c0-1.81,0-3.62,0-5.44h.01c-1.79-1.42-3.58-1.44-5.39-.03l-.08,.08c0,1.78,0,3.56,0,5.34l.08,.08c1.81,1.41,3.61,1.39,5.39-.04h-.01Z"/><path class="cls-12" d="M352.9,293.25c-1.8,.01-3.6,.03-5.39,.04,0,1.78,0,3.56,0,5.33,1.79,0,3.58,0,5.36,0,.01-1.79,.02-3.59,.04-5.38Z"/><path class="cls-21" d="M342.01,314.91c1.82,.02,3.65,.03,5.47,.05,0-1.79,.01-3.59,.02-5.38q-5.37-.16-5.49,5.33Z"/><path class="cls-21" d="M244.43,309.58c.01,1.79,.02,3.59,.04,5.38h-.01c1.63,1.34,3.36,1.29,5.16,.35,.1-.13,.21-.27,.31-.4,0-.09-.01-.18-.01-.27q-.1-5.22-5.48-5.06Z"/><path class="cls-21" d="M336.64,320.38c0-1.79,.01-3.59,.02-5.38q-5.37-.16-5.49,5.33c1.82,.02,3.64,.03,5.47,.05Z"/><path class="cls-21" d="M249.87,320.36c1.82-.01,3.64-.02,5.47-.03q-.12-5.29-5.42-5.42l-.08,.08c-1.3,1.61-1.22,3.31-.35,5.06,.12,.11,.25,.21,.38,.32Z"/><path class="cls-21" d="M342.09,320.41c-1.82-.02-3.65-.03-5.47-.05,0,1.79-.01,3.59-.02,5.38q5.37,.16,5.49-5.33Z"/><path class="cls-21" d="M320.39,325.74c0-1.77,0-3.55,0-5.32-.9-.02-1.82,.04-2.71-.07-2.12-.26-2.82,.56-2.82,2.73s.7,2.99,2.82,2.73c.89-.11,1.8-.05,2.71-.07Z"/><path class="cls-21" d="M260.69,320.42c0,1.77,0,3.55,0,5.32,.9,.02,1.82-.04,2.71,.07,2.12,.26,2.82-.56,2.82-2.73,0-2.17-.7-2.99-2.82-2.73-.89,.11-1.8,.05-2.71,.07Z"/><path class="cls-21" d="M249.91,325.74c-.01-1.79-.02-3.59-.04-5.38h.01c-1.79-1.42-3.58-1.44-5.39-.03l-.08,.08c0,.09,.01,.18,.01,.27q.1,5.22,5.48,5.06Z"/><path class="cls-12" d="M347.51,287.8c1.8,.01,3.59,.03,5.39,.04,0-1.81,0-3.62,0-5.44-1.8,.01-3.6,.03-5.39,.04,0,1.78,0,3.57,0,5.35Z"/><path class="cls-21" d="M260.71,401.71c-.09-6.11,1.06-5.46-5.47-5.4q.18,5.33,5.47,5.4Z"/><path class="cls-12" d="M244.5,320.33c1.8,.01,3.59,.03,5.39,.04-.01-1.8-.03-3.6-.04-5.39-1.8-.01-3.6-.03-5.39-.04,.01,1.8,.03,3.59,.04,5.39Z"/><path class="cls-13" d="M304.09,11.34q.03,5.46-5.42,5.42,.03,5.46-5.42,5.42,.03,5.43,5.36,5.43c.63,0,1.27,.07,1.89-.01,2.65-.37,4.11,.39,3.62,3.42-.38,2.35,1.39,1.94,2.8,2.03,1.67,.1,2.68-.15,2.64-2.26-.11-6.48-.03-12.97-.03-19.45-1.81,0-3.63,0-5.44,0Z"/><path class="cls-20" d="M260.79,38.48c-.02,3.07,.04,6.14-.09,9.2-.1,2.25,1.49,1.65,2.56,1.56,1.07-.1,2.96,1.06,2.9-1.48-.06-2.44-.08-4.88,.02-7.31,.06-1.45-.27-2.21-1.9-2.02-1.16,.13-2.34,.06-3.51,.09l.03-.03Z"/><path class="cls-20" d="M287.87,49.26c1.79-.02,3.58-.03,5.37-.05,0-3.07-.04-6.14,.03-9.21,.05-2.53-1.81-1.41-2.89-1.49-1.06-.08-2.66-.72-2.57,1.55,.12,3.06,.05,6.14,.06,9.21Z"/><path class="cls-16" d="M271.52,239c3.63,.02,7.26,.03,10.89,.05h5.42c3.63-.02,7.26-.03,10.89-.05q-.15-5.37-5.51-5.37c-6.03,0-12.05,0-18.08,0q-3.55,0-3.57,3.48c0,.63-.03,1.26-.05,1.89Z"/><path class="cls-16" d="M320.37,249.88c-3.63,.02-7.27,.04-10.9,.06,0,1.77,0,3.55,0,5.32,2.58,.02,5.17-.09,7.74,.09,2.37,.17,3.56-.51,3.17-3.07-.12-.78-.01-1.6,0-2.4Z"/><path class="cls-16" d="M266.19,249.94c-3.63-.02-7.27-.04-10.9-.06q.03,5.43,5.56,5.43c1.78,0,3.56-.03,5.34-.05,0-1.77,0-3.55,0-5.32Z"/></g><g><g><polygon class="cls-11" points="110.64 230.59 184.97 230.59 250 230.59 250 267.75 240.71 267.75 240.71 258.46 240.71 249.17 240.71 239.88 175.68 239.88 119.93 239.88 119.93 258.46 119.93 267.75 110.64 267.75 110.64 258.46 110.64 249.17 110.64 239.88 110.64 230.59 110.64 230.59"/><polygon class="cls-11" points="92.06 304.92 92.06 286.33 92.06 277.04 82.77 277.04 73.48 277.04 64.19 277.04 54.9 277.04 54.9 286.33 54.9 295.63 54.9 304.92 45.61 304.92 45.61 295.63 45.61 286.33 45.61 277.04 45.61 267.75 54.9 267.75 64.19 267.75 73.48 267.75 82.77 267.75 92.06 267.75 101.35 267.75 101.35 277.04 101.35 286.33 101.35 295.63 101.35 304.92 92.06 304.92 92.06 304.92"/><polygon class="cls-11" points="119.93 267.75 129.22 267.75 129.22 277.04 129.22 286.33 129.22 304.92 119.93 304.92 119.93 295.63 119.93 286.33 119.93 267.75 119.93 267.75"/><polygon class="cls-11" points="250 267.75 259.29 267.75 259.29 277.04 259.29 286.33 259.29 304.92 250 304.92 250 295.63 250 286.33 250 267.75 250 267.75"/><polygon class="cls-11" points="370.78 286.33 370.78 277.04 380.07 277.04 389.36 277.04 417.23 277.04 426.52 277.04 435.81 277.04 435.81 286.33 370.78 286.33 370.78 286.33"/><path class="cls-11" d="M370.78,286.33v37.16h65.03v-37.16h9.29v37.16h27.87v27.87h-18.58v148.65H45.61v-148.65H27.03v-27.87h27.87v-18.58h9.29v18.58h18.58v-18.58h9.29v18.58h37.16v-18.58h9.29v18.58h120.78v-18.58h74.32v9.29h-65.03v9.29h65.03v-9.29h9.29v9.29h18.58v-37.16h9.29Zm92.9,46.45H36.32v9.29H463.68v-9.29h0Zm-37.16,18.58H54.9v139.36H445.1v-139.36h-18.58Z"/></g><polygon class="cls-10" points="54.9 481.43 73.48 481.43 82.77 481.43 101.35 481.43 138.51 481.43 166.39 481.43 184.97 481.43 222.13 481.43 250 481.43 268.58 481.43 305.74 481.43 342.9 481.43 370.78 481.43 380.07 481.43 389.36 481.43 389.36 472.14 389.36 462.85 389.36 453.56 389.36 444.27 389.36 434.98 389.36 425.69 389.36 416.4 389.36 407.11 389.36 379.24 389.36 369.95 380.07 369.95 370.78 369.95 361.49 369.95 352.2 369.95 342.9 369.95 305.74 369.95 277.87 369.95 259.29 369.95 222.13 369.95 194.26 369.95 175.68 369.95 138.51 369.95 119.93 369.95 92.06 369.95 54.9 369.95 54.9 360.66 54.9 351.37 64.19 351.37 73.48 351.37 110.64 351.37 157.1 351.37 184.97 351.37 203.55 351.37 250 351.37 305.74 351.37 333.61 351.37 352.2 351.37 398.65 351.37 445.1 351.37 445.1 388.53 445.1 425.69 445.1 462.85 445.1 481.43 445.1 490.73 435.81 490.73 426.52 490.73 389.36 490.73 361.49 490.73 342.9 490.73 315.03 490.73 296.45 490.73 268.58 490.73 250 490.73 222.13 490.73 203.55 490.73 175.68 490.73 157.1 490.73 129.22 490.73 110.64 490.73 73.48 490.73 64.19 490.73 54.9 490.73 54.9 481.43 54.9 481.43"/><polygon class="cls-7" points="54.9 379.24 54.9 369.95 64.19 369.95 82.77 369.95 110.64 369.95 147.8 369.95 175.68 369.95 194.26 369.95 231.42 369.95 277.87 369.95 315.03 369.95 352.2 369.95 380.07 369.95 389.36 369.95 389.36 379.24 389.36 388.53 389.36 425.69 389.36 453.56 389.36 472.14 389.36 481.43 380.07 481.43 370.78 481.43 361.49 481.43 352.2 481.43 342.9 481.43 305.74 481.43 277.87 481.43 259.29 481.43 222.13 481.43 194.26 481.43 175.68 481.43 138.51 481.43 119.93 481.43 92.06 481.43 73.48 481.43 64.19 481.43 54.9 481.43 54.9 472.14 54.9 462.85 54.9 453.56 54.9 444.27 54.9 434.98 54.9 397.82 54.9 388.53 54.9 379.24 54.9 379.24"/><polygon class="cls-2" points="380.07 332.79 398.65 332.79 407.94 332.79 417.23 332.79 426.52 332.79 435.81 332.79 445.1 332.79 454.39 332.79 463.68 332.79 463.68 342.08 389.36 342.08 380.07 342.08 380.07 332.79 380.07 332.79"/><polygon class="cls-3" points="380.07 342.08 352.2 342.08 333.61 342.08 296.45 342.08 212.84 342.08 129.22 342.08 101.35 342.08 82.77 342.08 45.61 342.08 36.32 342.08 36.32 332.79 45.61 332.79 54.9 332.79 64.19 332.79 73.48 332.79 82.77 332.79 92.06 332.79 101.35 332.79 110.64 332.79 119.93 332.79 129.22 332.79 157.1 332.79 184.97 332.79 203.55 332.79 250 332.79 287.16 332.79 296.45 332.79 305.74 332.79 315.03 332.79 324.32 332.79 333.61 332.79 342.9 332.79 352.2 332.79 361.49 332.79 370.78 332.79 380.07 332.79 380.07 342.08 380.07 342.08"/><polygon class="cls-5" points="417.23 295.63 435.81 295.63 435.81 314.21 435.81 323.5 426.52 323.5 417.23 323.5 407.94 323.5 389.36 323.5 380.07 323.5 370.78 323.5 370.78 314.21 380.07 314.21 389.36 314.21 398.65 314.21 407.94 314.21 417.23 314.21 417.23 304.92 417.23 295.63 417.23 295.63"/><polygon class="cls-4" points="435.81 295.63 426.52 295.63 417.23 295.63 417.23 304.92 417.23 314.21 407.94 314.21 398.65 314.21 389.36 314.21 380.07 314.21 370.78 314.21 370.78 304.92 370.78 295.63 370.78 286.33 380.07 286.33 389.36 286.33 398.65 286.33 407.94 286.33 417.23 286.33 426.52 286.33 435.81 286.33 435.81 295.63 435.81 295.63"/><polygon class="cls-1" points="73.48 286.33 82.77 286.33 92.06 286.33 92.06 295.63 92.06 304.92 82.77 304.92 82.77 314.21 82.77 323.5 64.19 323.5 64.19 314.21 73.48 314.21 73.48 304.92 64.19 304.92 54.9 304.92 54.9 295.63 64.19 295.63 73.48 295.63 73.48 286.33 73.48 286.33"/><g><polygon class="cls-6" points="92.06 286.33 82.77 286.33 73.48 286.33 73.48 295.63 64.19 295.63 54.9 295.63 54.9 286.33 54.9 277.04 64.19 277.04 82.77 277.04 92.06 277.04 92.06 286.33 92.06 286.33"/><polygon class="cls-6" points="64.19 314.21 64.19 304.92 73.48 304.92 73.48 314.21 64.19 314.21 64.19 314.21"/></g><g><polygon class="cls-9" points="231.42 239.88 240.71 239.88 240.71 258.46 240.71 267.75 231.42 267.75 231.42 258.46 231.42 249.17 231.42 239.88 231.42 239.88"/><polygon class="cls-9" points="240.71 267.75 250 267.75 250 277.04 250 286.33 250 304.92 240.71 304.92 240.71 295.63 240.71 286.33 240.71 267.75 240.71 267.75"/><polygon class="cls-9" points="250 304.92 259.29 304.92 259.29 314.21 259.29 323.5 222.13 323.5 203.55 323.5 194.26 323.5 184.97 323.5 175.68 323.5 166.39 323.5 157.1 323.5 147.8 323.5 138.51 323.5 138.51 314.21 147.8 314.21 166.39 314.21 203.55 314.21 212.84 314.21 222.13 314.21 231.42 314.21 240.71 314.21 250 314.21 250 304.92 250 304.92"/><polygon class="cls-9" points="268.58 323.5 268.58 314.21 277.87 314.21 287.16 314.21 296.45 314.21 305.74 314.21 333.61 314.21 333.61 323.5 268.58 323.5 268.58 323.5"/></g><polygon class="cls-8" points="231.42 239.88 231.42 249.17 231.42 258.46 231.42 267.75 240.71 267.75 240.71 277.04 240.71 286.33 240.71 295.63 240.71 304.92 250 304.92 250 314.21 240.71 314.21 231.42 314.21 222.13 314.21 212.84 314.21 203.55 314.21 194.26 314.21 175.68 314.21 138.51 314.21 138.51 304.92 129.22 304.92 129.22 295.63 129.22 286.33 129.22 277.04 129.22 267.75 119.93 267.75 119.93 249.17 119.93 239.88 129.22 239.88 138.51 239.88 147.8 239.88 157.1 239.88 203.55 239.88 231.42 239.88 231.42 239.88"/></g></svg>