<?xml version="1.0" encoding="UTF-8"?><svg id="Capa_2" xmlns="http://www.w3.org/2000/svg" viewBox="0 0 234.09 265.48"><defs><style>.cls-1{fill:#F7D6A2;}.cls-2{fill:#FBD6C7;}</style></defs><g id="shields"><g><path class="cls-1" d="M0,0L21.3,238.94l95.59,26.54,95.86-26.58L234.09,0H0ZM187.82,78.54l-68.94,30.01h66.28l-8.04,89.97-60.07,16.65h0v.02l-60.04-16.67-4.11-46.01h29.42l2.09,23.37,32.63,8.81h0l32.68-8.83,3.4-38.01H51.55l-2.61-29.3,68.09-28.54h0l3.5-1.47H46.26l-1.91-21.44-.7-7.86H190.44l-2.62,29.3Z"/><g><polygon class="cls-2" points="117.04 19.54 117.04 49.23 117.13 49.23 190.44 49.23 187.82 78.54 118.87 108.55 185.15 108.55 177.1 198.52 117.04 215.17 117.04 245.17 194.5 223.69 212.73 19.54 117.04 19.54"/><polygon class="cls-2" points="153.12 137.85 117.13 137.85 117.04 137.85 117.04 184.68 149.71 175.86 153.12 137.85"/><polygon class="cls-2" points="117.13 78.54 117.04 78.54 117.04 80 120.53 78.54 117.13 78.54"/></g></g></g></svg>