<?xml version="1.0" encoding="UTF-8"?><svg id="Capa_2" xmlns="http://www.w3.org/2000/svg" viewBox="0 0 96.04 91.32"><defs><style>.cls-1{fill:#f2ff8d;}</style></defs><g id="Layer_1"><path class="cls-1" d="M28.69,90.92c-2.5-.48-4.91-1.4-7.05-2.77C8.35,79.68,0,65.06,0,48.02H0C0,21.5,21.5,0,48.02,0h0c26.52,0,48.02,21.5,48.02,48.02h0c0,14.13-6.11,26.83-15.82,35.62-3.99,3.61-9.06,5.86-14.44,6.13-5.66,.28-6.17-2.07-6.17-2.07v-11.98c0-.74-.06-1.49-.22-2.22-.23-1.03-.59-2.03-1.13-2.94-.17-.28-.35-.54-.55-.79-.08-.11-.17-.21-.26-.31-.07-.07-.18-.14-.19-.24,.12-.11,.44-.08,.59-.11,.26-.05,.53-.11,.79-.17,.47-.11,.95-.19,1.43-.28,1-.19,1.99-.44,2.96-.73,2.73-.83,5.37-2.13,7.35-4.22,1.07-1.13,1.89-2.47,2.56-3.87,2.52-5.26,2.91-11.71,.38-17.05-.43-.91-.93-1.79-1.51-2.61-.07-.09-.72-.79-.69-.89,1.66-5.97-.49-10.37-.49-10.37-5.26-.04-10.76,4.09-10.76,4.09-9.63-3.2-19.9-.08-19.9-.08-5.99-4.13-10.6-4-10.6-4-1.82,3.72-.65,10.37-.65,10.37-5.34,6.36-4.57,16.89-.69,22.84s14.82,7.11,14.82,7.11c-1.13,.93-2.32,3.44-2.45,4.69-.13,1.25-3.55,1.47-3.55,1.47-5.34,.49-7.24-3.07-7.24-3.07-1.86-3.44-3.56-4.04-3.56-4.04,0,0-1.54-1.01-3.64-.93-2.1,.08-1.17,1.13-1.17,1.13,3.76,1.98,4.93,5.1,4.93,5.1,1.7,4.45,3.6,5.46,3.6,5.46,3.96,2.99,10.48,1.46,10.48,1.46v7.24c-1.5,5.18-11.31,3.23-11.31,3.23l-.24-.05Z"/></g></svg>