<?xml version="1.0" encoding="UTF-8"?><svg id="Capa_2" xmlns="http://www.w3.org/2000/svg" viewBox="0 0 234.09 265.48"><defs><style>.cls-1{fill:#FBD6C7;}.cls-2{fill:#F7D6A2;}</style></defs><g id="shields"><g><path class="cls-2" d="M0,0L21.3,238.95l95.6,26.54,95.86-26.58L234.09,0H0ZM187.82,78.15H75.68l2.68,30.01h106.8l-8.04,89.97-59.97,16.62h0l-.14,.04-60.03-16.67-4.11-46.01h29.42l2.09,23.37,32.63,8.81h.04l32.67-8.83,3.4-38H51.55l-7.9-88.62H190.44l-2.62,29.31Z"/><g><polygon class="cls-1" points="117.04 19.54 117.04 48.84 117.13 48.84 190.44 48.84 187.82 78.15 117.13 78.15 117.04 78.15 117.04 108.16 117.13 108.16 185.15 108.16 177.11 198.13 117.13 214.75 117.13 214.76 117.04 214.78 117.04 245.17 194.5 223.69 212.73 19.54 117.04 19.54"/><polygon class="cls-1" points="153.12 137.46 117.13 137.46 117.04 137.46 117.04 184.29 117.04 184.29 149.71 175.47 153.12 137.46"/></g></g></g></svg>