<?xml version="1.0" encoding="UTF-8"?><svg id="Capa_2" xmlns="http://www.w3.org/2000/svg" viewBox="0 0 60 60"><defs><style>.cls-1{fill:#F7D6A2;}</style></defs><g id="desktop-mobile-website-design-business"><g><path class="cls-1" d="M37,39H5c-2.76,0-5-2.24-5-5v-2c0-.55,.45-1,1-1H37c.55,0,1,.45,1,1v6c0,.55-.45,1-1,1ZM2,33v1c0,1.65,1.35,3,3,3h31v-4H2Z"/><path class="cls-1" d="M37,33H6c-.55,0-1-.45-1-1V5C5,2.24,7.24,0,10,0H50c2.76,0,5,2.24,5,5V24c0,.55-.45,1-1,1h-13c-1.65,0-3,1.35-3,3v4c0,.55-.45,1-1,1Zm-30-2h29v-3c0-2.76,2.24-5,5-5h12V5c0-1.65-1.35-3-3-3H10c-1.65,0-3,1.35-3,3V31Z"/><path class="cls-1" d="M37,29H10c-.55,0-1-.45-1-1V5c0-.55,.45-1,1-1H50c.55,0,1,.45,1,1V24h-2V6H11V27h26v2Z"/><path class="cls-1" d="M55,60h-14c-2.76,0-5-2.24-5-5V28c0-2.76,2.24-5,5-5h14c2.76,0,5,2.24,5,5v27c0,2.76-2.24,5-5,5Zm-14-35c-1.65,0-3,1.35-3,3v27c0,1.65,1.35,3,3,3h14c1.65,0,3-1.35,3-3V28c0-1.65-1.35-3-3-3h-14Z"/><path class="cls-1" d="M13.29,46.71l-3.29-3.29-3.29,3.29-1.41-1.41,4-4c.39-.39,1.02-.39,1.41,0l4,4-1.41,1.41Z"/><path class="cls-1" d="M33,54H14c-2.76,0-5-2.24-5-5v-7h2v7c0,1.65,1.35,3,3,3h19v2Z"/><path class="cls-1" d="M29.71,57.56l-1.41-1.41,3.29-3.29-3.29-3.29,1.41-1.41,4,4c.39,.39,.39,1.02,0,1.41l-4,4Z"/><rect class="cls-1" x="37" y="28" width="22" height="2"/><rect class="cls-1" x="37" y="50" width="22" height="2"/><rect class="cls-1" x="45" y="54" width="6" height="2"/><g><path class="cls-1" d="M46,39h-5c-.55,0-1-.45-1-1v-5c0-.55,.45-1,1-1h5c.55,0,1,.45,1,1v5c0,.55-.45,1-1,1Zm-4-2h3v-3h-3v3Z"/><path class="cls-1" d="M46,48h-5c-.55,0-1-.45-1-1v-5c0-.55,.45-1,1-1h5c.55,0,1,.45,1,1v5c0,.55-.45,1-1,1Zm-4-2h3v-3h-3v3Z"/><rect class="cls-1" x="49" y="32" width="6" height="2"/><rect class="cls-1" x="49" y="36" width="6" height="2"/><rect class="cls-1" x="49" y="41" width="6" height="2"/><rect class="cls-1" x="49" y="45" width="6" height="2"/></g><path class="cls-1" d="M19,15h-5c-.55,0-1-.45-1-1v-5c0-.55,.45-1,1-1h5c.55,0,1,.45,1,1v5c0,.55-.45,1-1,1Zm-4-2h3v-3h-3v3Z"/><path class="cls-1" d="M19,24h-5c-.55,0-1-.45-1-1v-5c0-.55,.45-1,1-1h5c.55,0,1,.45,1,1v5c0,.55-.45,1-1,1Zm-4-2h3v-3h-3v3Z"/><rect class="cls-1" x="22" y="8" width="6" height="2"/><rect class="cls-1" x="22" y="12" width="6" height="2"/><path class="cls-1" d="M38,15h-5c-.55,0-1-.45-1-1v-5c0-.55,.45-1,1-1h5c.55,0,1,.45,1,1v5c0,.55-.45,1-1,1Zm-4-2h3v-3h-3v3Z"/><rect class="cls-1" x="41" y="8" width="6" height="2"/><rect class="cls-1" x="41" y="12" width="6" height="2"/><rect class="cls-1" x="22" y="17" width="25" height="2"/><rect class="cls-1" x="22" y="21" width="13" height="2"/></g></g></svg>