<?xml version="1.0" encoding="UTF-8"?><svg id="Capa_2" xmlns="http://www.w3.org/2000/svg" viewBox="0 0 60 60"><defs><style>.cls-1{fill:#f2ff8d;}</style></defs><g id="wireframe-screen-blueprint-visual-website"><g><g><path class="cls-1" d="M59,16H1c-.55,0-1-.45-1-1V1C0,.45,.45,0,1,0H59c.55,0,1,.45,1,1V15c0,.55-.45,1-1,1ZM2,14H58V2H2V14Z"/><rect class="cls-1" x="29" y="-21.83" width="2" height="59.67" transform="translate(15.18 35.29) rotate(-76.43)"/><rect class="cls-1" x=".17" y="7" width="59.67" height="2" transform="translate(-1.04 7.27) rotate(-13.59)"/></g><g><path class="cls-1" d="M17,52H1c-.55,0-1-.45-1-1V19c0-.55,.45-1,1-1H17c.55,0,1,.45,1,1V51c0,.55-.45,1-1,1Zm-15-2h14V20H2v30Z"/><rect class="cls-1" x="8" y="17.11" width="2" height="35.78" transform="translate(-14.7 7.72) rotate(-26.57)"/><rect class="cls-1" x="-8.89" y="34" width="35.78" height="2" transform="translate(-26.33 27.4) rotate(-63.43)"/></g><path class="cls-1" d="M17,60H1c-.55,0-1-.45-1-1v-8c0-.55,.45-1,1-1H17c.55,0,1,.45,1,1v8c0,.55-.45,1-1,1Zm-15-2h14v-6H2v6Z"/><rect class="cls-1" x="4" y="54" width="2" height="2"/><rect class="cls-1" x="8" y="54" width="2" height="2"/><rect class="cls-1" x="12" y="54" width="2" height="2"/><path class="cls-1" d="M38,33H22c-.55,0-1-.45-1-1v-13c0-.55,.45-1,1-1h16c.55,0,1,.45,1,1v13c0,.55-.45,1-1,1Zm-15-2h14v-11h-14v11Z"/><g><path class="cls-1" d="M38,41H22c-.55,0-1-.45-1-1v-8c0-.55,.45-1,1-1h16c.55,0,1,.45,1,1v8c0,.55-.45,1-1,1Zm-15-2h14v-6h-14v6Z"/><rect class="cls-1" x="25" y="35" width="2" height="2"/><rect class="cls-1" x="29" y="35" width="2" height="2"/><rect class="cls-1" x="33" y="35" width="2" height="2"/></g><path class="cls-1" d="M59,33h-17c-.55,0-1-.45-1-1v-13c0-.55,.45-1,1-1h17c.55,0,1,.45,1,1v13c0,.55-.45,1-1,1Zm-16-2h15v-11h-15v11Z"/><rect class="cls-1" x="29" y="15.19" width="2" height="20.62" transform="translate(-8.71 32.7) rotate(-50.91)"/><rect class="cls-1" x="19.69" y="24.5" width="20.62" height="2" transform="translate(-9.36 24.61) rotate(-39.07)"/><g><rect class="cls-1" x="44" y="35" width="13" height="2"/><rect class="cls-1" x="41" y="39" width="19" height="2"/></g><path class="cls-1" d="M38,56H22c-.55,0-1-.45-1-1v-11c0-.55,.45-1,1-1h16c.55,0,1,.45,1,1v11c0,.55-.45,1-1,1Zm-15-2h14v-9h-14v9Z"/><rect class="cls-1" x="21" y="58" width="18" height="2"/><path class="cls-1" d="M59,60h-17c-.55,0-1-.45-1-1v-15c0-.55,.45-1,1-1h17c.55,0,1,.45,1,1v15c0,.55-.45,1-1,1Zm-16-2h15v-13h-15v13Z"/><rect class="cls-1" x="49.5" y="40.16" width="2" height="22.67" transform="translate(-21.53 55.29) rotate(-48.58)"/><rect class="cls-1" x="39.16" y="50.5" width="22.67" height="2" transform="translate(-21.44 46.29) rotate(-41.42)"/></g></g></svg>