<?xml version="1.0" encoding="UTF-8"?><svg id="Capa_2" xmlns="http://www.w3.org/2000/svg" xmlns:xlink="http://www.w3.org/1999/xlink" viewBox="0 0 495.28 362.7"><defs><style>.cls-1{fill:url(#Degradado_sin_nombre_153-7);}.cls-2{fill:url(#Degradado_sin_nombre_153-5);}.cls-3{fill:url(#Degradado_sin_nombre_153-4);}.cls-4{fill:url(#Degradado_sin_nombre_153-6);}.cls-5{fill:url(#Degradado_sin_nombre_153-2);}.cls-6{fill:url(#Degradado_sin_nombre_153-3);}.cls-7{fill:url(#Degradado_sin_nombre_153-8);}.cls-8{fill:url(#Degradado_sin_nombre_153);}</style><linearGradient id="Degradado_sin_nombre_153" x1="0" y1="181.35" x2="495.28" y2="181.35" gradientTransform="matrix(1, 0, 0, 1, 0, 0)" gradientUnits="userSpaceOnUse"><stop offset="0" stop-color="#f2ff8d"/><stop offset=".15" stop-color="#f8c8a8"/><stop offset=".27" stop-color="#fda6ba"/><stop offset=".33" stop-color="#ff99c1"/><stop offset=".69" stop-color="#bf9eec"/><stop offset=".72" stop-color="#b99eeb"/><stop offset=".77" stop-color="#a8a1e9"/><stop offset=".82" stop-color="#8ca5e6"/><stop offset=".88" stop-color="#65abe2"/><stop offset=".94" stop-color="#33b2dd"/><stop offset=".99" stop-color="#04bad8"/></linearGradient><linearGradient id="Degradado_sin_nombre_153-2" x1="32.75" y1="76.09" x2="461.91" y2="76.09" xlink:href="#Degradado_sin_nombre_153"/><linearGradient id="Degradado_sin_nombre_153-3" x1="43.45" y1="42.33" x2="62.66" y2="42.33" xlink:href="#Degradado_sin_nombre_153"/><linearGradient id="Degradado_sin_nombre_153-4" x1="79.03" y1="42.33" x2="98.24" y2="42.33" xlink:href="#Degradado_sin_nombre_153"/><linearGradient id="Degradado_sin_nombre_153-5" x1="114.61" y1="42.33" x2="133.82" y2="42.33" xlink:href="#Degradado_sin_nombre_153"/><linearGradient id="Degradado_sin_nombre_153-6" x1="124.75" y1="213.61" x2="195.14" y2="213.61" xlink:href="#Degradado_sin_nombre_153"/><linearGradient id="Degradado_sin_nombre_153-7" x1="300.14" y1="213.61" x2="370.53" y2="213.61" xlink:href="#Degradado_sin_nombre_153"/><linearGradient id="Degradado_sin_nombre_153-8" x1="207.72" y1="213.61" x2="287.56" y2="213.61" xlink:href="#Degradado_sin_nombre_153"/></defs><g id="Layer_2"><g><g><path class="cls-8" d="M464.69,362.7H30.59c-16.87,0-30.59-13.72-30.59-30.59V30.59C0,13.72,13.72,0,30.59,0H464.69c16.87,0,30.59,13.72,30.59,30.59V332.11c0,16.87-13.72,30.59-30.59,30.59ZM30.59,15c-8.6,0-15.59,6.99-15.59,15.59V332.11c0,8.6,6.99,15.59,15.59,15.59H464.69c8.6,0,15.59-6.99,15.59-15.59V30.59c0-8.6-6.99-15.59-15.59-15.59H30.59Z"/><path class="cls-5" d="M454.41,83.59H40.25c-4.14,0-7.5-3.36-7.5-7.5s3.36-7.5,7.5-7.5H454.41c4.14,0,7.5,3.36,7.5,7.5s-3.36,7.5-7.5,7.5Z"/><g><circle class="cls-6" cx="53.05" cy="42.33" r="9.61"/><circle class="cls-3" cx="88.64" cy="42.33" r="9.61"/><circle class="cls-2" cx="124.22" cy="42.33" r="9.61"/></g></g><g><path class="cls-4" d="M186.29,275.83c-1.92,0-3.84-.73-5.3-2.2l-54.04-54.04c-1.41-1.41-2.2-3.31-2.2-5.3s.79-3.9,2.2-5.3l55.39-55.39c2.93-2.93,7.68-2.93,10.61,0,2.93,2.93,2.93,7.68,0,10.61l-50.09,50.09,48.73,48.73c2.93,2.93,2.93,7.68,0,10.61-1.46,1.46-3.38,2.2-5.3,2.2Z"/><path class="cls-1" d="M308.99,275.83c-1.92,0-3.84-.73-5.3-2.2-2.93-2.93-2.93-7.68,0-10.61l48.73-48.73-50.09-50.09c-2.93-2.93-2.93-7.68,0-10.61,2.93-2.93,7.68-2.93,10.61,0l55.39,55.39c2.93,2.93,2.93,7.68,0,10.61l-54.04,54.04c-1.46,1.46-3.38,2.2-5.3,2.2Z"/><path class="cls-7" d="M215.21,275.83c-1.3,0-2.62-.34-3.82-1.05-3.56-2.11-4.74-6.71-2.63-10.28l64.85-109.43c2.11-3.56,6.71-4.74,10.28-2.63,3.56,2.11,4.74,6.71,2.63,10.28l-64.85,109.43c-1.4,2.36-3.9,3.68-6.46,3.68Z"/></g></g></g></svg>