<?xml version="1.0" encoding="UTF-8"?><svg id="Capa_2" xmlns="http://www.w3.org/2000/svg" viewBox="0 0 373.93 263.34"><defs><style>.cls-1{fill:#f2ff8d;}</style></defs><g id="_ëîé_1"><g><g><path class="cls-1" d="M59.14,245.88V107.28c0-1.82,.91-3.53,2.42-4.55l.16-.11c.37-.27,.98-.71,1.8-1.08,39.16-17.53,60.87-61.73,70.33-86.51,2.31-6.04,7.06-10.9,13.04-13.33,5.96-2.42,12.71-2.25,18.54,.47l.14,.06c11.75,5.47,18.22,18.21,15.72,30.99-5.38,27.45-15.36,50.76-21.02,62.54h122.92c6.84,0,13.41,2.92,18.03,8.01,4.61,5.08,6.88,11.91,6.22,18.74-1.2,12.32-12.04,21.98-24.68,21.98h-30.11c2.82,4.26,4.2,9.29,3.97,14.49-.47,10.11-7.15,18.52-16.34,21.78,3.75,4.88,5.53,11.04,4.94,17.21-.95,9.8-8,17.91-17.21,20.82,3.05,4.07,4.86,9.1,4.86,14.49,0,13.43-10.93,24.36-24.36,24.36l-125.02-.39c-9.21,0-16.3-2.25-22.29-7.08-1.29-1.04-2.05-2.62-2.05-4.28Zm11-135.29V243.05c3.56,2.2,7.79,3.19,13.35,3.19l125.02,.39c7.35,0,13.35-6,13.35-13.36,0-7.15-5.8-13.12-12.95-13.34h-30.96c-3.04,0-5.5-2.46-5.5-5.5s2.46-5.5,5.5-5.5h42.57c7.05,0,13.08-5.29,13.73-12.04,.37-3.81-.84-7.45-3.41-10.28-2.54-2.8-6.15-4.41-9.89-4.41h-40.77c-3.04-.02-5.5-2.48-5.5-5.51h0c0-3.04,2.46-5.5,5.5-5.5h51.6c7.3,0,13.5-5.71,13.83-12.73,.18-3.63-1.12-7.09-3.62-9.75-2.5-2.66-5.87-4.16-9.49-4.23h-49.2c-3.04,0-5.5-2.46-5.5-5.5,0-3.04,2.46-5.5,5.5-5.5h99.42c7.05,0,13.08-5.29,13.73-12.04,.38-3.8-.84-7.45-3.41-10.28-2.54-2.8-6.15-4.41-9.89-4.41H151.3c-1.95,0-3.75-1.03-4.74-2.71-.99-1.68-1.01-3.76-.07-5.46,.17-.3,16.73-30.4,23.99-67.48,1.53-7.8-2.41-15.58-9.58-18.91l-.14-.06c-3.09-1.44-6.56-1.53-9.75-.24-3.21,1.3-5.66,3.81-6.9,7.06-9.89,25.93-32.55,71.91-73.98,91.64Z"/><path class="cls-1" d="M0,245.89V107.51c0-9.62,7.83-17.45,17.45-17.45H52.69c9.62,0,17.45,7.83,17.45,17.45V245.89c0,9.62-7.83,17.45-17.45,17.45H17.45C7.83,263.34,0,255.51,0,245.89ZM59.14,107.51c0-3.55-2.89-6.45-6.45-6.45H17.45c-3.55,0-6.45,2.89-6.45,6.45V245.89c0,3.55,2.89,6.45,6.45,6.45H52.69c3.55,0,6.45-2.89,6.45-6.45V107.51Z"/></g><g><path class="cls-1" d="M327.54,119.86c0-5.52,4.48-10,10-10h26.38c5.52,0,10,4.48,10,10,0,5.52-4.48,10-10,10h-26.38c-5.52,0-10-4.48-10-10Z"/><path class="cls-1" d="M310.32,78.82c0-2.56,.98-5.12,2.93-7.07l18.9-18.9c3.91-3.91,10.24-3.91,14.14,0,3.9,3.91,3.9,10.24,0,14.14l-18.9,18.9c-3.91,3.91-10.24,3.91-14.14,0-1.95-1.95-2.93-4.51-2.93-7.07Z"/><path class="cls-1" d="M269.24,61.71v-26.38c0-5.52,4.48-10,10-10s10,4.48,10,10v26.38c0,5.52-4.48,10-10,10-5.52,0-10-4.48-10-10Z"/><path class="cls-1" d="M269.4,204.54v-26.38c0-5.52,4.48-10,10-10,5.52,0,10,4.48,10,10v26.38c0,5.52-4.48,10-10,10-5.52,0-10-4.48-10-10Z"/><path class="cls-1" d="M310.44,160.94c0-2.56,.98-5.12,2.93-7.07,3.91-3.91,10.24-3.91,14.14,0l18.9,18.9c3.9,3.91,3.9,10.24,0,14.14-3.91,3.91-10.24,3.91-14.14,0l-18.9-18.9c-1.95-1.95-2.93-4.51-2.93-7.07Z"/></g></g></g></svg>