<?xml version="1.0" encoding="UTF-8"?><svg id="Capa_2" xmlns="http://www.w3.org/2000/svg" viewBox="0 0 248.21 327.62"><defs><style>.cls-1{fill:#f2ff8d;}</style></defs><g id="_ëîé_1"><g><path class="cls-1" d="M156.34,327.62l-26.43-61.27-52.76,45.32,.08-235.29L248.21,237.92l-69.03,7.47,26.33,61.05-49.17,21.18Zm-22.25-79.36l28,64.91,28.97-12.48-27.88-64.64,60.16-6.51L88.22,101.89l-.06,185.82,45.93-39.45Z"/><g><path class="cls-1" d="M79,41.97c-5.52,0-10-4.48-10-10V10c0-5.52,4.48-10,10-10s10,4.48,10,10V31.97c0,5.52-4.48,10-10,10Z"/><path class="cls-1" d="M45.71,55.81c-2.56,0-5.12-.98-7.07-2.93l-15.66-15.66c-3.91-3.91-3.91-10.24,0-14.14,3.91-3.9,10.24-3.9,14.14,0l15.66,15.66c3.91,3.91,3.91,10.24,0,14.14-1.95,1.95-4.51,2.93-7.07,2.93Z"/><path class="cls-1" d="M31.97,89.13H10c-5.52,0-10-4.48-10-10s4.48-10,10-10H31.97c5.52,0,10,4.48,10,10s-4.48,10-10,10Z"/><path class="cls-1" d="M30.15,138.08c-2.56,0-5.12-.98-7.07-2.93-3.91-3.91-3.91-10.24,0-14.14l15.66-15.66c3.91-3.9,10.24-3.9,14.14,0,3.91,3.91,3.91,10.24,0,14.14l-15.66,15.66c-1.95,1.95-4.51,2.93-7.07,2.93Z"/><path class="cls-1" d="M148.13,89h-21.97c-5.52,0-10-4.48-10-10s4.48-10,10-10h21.97c5.52,0,10,4.48,10,10s-4.48,10-10,10Z"/><path class="cls-1" d="M112.32,55.71c-2.56,0-5.12-.98-7.07-2.93-3.91-3.91-3.91-10.24,0-14.14l15.66-15.66c3.91-3.9,10.24-3.9,14.14,0,3.91,3.91,3.91,10.24,0,14.14l-15.66,15.66c-1.95,1.95-4.51,2.93-7.07,2.93Z"/></g></g></g></svg>