<?xml version="1.0" encoding="UTF-8"?><svg id="Capa_2" xmlns="http://www.w3.org/2000/svg" viewBox="0 0 3876.31 2756.16"><defs><style>.cls-1{fill:none;stroke:#f2ff8d;stroke-linecap:round;stroke-linejoin:round;stroke-width:20px;}</style></defs><g id="_ëîé_1"><g><path class="cls-1" d="M10,358H3866.31V2641.49c0,57.77-46.9,104.67-104.67,104.67H114.67c-57.77,0-104.67-46.9-104.67-104.67V358h0Z"/><path class="cls-1" d="M114.67,10H3761.64c57.77,0,104.67,46.9,104.67,104.67v243.33H10V114.67C10,56.9,56.9,10,114.67,10Z"/><rect class="cls-1" x="928.97" y="87.22" width="207.18" height="193.56" rx="47.16" ry="47.16"/><rect class="cls-1" x="669.37" y="87.22" width="207.18" height="193.56" rx="47.16" ry="47.16"/><rect class="cls-1" x="1208.77" y="87.22" width="2308.4" height="193.56" rx="47.16" ry="47.16"/><polyline class="cls-1" points="1016.96 134.81 1066.15 184 1016.96 233.19"/><polyline class="cls-1" points="790.44 134.81 741.25 184 790.44 233.19"/><g><circle class="cls-1" cx="1307.4" cy="179.81" r="38.53"/><line class="cls-1" x1="1334.64" y1="207.05" x2="1367.34" y2="239.74"/></g><circle class="cls-1" cx="186.49" cy="184" r="53.64"/><circle class="cls-1" cx="349.63" cy="184" r="53.64"/><circle class="cls-1" cx="512.77" cy="184" r="53.64"/><line class="cls-1" x1="3627" y1="139.39" x2="3736.33" y2="139.39"/><line class="cls-1" x1="3627" y1="187.77" x2="3736.33" y2="187.77"/><line class="cls-1" x1="3627" y1="236.15" x2="3736.33" y2="236.15"/></g></g></svg>